%TF.GenerationSoftware,KiCad,Pcbnew,10.0.5*%
%TF.CreationDate,2026-08-06T18:38:48-03:00*%
%TF.ProjectId,amplificador_IC4558,616d706c-6966-4696-9361-646f725f4943,rev?*%
%TF.SameCoordinates,Original*%
%TF.FileFunction,Copper,L1,Top*%
%TF.FilePolarity,Positive*%
%FSLAX46Y46*%
G04 Gerber Fmt 4.6, Leading zero omitted, Abs format (unit mm)*
G04 Created by KiCad (PCBNEW 10.0.5) date 2026-08-06 18:38:48*
%MOMM*%
%LPD*%
G01*
G04 APERTURE LIST*
G04 Aperture macros list*
%AMRoundRect*
0 Rectangle with rounded corners*
0 $1 Rounding radius*
0 $2 $3 $4 $5 $6 $7 $8 $9 X,Y pos of 4 corners*
0 Add a 4 corners polygon primitive as box body*
4,1,4,$2,$3,$4,$5,$6,$7,$8,$9,$2,$3,0*
0 Add four circle primitives for the rounded corners*
1,1,$1+$1,$2,$3*
1,1,$1+$1,$4,$5*
1,1,$1+$1,$6,$7*
1,1,$1+$1,$8,$9*
0 Add four rect primitives between the rounded corners*
20,1,$1+$1,$2,$3,$4,$5,0*
20,1,$1+$1,$4,$5,$6,$7,0*
20,1,$1+$1,$6,$7,$8,$9,0*
20,1,$1+$1,$8,$9,$2,$3,0*%
%AMFreePoly0*
4,1,13,2.503536,1.503536,2.505000,1.500000,2.505000,-1.500000,2.503536,-1.503536,2.500000,-1.505000,-2.500000,-1.505000,-2.503536,-1.503536,-2.505000,-1.500000,-2.505000,1.500000,-2.503536,1.503536,-2.500000,1.505000,2.500000,1.505000,2.503536,1.503536,2.503536,1.503536,$1*%
G04 Aperture macros list end*
%TA.AperFunction,ComponentPad*%
%ADD10C,3.800000*%
%TD*%
%TA.AperFunction,ComponentPad*%
%ADD11C,1.400000*%
%TD*%
%TA.AperFunction,ComponentPad*%
%ADD12C,1.600000*%
%TD*%
%TA.AperFunction,ComponentPad*%
%ADD13RoundRect,0.250000X-0.550000X-0.550000X0.550000X-0.550000X0.550000X0.550000X-0.550000X0.550000X0*%
%TD*%
%TA.AperFunction,ComponentPad*%
%ADD14C,2.340000*%
%TD*%
%TA.AperFunction,ComponentPad*%
%ADD15RoundRect,0.250000X0.550000X-0.550000X0.550000X0.550000X-0.550000X0.550000X-0.550000X-0.550000X0*%
%TD*%
%TA.AperFunction,ComponentPad*%
%ADD16RoundRect,0.250000X-0.550000X0.550000X-0.550000X-0.550000X0.550000X-0.550000X0.550000X0.550000X0*%
%TD*%
%TA.AperFunction,ComponentPad*%
%ADD17C,2.800000*%
%TD*%
%TA.AperFunction,ComponentPad*%
%ADD18FreePoly0,0.000000*%
%TD*%
%TA.AperFunction,ComponentPad*%
%ADD19RoundRect,0.250000X0.750000X-0.600000X0.750000X0.600000X-0.750000X0.600000X-0.750000X-0.600000X0*%
%TD*%
%TA.AperFunction,ComponentPad*%
%ADD20O,2.000000X1.700000*%
%TD*%
%TA.AperFunction,Conductor*%
%ADD21C,1.000000*%
%TD*%
G04 APERTURE END LIST*
D10*
%TO.P,REF\u002A\u002A,1*%
%TO.N,N/C*%
X107500000Y-68500000D03*
%TD*%
%TO.P,REF\u002A\u002A,1*%
%TO.N,N/C*%
X206000000Y-69000000D03*
%TD*%
%TO.P,REF\u002A\u002A,1*%
%TO.N,N/C*%
X206000000Y-117500000D03*
%TD*%
D11*
%TO.P,R1,1*%
%TO.N,Net-(U1A-+)*%
X136310000Y-87500000D03*
%TO.P,R1,2*%
%TO.N,Net-(R1-Pad2)*%
X128690000Y-87500000D03*
%TD*%
%TO.P,R2,2*%
%TO.N,GND*%
X118190000Y-87500000D03*
%TO.P,R2,1*%
%TO.N,Net-(R1-Pad2)*%
X125810000Y-87500000D03*
%TD*%
%TO.P,R5,1*%
%TO.N,Net-(U1A--)*%
X159620000Y-72085000D03*
%TO.P,R5,2*%
%TO.N,Net-(C5-Pad2)*%
X152000000Y-72085000D03*
%TD*%
D12*
%TO.P,C2,2*%
%TO.N,GND*%
X200264646Y-80000000D03*
D13*
%TO.P,C2,1*%
%TO.N,Net-(C2-Pad1)*%
X197764646Y-80000000D03*
%TD*%
D12*
%TO.P,C3,2*%
%TO.N,Net-(C3-Pad2)*%
X173882323Y-80500000D03*
D13*
%TO.P,C3,1*%
%TO.N,Net-(C3-Pad1)*%
X171382323Y-80500000D03*
%TD*%
D12*
%TO.P,C4,2*%
%TO.N,Net-(U1A--)*%
X161500000Y-80500000D03*
D13*
%TO.P,C4,1*%
%TO.N,Net-(C3-Pad2)*%
X159000000Y-80500000D03*
%TD*%
D12*
%TO.P,C5,2*%
%TO.N,Net-(C5-Pad2)*%
X185382323Y-80500000D03*
D13*
%TO.P,C5,1*%
%TO.N,Net-(C5-Pad1)*%
X182882323Y-80500000D03*
%TD*%
D14*
%TO.P,RV4,1,1_1*%
%TO.N,Net-(RV2-Pad1)*%
X163000000Y-47585000D03*
%TO.P,RV4,2,2_2*%
%TO.N,Net-(C5-Pad1)*%
X168000000Y-47585000D03*
%TO.P,RV4,3,3_3*%
%TO.N,Net-(C3-Pad1)*%
X173000000Y-47585000D03*
%TD*%
%TO.P,RV3,1,1_1*%
%TO.N,Net-(RV2-Pad1)*%
X143500000Y-47585000D03*
%TO.P,RV3,2,2_2*%
%TO.N,Net-(C3-Pad2)*%
X148500000Y-47585000D03*
%TO.P,RV3,3,3_3*%
%TO.N,Net-(C3-Pad1)*%
X153500000Y-47585000D03*
%TD*%
%TO.P,RV2,1,1_1*%
%TO.N,Net-(RV2-Pad1)*%
X124000000Y-47585000D03*
%TO.P,RV2,2,2_2*%
%TO.N,Net-(R6-Pad2)*%
X129000000Y-47585000D03*
%TO.P,RV2,3,3_3*%
%TO.N,Net-(C3-Pad1)*%
X134000000Y-47585000D03*
%TD*%
%TO.P,RV1,1,1_1*%
%TO.N,Earth*%
X182500000Y-47585000D03*
%TO.P,RV1,2,2_2*%
%TO.N,Net-(C2-Pad1)*%
X187500000Y-47585000D03*
%TO.P,RV1,3,3_3*%
%TO.N,Net-(R3-Pad2)*%
X192500000Y-47585000D03*
%TD*%
D12*
%TO.P,C1,2*%
%TO.N,GND*%
X119500000Y-77117677D03*
D15*
%TO.P,C1,1*%
%TO.N,Net-(U1A-+)*%
X119500000Y-79617677D03*
%TD*%
D16*
%TO.P,U1,1*%
%TO.N,Net-(R3-Pad1)*%
X148810000Y-85690000D03*
D12*
%TO.P,U1,2,-_2*%
%TO.N,Net-(U1A--)*%
X146270000Y-85690000D03*
%TO.P,U1,3,+_3*%
%TO.N,Net-(U1A-+)*%
X143730000Y-85690000D03*
%TO.P,U1,4,V-_4*%
%TO.N,GND*%
X141190000Y-85690000D03*
%TO.P,U1,5*%
%TO.N,N/C*%
X141190000Y-93310000D03*
%TO.P,U1,6*%
X143730000Y-93310000D03*
%TO.P,U1,7*%
X146270000Y-93310000D03*
%TO.P,U1,8,V+_8*%
%TO.N,+5v*%
X148810000Y-93310000D03*
%TD*%
D11*
%TO.P,R6,1*%
%TO.N,Net-(C5-Pad2)*%
X148310000Y-72085000D03*
%TO.P,R6,2*%
%TO.N,Net-(R6-Pad2)*%
X140690000Y-72085000D03*
%TD*%
%TO.P,R4,1*%
%TO.N,Net-(C3-Pad1)*%
X172040000Y-91000000D03*
%TO.P,R4,2*%
%TO.N,Net-(R3-Pad1)*%
X179660000Y-91000000D03*
%TD*%
%TO.P,R3,1*%
%TO.N,Net-(R3-Pad1)*%
X191500000Y-81120000D03*
%TO.P,R3,2*%
%TO.N,Net-(R3-Pad2)*%
X191500000Y-73500000D03*
%TD*%
D17*
%TO.P,J2,R*%
%TO.N,N/C*%
X204400000Y-59100000D03*
%TO.P,J2,S*%
%TO.N,GND*%
X202400000Y-51200000D03*
%TO.P,J2,T*%
%TO.N,Net-(C2-Pad1)*%
X204400000Y-53600000D03*
%TD*%
%TO.P,J1,R*%
%TO.N,N/C*%
X116500000Y-59000000D03*
%TO.P,J1,S*%
%TO.N,GND*%
X114500000Y-51100000D03*
%TO.P,J1,T*%
%TO.N,Net-(U1A-+)*%
X116500000Y-53500000D03*
%TD*%
D18*
%TO.P,REF\u002A\u002A,VIN_N*%
%TO.N,N/C*%
X175775000Y-110100000D03*
%TO.P,REF\u002A\u002A,VIN_P*%
X175775000Y-102900000D03*
%TO.P,REF\u002A\u002A,VOUT_N*%
X144225000Y-110100000D03*
%TO.P,REF\u002A\u002A,VOUT_P*%
X144225000Y-102900000D03*
%TD*%
D10*
%TO.P,REF\u002A\u002A,1*%
%TO.N,N/C*%
X108000000Y-118000000D03*
%TD*%
D19*
%TO.P,REF\u002A\u002A,1*%
%TO.N,N/C*%
X186475000Y-107250000D03*
D20*
%TO.P,REF\u002A\u002A,2*%
X186475000Y-104750000D03*
%TD*%
%TO.N,+5v*%
D21*
X144500000Y-97620000D02*
X144500000Y-103000000D01*
X148810000Y-93310000D02*
X144500000Y-97620000D01*
%TO.N,*%
X186475000Y-104750000D02*
X177625000Y-104750000D01*
X177625000Y-104750000D02*
X175775000Y-102900000D01*
X186475000Y-107250000D02*
X178625000Y-107250000D01*
X178625000Y-107250000D02*
X175775000Y-110100000D01*
%TO.N,Net-(C3-Pad2)*%
X188000000Y-58000000D02*
X188000000Y-86000000D01*
X179382323Y-86000000D02*
X173882323Y-80500000D01*
X175715000Y-45715000D02*
X188000000Y-58000000D01*
X150370000Y-45715000D02*
X175715000Y-45715000D01*
X148500000Y-47585000D02*
X150370000Y-45715000D01*
X188000000Y-86000000D02*
X179382323Y-86000000D01*
%TO.N,Net-(U1A--)*%
X146270000Y-85690000D02*
X149960000Y-82000000D01*
X149960000Y-82000000D02*
X160000000Y-82000000D01*
X160000000Y-82000000D02*
X161500000Y-80500000D01*
%TO.N,Net-(RV2-Pad1)*%
X143000000Y-51500000D02*
X162000000Y-51500000D01*
X163000000Y-50500000D02*
X163000000Y-47585000D01*
X162000000Y-51500000D02*
X163000000Y-50500000D01*
X127915000Y-51500000D02*
X143000000Y-51500000D01*
X124000000Y-47585000D02*
X127915000Y-51500000D01*
X143000000Y-51500000D02*
X143500000Y-51000000D01*
X143500000Y-51000000D02*
X143500000Y-47585000D01*
%TO.N,Net-(C5-Pad2)*%
X150085000Y-72085000D02*
X148310000Y-72085000D01*
X185382323Y-80500000D02*
X185382323Y-82617677D01*
X185382323Y-82617677D02*
X184000000Y-84000000D01*
X184000000Y-84000000D02*
X180000000Y-84000000D01*
X180000000Y-84000000D02*
X176500000Y-80500000D01*
X176500000Y-80500000D02*
X176500000Y-76500000D01*
X176500000Y-76500000D02*
X154500000Y-76500000D01*
X154500000Y-76500000D02*
X150085000Y-72085000D01*
X150085000Y-72085000D02*
X152000000Y-72085000D01*
%TO.N,Net-(C5-Pad1)*%
X182882323Y-80500000D02*
X182882323Y-62467323D01*
X182882323Y-62467323D02*
X168000000Y-47585000D01*
%TO.N,Net-(R3-Pad1)*%
X157120000Y-94000000D02*
X179000000Y-94000000D01*
X148810000Y-85690000D02*
X157120000Y-94000000D01*
X179660000Y-93340000D02*
X179660000Y-91000000D01*
X179000000Y-94000000D02*
X179660000Y-93340000D01*
%TO.N,Net-(C3-Pad1)*%
X168000000Y-88000000D02*
X168000000Y-82000000D01*
X168000000Y-82000000D02*
X169500000Y-80500000D01*
X171000000Y-91000000D02*
X168000000Y-88000000D01*
X172040000Y-91000000D02*
X171000000Y-91000000D01*
X169500000Y-80500000D02*
X171382323Y-80500000D01*
%TO.N,Net-(R3-Pad1)*%
X191500000Y-85000000D02*
X185500000Y-91000000D01*
X185500000Y-91000000D02*
X179660000Y-91000000D01*
X191500000Y-81120000D02*
X191500000Y-85000000D01*
%TO.N,Net-(C2-Pad1)*%
X197764646Y-60235354D02*
X187500000Y-49970708D01*
X187500000Y-49970708D02*
X187500000Y-47585000D01*
X204400000Y-53600000D02*
X197764646Y-60235354D01*
X197764646Y-60235354D02*
X197764646Y-80000000D01*
%TO.N,GND*%
X121190000Y-84500000D02*
X138000000Y-84500000D01*
X118190000Y-87500000D02*
X121190000Y-84500000D01*
X138000000Y-84500000D02*
X139190000Y-85690000D01*
X139190000Y-85690000D02*
X141190000Y-85690000D01*
%TO.N,Net-(R1-Pad2)*%
X128690000Y-87500000D02*
X125810000Y-87500000D01*
%TO.N,Net-(U1A-+)*%
X136310000Y-87500000D02*
X141920000Y-87500000D01*
X141920000Y-87500000D02*
X143730000Y-85690000D01*
%TO.N,GND*%
X119500000Y-77117677D02*
X117490000Y-79127677D01*
X117490000Y-79127677D02*
X117490000Y-86800000D01*
X117490000Y-86800000D02*
X118190000Y-87500000D01*
%TO.N,Net-(U1A-+)*%
X116500000Y-53500000D02*
X121000000Y-58000000D01*
X121000000Y-58000000D02*
X121000000Y-78117677D01*
X121000000Y-78117677D02*
X119500000Y-79617677D01*
%TO.N,GND*%
X114500000Y-51100000D02*
X113100001Y-52499999D01*
X113100001Y-52499999D02*
X113100001Y-70717678D01*
X113100001Y-70717678D02*
X119500000Y-77117677D01*
%TD*%
%TA.AperFunction,Conductor*%
%TO.N,GND*%
G36*
X149437256Y-45020185D02*
G01*
X149483011Y-45072989D01*
X149492955Y-45142147D01*
X149463930Y-45205703D01*
X149457898Y-45212181D01*
X148781822Y-45888255D01*
X148720499Y-45921740D01*
X148677957Y-45923513D01*
X148609492Y-45914500D01*
X148609490Y-45914500D01*
X148390510Y-45914500D01*
X148390502Y-45914500D01*
X148183853Y-45941707D01*
X148173402Y-45943083D01*
X148128699Y-45955060D01*
X147961884Y-45999758D01*
X147843374Y-46048847D01*
X147759572Y-46083560D01*
X147759569Y-46083561D01*
X147759561Y-46083565D01*
X147569929Y-46193049D01*
X147396201Y-46326355D01*
X147396194Y-46326361D01*
X147241361Y-46481194D01*
X147241355Y-46481201D01*
X147108049Y-46654929D01*
X146998565Y-46844561D01*
X146998561Y-46844569D01*
X146998560Y-46844572D01*
X146981005Y-46886954D01*
X146914758Y-47046884D01*
X146858084Y-47258399D01*
X146858082Y-47258410D01*
X146829500Y-47475502D01*
X146829500Y-47694497D01*
X146852188Y-47866823D01*
X146858083Y-47911598D01*
X146914759Y-48123117D01*
X146998560Y-48325428D01*
X146998562Y-48325433D01*
X146998565Y-48325438D01*
X147108049Y-48515070D01*
X147241355Y-48688798D01*
X147241361Y-48688805D01*
X147396194Y-48843638D01*
X147396201Y-48843644D01*
X147569929Y-48976950D01*
X147759561Y-49086434D01*
X147759563Y-49086434D01*
X147759572Y-49086440D01*
X147961883Y-49170241D01*
X148173402Y-49226917D01*
X148390510Y-49255500D01*
X148390517Y-49255500D01*
X148609483Y-49255500D01*
X148609490Y-49255500D01*
X148826598Y-49226917D01*
X149038117Y-49170241D01*
X149240428Y-49086440D01*
X149430071Y-48976950D01*
X149603800Y-48843643D01*
X149758643Y-48688800D01*
X149891950Y-48515071D01*
X150001440Y-48325428D01*
X150085241Y-48123117D01*
X150141917Y-47911598D01*
X150170500Y-47694490D01*
X150170500Y-47475510D01*
X150161485Y-47407040D01*
X150172250Y-47338009D01*
X150196740Y-47303179D01*
X150748102Y-46751819D01*
X150809425Y-46718334D01*
X150835783Y-46715500D01*
X151866445Y-46715500D01*
X151933484Y-46735185D01*
X151979239Y-46787989D01*
X151989183Y-46857147D01*
X151981008Y-46886943D01*
X151927671Y-47015710D01*
X151914757Y-47046887D01*
X151858084Y-47258399D01*
X151858082Y-47258410D01*
X151829500Y-47475502D01*
X151829500Y-47694497D01*
X151852188Y-47866823D01*
X151858083Y-47911598D01*
X151914759Y-48123117D01*
X151998560Y-48325428D01*
X151998562Y-48325433D01*
X151998565Y-48325438D01*
X152108049Y-48515070D01*
X152241355Y-48688798D01*
X152241361Y-48688805D01*
X152396194Y-48843638D01*
X152396201Y-48843644D01*
X152569929Y-48976950D01*
X152759561Y-49086434D01*
X152759563Y-49086434D01*
X152759572Y-49086440D01*
X152961883Y-49170241D01*
X153173402Y-49226917D01*
X153390510Y-49255500D01*
X153390517Y-49255500D01*
X153609483Y-49255500D01*
X153609490Y-49255500D01*
X153826598Y-49226917D01*
X154038117Y-49170241D01*
X154240428Y-49086440D01*
X154430071Y-48976950D01*
X154603800Y-48843643D01*
X154758643Y-48688800D01*
X154891950Y-48515071D01*
X155001440Y-48325428D01*
X155085241Y-48123117D01*
X155141917Y-47911598D01*
X155170500Y-47694490D01*
X155170500Y-47475510D01*
X155141917Y-47258402D01*
X155085241Y-47046883D01*
X155018993Y-46886949D01*
X155011525Y-46817484D01*
X155042799Y-46755005D01*
X155102888Y-46719352D01*
X155133555Y-46715500D01*
X161366445Y-46715500D01*
X161433484Y-46735185D01*
X161479239Y-46787989D01*
X161489183Y-46857147D01*
X161481008Y-46886943D01*
X161427671Y-47015710D01*
X161414757Y-47046887D01*
X161358084Y-47258399D01*
X161358082Y-47258410D01*
X161329500Y-47475502D01*
X161329500Y-47694497D01*
X161352188Y-47866823D01*
X161358083Y-47911598D01*
X161414759Y-48123117D01*
X161498560Y-48325428D01*
X161498562Y-48325433D01*
X161498565Y-48325438D01*
X161608049Y-48515070D01*
X161741355Y-48688798D01*
X161741361Y-48688805D01*
X161896198Y-48843642D01*
X161896201Y-48843644D01*
X161950985Y-48885681D01*
X161992189Y-48942107D01*
X161999500Y-48984057D01*
X161999500Y-50034217D01*
X161979815Y-50101256D01*
X161963181Y-50121898D01*
X161621899Y-50463181D01*
X161560576Y-50496666D01*
X161534218Y-50499500D01*
X144624500Y-50499500D01*
X144557461Y-50479815D01*
X144511706Y-50427011D01*
X144500500Y-50375500D01*
X144500500Y-48984057D01*
X144520185Y-48917018D01*
X144549013Y-48885681D01*
X144603800Y-48843643D01*
X144758643Y-48688800D01*
X144891950Y-48515071D01*
X145001440Y-48325428D01*
X145085241Y-48123117D01*
X145141917Y-47911598D01*
X145170500Y-47694490D01*
X145170500Y-47475510D01*
X145141917Y-47258402D01*
X145085241Y-47046883D01*
X145001440Y-46844572D01*
X144929144Y-46719352D01*
X144891950Y-46654929D01*
X144758644Y-46481201D01*
X144758638Y-46481194D01*
X144603805Y-46326361D01*
X144603798Y-46326355D01*
X144430070Y-46193049D01*
X144240438Y-46083565D01*
X144240433Y-46083562D01*
X144240428Y-46083560D01*
X144038117Y-45999759D01*
X144038118Y-45999759D01*
X144038115Y-45999758D01*
X143932357Y-45971421D01*
X143826598Y-45943083D01*
X143790314Y-45938306D01*
X143609497Y-45914500D01*
X143609490Y-45914500D01*
X143390510Y-45914500D01*
X143390502Y-45914500D01*
X143183853Y-45941707D01*
X143173402Y-45943083D01*
X143128699Y-45955060D01*
X142961884Y-45999758D01*
X142843374Y-46048847D01*
X142759572Y-46083560D01*
X142759569Y-46083561D01*
X142759561Y-46083565D01*
X142569929Y-46193049D01*
X142396201Y-46326355D01*
X142396194Y-46326361D01*
X142241361Y-46481194D01*
X142241355Y-46481201D01*
X142108049Y-46654929D01*
X141998565Y-46844561D01*
X141998561Y-46844569D01*
X141998560Y-46844572D01*
X141981005Y-46886954D01*
X141914758Y-47046884D01*
X141858084Y-47258399D01*
X141858082Y-47258410D01*
X141829500Y-47475502D01*
X141829500Y-47694497D01*
X141852188Y-47866823D01*
X141858083Y-47911598D01*
X141914759Y-48123117D01*
X141998560Y-48325428D01*
X141998562Y-48325433D01*
X141998565Y-48325438D01*
X142108049Y-48515070D01*
X142241355Y-48688798D01*
X142241361Y-48688805D01*
X142396198Y-48843642D01*
X142396201Y-48843644D01*
X142450985Y-48885681D01*
X142492189Y-48942107D01*
X142499500Y-48984057D01*
X142499500Y-50375500D01*
X142479815Y-50442539D01*
X142427011Y-50488294D01*
X142375500Y-50499500D01*
X128380782Y-50499500D01*
X128313743Y-50479815D01*
X128293101Y-50463181D01*
X125696743Y-47866823D01*
X125663258Y-47805500D01*
X125661485Y-47762961D01*
X125670500Y-47694490D01*
X125670500Y-47475510D01*
X125670499Y-47475502D01*
X127329500Y-47475502D01*
X127329500Y-47694497D01*
X127352188Y-47866823D01*
X127358083Y-47911598D01*
X127414759Y-48123117D01*
X127498560Y-48325428D01*
X127498562Y-48325433D01*
X127498565Y-48325438D01*
X127608049Y-48515070D01*
X127741355Y-48688798D01*
X127741361Y-48688805D01*
X127896194Y-48843638D01*
X127896201Y-48843644D01*
X128069929Y-48976950D01*
X128259561Y-49086434D01*
X128259563Y-49086434D01*
X128259572Y-49086440D01*
X128461883Y-49170241D01*
X128673402Y-49226917D01*
X128890510Y-49255500D01*
X128890517Y-49255500D01*
X129109483Y-49255500D01*
X129109490Y-49255500D01*
X129326598Y-49226917D01*
X129538117Y-49170241D01*
X129740428Y-49086440D01*
X129930071Y-48976950D01*
X130103800Y-48843643D01*
X130258643Y-48688800D01*
X130391950Y-48515071D01*
X130501440Y-48325428D01*
X130585241Y-48123117D01*
X130641917Y-47911598D01*
X130670500Y-47694490D01*
X130670500Y-47475510D01*
X130670499Y-47475502D01*
X132329500Y-47475502D01*
X132329500Y-47694497D01*
X132352188Y-47866823D01*
X132358083Y-47911598D01*
X132414759Y-48123117D01*
X132498560Y-48325428D01*
X132498562Y-48325433D01*
X132498565Y-48325438D01*
X132608049Y-48515070D01*
X132741355Y-48688798D01*
X132741361Y-48688805D01*
X132896194Y-48843638D01*
X132896201Y-48843644D01*
X133069929Y-48976950D01*
X133259561Y-49086434D01*
X133259563Y-49086434D01*
X133259572Y-49086440D01*
X133461883Y-49170241D01*
X133673402Y-49226917D01*
X133890510Y-49255500D01*
X133890517Y-49255500D01*
X134109483Y-49255500D01*
X134109490Y-49255500D01*
X134326598Y-49226917D01*
X134538117Y-49170241D01*
X134740428Y-49086440D01*
X134930071Y-48976950D01*
X135103800Y-48843643D01*
X135258643Y-48688800D01*
X135391950Y-48515071D01*
X135501440Y-48325428D01*
X135585241Y-48123117D01*
X135641917Y-47911598D01*
X135670500Y-47694490D01*
X135670500Y-47475510D01*
X135641917Y-47258402D01*
X135585241Y-47046883D01*
X135501440Y-46844572D01*
X135429144Y-46719352D01*
X135391950Y-46654929D01*
X135258644Y-46481201D01*
X135258638Y-46481194D01*
X135103805Y-46326361D01*
X135103798Y-46326355D01*
X134930070Y-46193049D01*
X134740438Y-46083565D01*
X134740433Y-46083562D01*
X134740428Y-46083560D01*
X134538117Y-45999759D01*
X134538118Y-45999759D01*
X134538115Y-45999758D01*
X134432357Y-45971421D01*
X134326598Y-45943083D01*
X134290314Y-45938306D01*
X134109497Y-45914500D01*
X134109490Y-45914500D01*
X133890510Y-45914500D01*
X133890502Y-45914500D01*
X133683853Y-45941707D01*
X133673402Y-45943083D01*
X133628699Y-45955060D01*
X133461884Y-45999758D01*
X133343374Y-46048847D01*
X133259572Y-46083560D01*
X133259569Y-46083561D01*
X133259561Y-46083565D01*
X133069929Y-46193049D01*
X132896201Y-46326355D01*
X132896194Y-46326361D01*
X132741361Y-46481194D01*
X132741355Y-46481201D01*
X132608049Y-46654929D01*
X132498565Y-46844561D01*
X132498561Y-46844569D01*
X132498560Y-46844572D01*
X132481005Y-46886954D01*
X132414758Y-47046884D01*
X132358084Y-47258399D01*
X132358082Y-47258410D01*
X132329500Y-47475502D01*
X130670499Y-47475502D01*
X130641917Y-47258402D01*
X130585241Y-47046883D01*
X130501440Y-46844572D01*
X130429144Y-46719352D01*
X130391950Y-46654929D01*
X130258644Y-46481201D01*
X130258638Y-46481194D01*
X130103805Y-46326361D01*
X130103798Y-46326355D01*
X129930070Y-46193049D01*
X129740438Y-46083565D01*
X129740433Y-46083562D01*
X129740428Y-46083560D01*
X129538117Y-45999759D01*
X129538118Y-45999759D01*
X129538115Y-45999758D01*
X129432357Y-45971421D01*
X129326598Y-45943083D01*
X129290314Y-45938306D01*
X129109497Y-45914500D01*
X129109490Y-45914500D01*
X128890510Y-45914500D01*
X128890502Y-45914500D01*
X128683853Y-45941707D01*
X128673402Y-45943083D01*
X128628699Y-45955060D01*
X128461884Y-45999758D01*
X128343374Y-46048847D01*
X128259572Y-46083560D01*
X128259569Y-46083561D01*
X128259561Y-46083565D01*
X128069929Y-46193049D01*
X127896201Y-46326355D01*
X127896194Y-46326361D01*
X127741361Y-46481194D01*
X127741355Y-46481201D01*
X127608049Y-46654929D01*
X127498565Y-46844561D01*
X127498561Y-46844569D01*
X127498560Y-46844572D01*
X127481005Y-46886954D01*
X127414758Y-47046884D01*
X127358084Y-47258399D01*
X127358082Y-47258410D01*
X127329500Y-47475502D01*
X125670499Y-47475502D01*
X125641917Y-47258402D01*
X125585241Y-47046883D01*
X125501440Y-46844572D01*
X125429144Y-46719352D01*
X125391950Y-46654929D01*
X125258644Y-46481201D01*
X125258638Y-46481194D01*
X125103805Y-46326361D01*
X125103798Y-46326355D01*
X124930070Y-46193049D01*
X124740438Y-46083565D01*
X124740433Y-46083562D01*
X124740428Y-46083560D01*
X124538117Y-45999759D01*
X124538118Y-45999759D01*
X124538115Y-45999758D01*
X124432357Y-45971421D01*
X124326598Y-45943083D01*
X124290314Y-45938306D01*
X124109497Y-45914500D01*
X124109490Y-45914500D01*
X123890510Y-45914500D01*
X123890502Y-45914500D01*
X123683853Y-45941707D01*
X123673402Y-45943083D01*
X123628699Y-45955060D01*
X123461884Y-45999758D01*
X123343374Y-46048847D01*
X123259572Y-46083560D01*
X123259569Y-46083561D01*
X123259561Y-46083565D01*
X123069929Y-46193049D01*
X122896201Y-46326355D01*
X122896194Y-46326361D01*
X122741361Y-46481194D01*
X122741355Y-46481201D01*
X122608049Y-46654929D01*
X122498565Y-46844561D01*
X122498561Y-46844569D01*
X122498560Y-46844572D01*
X122481005Y-46886954D01*
X122414758Y-47046884D01*
X122358084Y-47258399D01*
X122358082Y-47258410D01*
X122329500Y-47475502D01*
X122329500Y-47694497D01*
X122352188Y-47866823D01*
X122358083Y-47911598D01*
X122414759Y-48123117D01*
X122498560Y-48325428D01*
X122498562Y-48325433D01*
X122498565Y-48325438D01*
X122608049Y-48515070D01*
X122741355Y-48688798D01*
X122741361Y-48688805D01*
X122896194Y-48843638D01*
X122896201Y-48843644D01*
X123069929Y-48976950D01*
X123259561Y-49086434D01*
X123259563Y-49086434D01*
X123259572Y-49086440D01*
X123461883Y-49170241D01*
X123673402Y-49226917D01*
X123890510Y-49255500D01*
X123890517Y-49255500D01*
X124109483Y-49255500D01*
X124109490Y-49255500D01*
X124177958Y-49246485D01*
X124246990Y-49257250D01*
X124281823Y-49281743D01*
X127134735Y-52134655D01*
X127134764Y-52134686D01*
X127277214Y-52277136D01*
X127277218Y-52277139D01*
X127441079Y-52386628D01*
X127441092Y-52386635D01*
X127569833Y-52439961D01*
X127612744Y-52457735D01*
X127623164Y-52462051D01*
X127719812Y-52481275D01*
X127768135Y-52490887D01*
X127816458Y-52500500D01*
X127816459Y-52500500D01*
X162098542Y-52500500D01*
X162117870Y-52496655D01*
X162195188Y-52481275D01*
X162291836Y-52462051D01*
X162345165Y-52439961D01*
X162473914Y-52386632D01*
X162637782Y-52277139D01*
X162777139Y-52137782D01*
X162777139Y-52137780D01*
X162787347Y-52127573D01*
X162787348Y-52127570D01*
X163777140Y-51137781D01*
X163886632Y-50973914D01*
X163962052Y-50791835D01*
X164000501Y-50598540D01*
X164000501Y-50401459D01*
X164000501Y-50396349D01*
X164000500Y-50396323D01*
X164000500Y-48984057D01*
X164020185Y-48917018D01*
X164049013Y-48885681D01*
X164103800Y-48843643D01*
X164258643Y-48688800D01*
X164391950Y-48515071D01*
X164501440Y-48325428D01*
X164585241Y-48123117D01*
X164641917Y-47911598D01*
X164670500Y-47694490D01*
X164670500Y-47475510D01*
X164641917Y-47258402D01*
X164585241Y-47046883D01*
X164518993Y-46886949D01*
X164511525Y-46817484D01*
X164542799Y-46755005D01*
X164602888Y-46719352D01*
X164633555Y-46715500D01*
X166366445Y-46715500D01*
X166433484Y-46735185D01*
X166479239Y-46787989D01*
X166489183Y-46857147D01*
X166481008Y-46886943D01*
X166427671Y-47015710D01*
X166414757Y-47046887D01*
X166358084Y-47258399D01*
X166358082Y-47258410D01*
X166329500Y-47475502D01*
X166329500Y-47694497D01*
X166352188Y-47866823D01*
X166358083Y-47911598D01*
X166414759Y-48123117D01*
X166498560Y-48325428D01*
X166498562Y-48325433D01*
X166498565Y-48325438D01*
X166608049Y-48515070D01*
X166741355Y-48688798D01*
X166741361Y-48688805D01*
X166896194Y-48843638D01*
X166896201Y-48843644D01*
X167069929Y-48976950D01*
X167259561Y-49086434D01*
X167259563Y-49086434D01*
X167259572Y-49086440D01*
X167461883Y-49170241D01*
X167673402Y-49226917D01*
X167890510Y-49255500D01*
X167890517Y-49255500D01*
X168109483Y-49255500D01*
X168109490Y-49255500D01*
X168177958Y-49246485D01*
X168246990Y-49257250D01*
X168281823Y-49281743D01*
X181845504Y-62845424D01*
X181878989Y-62906747D01*
X181881823Y-62933105D01*
X181881823Y-79287769D01*
X181862138Y-79354808D01*
X181845505Y-79375450D01*
X181739610Y-79481345D01*
X181647510Y-79630663D01*
X181647508Y-79630668D01*
X181623875Y-79701988D01*
X181592324Y-79797203D01*
X181592324Y-79797204D01*
X181592323Y-79797204D01*
X181581823Y-79899983D01*
X181581823Y-81100001D01*
X181581824Y-81100018D01*
X181592323Y-81202796D01*
X181592324Y-81202799D01*
X181627424Y-81308722D01*
X181647509Y-81369334D01*
X181739611Y-81518656D01*
X181863667Y-81642712D01*
X182012989Y-81734814D01*
X182179526Y-81789999D01*
X182282314Y-81800500D01*
X183482331Y-81800499D01*
X183585120Y-81789999D01*
X183751657Y-81734814D01*
X183900979Y-81642712D01*
X184025035Y-81518656D01*
X184117137Y-81369334D01*
X184131749Y-81325237D01*
X184171520Y-81267794D01*
X184236036Y-81240971D01*
X184304812Y-81253286D01*
X184349769Y-81291354D01*
X184356414Y-81300500D01*
X184358138Y-81302872D01*
X184381620Y-81368677D01*
X184381823Y-81375761D01*
X184381823Y-82151895D01*
X184362138Y-82218934D01*
X184345504Y-82239576D01*
X183621899Y-82963181D01*
X183560576Y-82996666D01*
X183534218Y-82999500D01*
X180465783Y-82999500D01*
X180398744Y-82979815D01*
X180378102Y-82963181D01*
X177536819Y-80121898D01*
X177503334Y-80060575D01*
X177500500Y-80034217D01*
X177500500Y-76401456D01*
X177462052Y-76208170D01*
X177462051Y-76208169D01*
X177462051Y-76208165D01*
X177462049Y-76208160D01*
X177386635Y-76026092D01*
X177386628Y-76026079D01*
X177277139Y-75862218D01*
X177277136Y-75862214D01*
X177137785Y-75722863D01*
X177137781Y-75722860D01*
X176973920Y-75613371D01*
X176973907Y-75613364D01*
X176791839Y-75537950D01*
X176791829Y-75537947D01*
X176598543Y-75499500D01*
X176598541Y-75499500D01*
X154965782Y-75499500D01*
X154898743Y-75479815D01*
X154878101Y-75463181D01*
X152672482Y-73257562D01*
X152638997Y-73196239D01*
X152643981Y-73126547D01*
X152685853Y-73070614D01*
X152687219Y-73069605D01*
X152782073Y-73000690D01*
X152915690Y-72867073D01*
X153026760Y-72714199D01*
X153112547Y-72545832D01*
X153170940Y-72366118D01*
X153176809Y-72329060D01*
X153200500Y-72179486D01*
X153200500Y-71990513D01*
X158419500Y-71990513D01*
X158419500Y-72179486D01*
X158449059Y-72366118D01*
X158507454Y-72545836D01*
X158527058Y-72584310D01*
X158593240Y-72714199D01*
X158704310Y-72867073D01*
X158837927Y-73000690D01*
X158990801Y-73111760D01*
X159070347Y-73152290D01*
X159159163Y-73197545D01*
X159159165Y-73197545D01*
X159159168Y-73197547D01*
X159224827Y-73218881D01*
X159338881Y-73255940D01*
X159525514Y-73285500D01*
X159525519Y-73285500D01*
X159714486Y-73285500D01*
X159901118Y-73255940D01*
X160080832Y-73197547D01*
X160249199Y-73111760D01*
X160402073Y-73000690D01*
X160535690Y-72867073D01*
X160646760Y-72714199D01*
X160732547Y-72545832D01*
X160790940Y-72366118D01*
X160796809Y-72329060D01*
X160820500Y-72179486D01*
X160820500Y-71990513D01*
X160790940Y-71803881D01*
X160732545Y-71624163D01*
X160646759Y-71455800D01*
X160606581Y-71400500D01*
X160535690Y-71302927D01*
X160402073Y-71169310D01*
X160249199Y-71058240D01*
X160080836Y-70972454D01*
X159901118Y-70914059D01*
X159714486Y-70884500D01*
X159714481Y-70884500D01*
X159525519Y-70884500D01*
X159525514Y-70884500D01*
X159338881Y-70914059D01*
X159159163Y-70972454D01*
X158990800Y-71058240D01*
X158954935Y-71084298D01*
X158837927Y-71169310D01*
X158837925Y-71169312D01*
X158837924Y-71169312D01*
X158704312Y-71302924D01*
X158704312Y-71302925D01*
X158704310Y-71302927D01*
X158698942Y-71310316D01*
X158593240Y-71455800D01*
X158507454Y-71624163D01*
X158449059Y-71803881D01*
X158419500Y-71990513D01*
X153200500Y-71990513D01*
X153170940Y-71803881D01*
X153112545Y-71624163D01*
X153026759Y-71455800D01*
X152986581Y-71400500D01*
X152915690Y-71302927D01*
X152782073Y-71169310D01*
X152629199Y-71058240D01*
X152460836Y-70972454D01*
X152281118Y-70914059D01*
X152094486Y-70884500D01*
X152094481Y-70884500D01*
X151905519Y-70884500D01*
X151905514Y-70884500D01*
X151718881Y-70914059D01*
X151539163Y-70972454D01*
X151370799Y-71058240D01*
X151367254Y-71060817D01*
X151301448Y-71084298D01*
X151294367Y-71084500D01*
X149015633Y-71084500D01*
X148948594Y-71064815D01*
X148942746Y-71060817D01*
X148939200Y-71058240D01*
X148770836Y-70972454D01*
X148591118Y-70914059D01*
X148404486Y-70884500D01*
X148404481Y-70884500D01*
X148215519Y-70884500D01*
X148215514Y-70884500D01*
X148028881Y-70914059D01*
X147849163Y-70972454D01*
X147680800Y-71058240D01*
X147644935Y-71084298D01*
X147527927Y-71169310D01*
X147527925Y-71169312D01*
X147527924Y-71169312D01*
X147394312Y-71302924D01*
X147394312Y-71302925D01*
X147394310Y-71302927D01*
X147388942Y-71310316D01*
X147283240Y-71455800D01*
X147197454Y-71624163D01*
X147139059Y-71803881D01*
X147109500Y-71990513D01*
X147109500Y-72179486D01*
X147139059Y-72366118D01*
X147197454Y-72545836D01*
X147217058Y-72584310D01*
X147283240Y-72714199D01*
X147394310Y-72867073D01*
X147527927Y-73000690D01*
X147680801Y-73111760D01*
X147760347Y-73152290D01*
X147849163Y-73197545D01*
X147849165Y-73197545D01*
X147849168Y-73197547D01*
X147914827Y-73218881D01*
X148028881Y-73255940D01*
X148215514Y-73285500D01*
X148215519Y-73285500D01*
X148404486Y-73285500D01*
X148591118Y-73255940D01*
X148770832Y-73197547D01*
X148939199Y-73111760D01*
X148942746Y-73109183D01*
X149008552Y-73085702D01*
X149015633Y-73085500D01*
X149619218Y-73085500D01*
X149686257Y-73105185D01*
X149706899Y-73121819D01*
X153719735Y-77134655D01*
X153719764Y-77134686D01*
X153862214Y-77277136D01*
X153862218Y-77277139D01*
X154026079Y-77386628D01*
X154026092Y-77386635D01*
X154154833Y-77439961D01*
X154183998Y-77452041D01*
X154208164Y-77462051D01*
X154297877Y-77479896D01*
X154332404Y-77486764D01*
X154401457Y-77500500D01*
X154401459Y-77500500D01*
X154401460Y-77500500D01*
X154598540Y-77500500D01*
X175375500Y-77500500D01*
X175442539Y-77520185D01*
X175488294Y-77572989D01*
X175499500Y-77624500D01*
X175499500Y-80402895D01*
X175479815Y-80469934D01*
X175427011Y-80515689D01*
X175357853Y-80525633D01*
X175294297Y-80496608D01*
X175287819Y-80490576D01*
X175209040Y-80411797D01*
X175175555Y-80350474D01*
X175174248Y-80343513D01*
X175150800Y-80195466D01*
X175150800Y-80195465D01*
X175117585Y-80093240D01*
X175087543Y-80000781D01*
X175087541Y-80000778D01*
X175087541Y-80000776D01*
X175036188Y-79899991D01*
X174994610Y-79818390D01*
X174979217Y-79797203D01*
X174874294Y-79652786D01*
X174729536Y-79508028D01*
X174563936Y-79387715D01*
X174563935Y-79387714D01*
X174563933Y-79387713D01*
X174504219Y-79357287D01*
X174381546Y-79294781D01*
X174186857Y-79231522D01*
X174012318Y-79203878D01*
X173984675Y-79199500D01*
X173779971Y-79199500D01*
X173755652Y-79203351D01*
X173577788Y-79231522D01*
X173383099Y-79294781D01*
X173200709Y-79387715D01*
X173035109Y-79508028D01*
X172890355Y-79652782D01*
X172890354Y-79652784D01*
X172849770Y-79708642D01*
X172794440Y-79751307D01*
X172724826Y-79757285D01*
X172663032Y-79724678D01*
X172631748Y-79674760D01*
X172617137Y-79630666D01*
X172525035Y-79481344D01*
X172400979Y-79357288D01*
X172251657Y-79265186D01*
X172085120Y-79210001D01*
X172085118Y-79210000D01*
X171982333Y-79199500D01*
X170782321Y-79199500D01*
X170782304Y-79199501D01*
X170679526Y-79210000D01*
X170679523Y-79210001D01*
X170512991Y-79265185D01*
X170512986Y-79265187D01*
X170363668Y-79357287D01*
X170257773Y-79463182D01*
X170196450Y-79496666D01*
X170170092Y-79499500D01*
X169401456Y-79499500D01*
X169208171Y-79537946D01*
X169208167Y-79537948D01*
X169208165Y-79537948D01*
X169208164Y-79537949D01*
X169132745Y-79569188D01*
X169132743Y-79569189D01*
X169026089Y-79613366D01*
X169026079Y-79613371D01*
X168893458Y-79701987D01*
X168893457Y-79701988D01*
X168862215Y-79722862D01*
X168862214Y-79722863D01*
X167732590Y-80852489D01*
X167362220Y-81222859D01*
X167362218Y-81222861D01*
X167285079Y-81300000D01*
X167222861Y-81362218D01*
X167113371Y-81526080D01*
X167113364Y-81526093D01*
X167090692Y-81580831D01*
X167090692Y-81580832D01*
X167037949Y-81708164D01*
X167032648Y-81734814D01*
X167032648Y-81734815D01*
X166999500Y-81901456D01*
X166999500Y-81901459D01*
X166999500Y-88098541D01*
X167007305Y-88137779D01*
X167007306Y-88137781D01*
X167007306Y-88137784D01*
X167037947Y-88291829D01*
X167037951Y-88291842D01*
X167060038Y-88345164D01*
X167113366Y-88473911D01*
X167113371Y-88473920D01*
X167222859Y-88637780D01*
X167222860Y-88637781D01*
X167222861Y-88637782D01*
X167362218Y-88777139D01*
X167362219Y-88777139D01*
X167369286Y-88784206D01*
X167369285Y-88784206D01*
X167369289Y-88784209D01*
X170362215Y-91777137D01*
X170362219Y-91777140D01*
X170526079Y-91886628D01*
X170526088Y-91886633D01*
X170596238Y-91915690D01*
X170708165Y-91962052D01*
X170869389Y-91994121D01*
X170901457Y-92000499D01*
X170901458Y-92000500D01*
X170901459Y-92000500D01*
X170901460Y-92000500D01*
X171098541Y-92000500D01*
X171334367Y-92000500D01*
X171401406Y-92020185D01*
X171407254Y-92024183D01*
X171410799Y-92026759D01*
X171579163Y-92112545D01*
X171579165Y-92112545D01*
X171579168Y-92112547D01*
X171675497Y-92143846D01*
X171758881Y-92170940D01*
X171945514Y-92200500D01*
X171945519Y-92200500D01*
X172134486Y-92200500D01*
X172321118Y-92170940D01*
X172500832Y-92112547D01*
X172669199Y-92026760D01*
X172822073Y-91915690D01*
X172955690Y-91782073D01*
X173066760Y-91629199D01*
X173152547Y-91460832D01*
X173210940Y-91281118D01*
X173240500Y-91094486D01*
X173240500Y-90905513D01*
X173210940Y-90718881D01*
X173152545Y-90539163D01*
X173066759Y-90370800D01*
X172955690Y-90217927D01*
X172822073Y-90084310D01*
X172669199Y-89973240D01*
X172649457Y-89963181D01*
X172500836Y-89887454D01*
X172321118Y-89829059D01*
X172134486Y-89799500D01*
X172134481Y-89799500D01*
X171945519Y-89799500D01*
X171945514Y-89799500D01*
X171758881Y-89829059D01*
X171579160Y-89887455D01*
X171476073Y-89939981D01*
X171407404Y-89952877D01*
X171342664Y-89926600D01*
X171332098Y-89917177D01*
X169036819Y-87621898D01*
X169003334Y-87560575D01*
X169000500Y-87534217D01*
X169000500Y-82465782D01*
X169020185Y-82398743D01*
X169036819Y-82378101D01*
X169878102Y-81536819D01*
X169939425Y-81503334D01*
X169965783Y-81500500D01*
X170170092Y-81500500D01*
X170237131Y-81520185D01*
X170257773Y-81536818D01*
X170363667Y-81642712D01*
X170512989Y-81734814D01*
X170679526Y-81789999D01*
X170782314Y-81800500D01*
X171982331Y-81800499D01*
X172085120Y-81789999D01*
X172251657Y-81734814D01*
X172400979Y-81642712D01*
X172525035Y-81518656D01*
X172617137Y-81369334D01*
X172631749Y-81325237D01*
X172671518Y-81267796D01*
X172736034Y-81240972D01*
X172804810Y-81253286D01*
X172849771Y-81291358D01*
X172890355Y-81347217D01*
X173035109Y-81491971D01*
X173157424Y-81580836D01*
X173200713Y-81612287D01*
X173316930Y-81671503D01*
X173383099Y-81705218D01*
X173383101Y-81705218D01*
X173383104Y-81705220D01*
X173474179Y-81734812D01*
X173577788Y-81768477D01*
X173655289Y-81780751D01*
X173725836Y-81791925D01*
X173788971Y-81821854D01*
X173794120Y-81826717D01*
X178744538Y-86777137D01*
X178744542Y-86777140D01*
X178908402Y-86886628D01*
X178908408Y-86886631D01*
X178908409Y-86886632D01*
X179090488Y-86962052D01*
X179222083Y-86988228D01*
X179283778Y-87000500D01*
X179283781Y-87000501D01*
X179283783Y-87000501D01*
X179486978Y-87000501D01*
X179486998Y-87000500D01*
X187785217Y-87000500D01*
X187852256Y-87020185D01*
X187898011Y-87072989D01*
X187907955Y-87142147D01*
X187878930Y-87205703D01*
X187872898Y-87212181D01*
X185121899Y-89963181D01*
X185060576Y-89996666D01*
X185034218Y-89999500D01*
X180365633Y-89999500D01*
X180298594Y-89979815D01*
X180292746Y-89975817D01*
X180289200Y-89973240D01*
X180120836Y-89887454D01*
X179941118Y-89829059D01*
X179754486Y-89799500D01*
X179754481Y-89799500D01*
X179565519Y-89799500D01*
X179565514Y-89799500D01*
X179378881Y-89829059D01*
X179199163Y-89887454D01*
X179030800Y-89973240D01*
X178994657Y-89999500D01*
X178877927Y-90084310D01*
X178877925Y-90084312D01*
X178877924Y-90084312D01*
X178744312Y-90217924D01*
X178744312Y-90217925D01*
X178744310Y-90217927D01*
X178696610Y-90283579D01*
X178633240Y-90370800D01*
X178547454Y-90539163D01*
X178489059Y-90718881D01*
X178459500Y-90905513D01*
X178459500Y-91094486D01*
X178489059Y-91281118D01*
X178547454Y-91460836D01*
X178633239Y-91629198D01*
X178633240Y-91629199D01*
X178635814Y-91632742D01*
X178659297Y-91698546D01*
X178659500Y-91705632D01*
X178659500Y-92874218D01*
X178639815Y-92941257D01*
X178623181Y-92961899D01*
X178621899Y-92963181D01*
X178560576Y-92996666D01*
X178534218Y-92999500D01*
X157585783Y-92999500D01*
X157518744Y-92979815D01*
X157498102Y-92963181D01*
X150146818Y-85611897D01*
X150113333Y-85550574D01*
X150110499Y-85524216D01*
X150110499Y-85089998D01*
X150110498Y-85089981D01*
X150099999Y-84987203D01*
X150099998Y-84987200D01*
X150085199Y-84942539D01*
X150044814Y-84820666D01*
X149952712Y-84671344D01*
X149828656Y-84547288D01*
X149679334Y-84455186D01*
X149512797Y-84400001D01*
X149512795Y-84400000D01*
X149410016Y-84389500D01*
X149410009Y-84389500D01*
X149284781Y-84389500D01*
X149217742Y-84369815D01*
X149171987Y-84317011D01*
X149162043Y-84247853D01*
X149191068Y-84184297D01*
X149197100Y-84177819D01*
X150338101Y-83036819D01*
X150399424Y-83003334D01*
X150425782Y-83000500D01*
X160098542Y-83000500D01*
X160117870Y-82996655D01*
X160195188Y-82981275D01*
X160291836Y-82962051D01*
X160345165Y-82939961D01*
X160473914Y-82886632D01*
X160637782Y-82777139D01*
X160777139Y-82637782D01*
X160777139Y-82637780D01*
X160787347Y-82627573D01*
X160787349Y-82627570D01*
X161588203Y-81826715D01*
X161649524Y-81793232D01*
X161656473Y-81791927D01*
X161804534Y-81768477D01*
X161999219Y-81705220D01*
X162181610Y-81612287D01*
X162300247Y-81526093D01*
X162347213Y-81491971D01*
X162347215Y-81491968D01*
X162347219Y-81491966D01*
X162491966Y-81347219D01*
X162491968Y-81347215D01*
X162491971Y-81347213D01*
X162573632Y-81234814D01*
X162612287Y-81181610D01*
X162705220Y-80999219D01*
X162768477Y-80804534D01*
X162800500Y-80602352D01*
X162800500Y-80397648D01*
X162791041Y-80337925D01*
X162768477Y-80195465D01*
X162735262Y-80093240D01*
X162705220Y-80000781D01*
X162705218Y-80000778D01*
X162705218Y-80000776D01*
X162653865Y-79899991D01*
X162612287Y-79818390D01*
X162596894Y-79797203D01*
X162491971Y-79652786D01*
X162347213Y-79508028D01*
X162181613Y-79387715D01*
X162181612Y-79387714D01*
X162181610Y-79387713D01*
X162121896Y-79357287D01*
X161999223Y-79294781D01*
X161804534Y-79231522D01*
X161629995Y-79203878D01*
X161602352Y-79199500D01*
X161397648Y-79199500D01*
X161373329Y-79203351D01*
X161195465Y-79231522D01*
X161000776Y-79294781D01*
X160818386Y-79387715D01*
X160652786Y-79508028D01*
X160508032Y-79652782D01*
X160508031Y-79652784D01*
X160467447Y-79708642D01*
X160412117Y-79751307D01*
X160342503Y-79757285D01*
X160280709Y-79724678D01*
X160249425Y-79674760D01*
X160234814Y-79630666D01*
X160142712Y-79481344D01*
X160018656Y-79357288D01*
X159869334Y-79265186D01*
X159702797Y-79210001D01*
X159702795Y-79210000D01*
X159600010Y-79199500D01*
X158399998Y-79199500D01*
X158399981Y-79199501D01*
X158297203Y-79210000D01*
X158297200Y-79210001D01*
X158130668Y-79265185D01*
X158130663Y-79265187D01*
X157981342Y-79357289D01*
X157857289Y-79481342D01*
X157765187Y-79630663D01*
X157765185Y-79630668D01*
X157741552Y-79701988D01*
X157710001Y-79797203D01*
X157710001Y-79797204D01*
X157710000Y-79797204D01*
X157699500Y-79899983D01*
X157699500Y-79899991D01*
X157699500Y-80411797D01*
X157699501Y-80875500D01*
X157679817Y-80942539D01*
X157627013Y-80988294D01*
X157575501Y-80999500D01*
X149861457Y-80999500D01*
X149806440Y-81010444D01*
X149765156Y-81018656D01*
X149668167Y-81037947D01*
X149668159Y-81037950D01*
X149614834Y-81060037D01*
X149614834Y-81060038D01*
X149569315Y-81078892D01*
X149486089Y-81113366D01*
X149486079Y-81113371D01*
X149322220Y-81222859D01*
X149322219Y-81222859D01*
X149277285Y-81267794D01*
X149182861Y-81362218D01*
X149182858Y-81362221D01*
X146181797Y-84363281D01*
X146120474Y-84396766D01*
X146113515Y-84398073D01*
X145965468Y-84421522D01*
X145770778Y-84484781D01*
X145588386Y-84577715D01*
X145422786Y-84698028D01*
X145278028Y-84842786D01*
X145157715Y-85008386D01*
X145110485Y-85101080D01*
X145062510Y-85151876D01*
X144994689Y-85168671D01*
X144928554Y-85146134D01*
X144889515Y-85101080D01*
X144842420Y-85008652D01*
X144842287Y-85008390D01*
X144810092Y-84964077D01*
X144721971Y-84842786D01*
X144577213Y-84698028D01*
X144411613Y-84577715D01*
X144411612Y-84577714D01*
X144411610Y-84577713D01*
X144351898Y-84547288D01*
X144229223Y-84484781D01*
X144034534Y-84421522D01*
X143846690Y-84391771D01*
X143832352Y-84389500D01*
X143627648Y-84389500D01*
X143613310Y-84391771D01*
X143425465Y-84421522D01*
X143230776Y-84484781D01*
X143048386Y-84577715D01*
X142882786Y-84698028D01*
X142738028Y-84842786D01*
X142617713Y-85008388D01*
X142570203Y-85101630D01*
X142522228Y-85152426D01*
X142454407Y-85169220D01*
X142388272Y-85146682D01*
X142349234Y-85101628D01*
X142301861Y-85008652D01*
X142269474Y-84964077D01*
X142269474Y-84964076D01*
X141590000Y-85643551D01*
X141590000Y-85637339D01*
X141562741Y-85535606D01*
X141510080Y-85444394D01*
X141435606Y-85369920D01*
X141344394Y-85317259D01*
X141242661Y-85290000D01*
X141236446Y-85290000D01*
X141915922Y-84610524D01*
X141915921Y-84610523D01*
X141871359Y-84578147D01*
X141871350Y-84578141D01*
X141689031Y-84485244D01*
X141494417Y-84422009D01*
X141292317Y-84390000D01*
X141087683Y-84390000D01*
X140885582Y-84422009D01*
X140690968Y-84485244D01*
X140508644Y-84578143D01*
X140464077Y-84610523D01*
X140464077Y-84610524D01*
X141143554Y-85290000D01*
X141137339Y-85290000D01*
X141035606Y-85317259D01*
X140944394Y-85369920D01*
X140869920Y-85444394D01*
X140817259Y-85535606D01*
X140790000Y-85637339D01*
X140790000Y-85643553D01*
X140110524Y-84964077D01*
X140110523Y-84964077D01*
X140078143Y-85008644D01*
X139985244Y-85190968D01*
X139922009Y-85385582D01*
X139890000Y-85587682D01*
X139890000Y-85792317D01*
X139922009Y-85994417D01*
X139985244Y-86189031D01*
X140051572Y-86319205D01*
X140064468Y-86387874D01*
X140038192Y-86452615D01*
X139981085Y-86492872D01*
X139941087Y-86499500D01*
X137015633Y-86499500D01*
X136948594Y-86479815D01*
X136942746Y-86475817D01*
X136939200Y-86473240D01*
X136770836Y-86387454D01*
X136591118Y-86329059D01*
X136404486Y-86299500D01*
X136404481Y-86299500D01*
X136215519Y-86299500D01*
X136215514Y-86299500D01*
X136028881Y-86329059D01*
X135849163Y-86387454D01*
X135680800Y-86473240D01*
X135644935Y-86499298D01*
X135527927Y-86584310D01*
X135527925Y-86584312D01*
X135527924Y-86584312D01*
X135394312Y-86717924D01*
X135394312Y-86717925D01*
X135394310Y-86717927D01*
X135351291Y-86777137D01*
X135283240Y-86870800D01*
X135197454Y-87039163D01*
X135139059Y-87218881D01*
X135109500Y-87405513D01*
X135109500Y-87594486D01*
X135139059Y-87781118D01*
X135197454Y-87960836D01*
X135267619Y-88098541D01*
X135283240Y-88129199D01*
X135394310Y-88282073D01*
X135527927Y-88415690D01*
X135680801Y-88526760D01*
X135760347Y-88567290D01*
X135849163Y-88612545D01*
X135849165Y-88612545D01*
X135849168Y-88612547D01*
X135926827Y-88637780D01*
X136028881Y-88670940D01*
X136215514Y-88700500D01*
X136215519Y-88700500D01*
X136404486Y-88700500D01*
X136591118Y-88670940D01*
X136592623Y-88670451D01*
X136770832Y-88612547D01*
X136939199Y-88526760D01*
X136942746Y-88524183D01*
X137008552Y-88500702D01*
X137015633Y-88500500D01*
X142018542Y-88500500D01*
X142037870Y-88496655D01*
X142115188Y-88481275D01*
X142211836Y-88462051D01*
X142265165Y-88439961D01*
X142393914Y-88386632D01*
X142557782Y-88277139D01*
X142697139Y-88137782D01*
X142697139Y-88137780D01*
X142707347Y-88127573D01*
X142707349Y-88127570D01*
X143818203Y-87016715D01*
X143879524Y-86983232D01*
X143886473Y-86981927D01*
X144034534Y-86958477D01*
X144229219Y-86895220D01*
X144411610Y-86802287D01*
X144527723Y-86717927D01*
X144577213Y-86681971D01*
X144577215Y-86681968D01*
X144577219Y-86681966D01*
X144721966Y-86537219D01*
X144721968Y-86537215D01*
X144721971Y-86537213D01*
X144842284Y-86371614D01*
X144842283Y-86371614D01*
X144842287Y-86371610D01*
X144889516Y-86278917D01*
X144937489Y-86228123D01*
X145005310Y-86211328D01*
X145071445Y-86233865D01*
X145110483Y-86278917D01*
X145154348Y-86365006D01*
X145157715Y-86371614D01*
X145278028Y-86537213D01*
X145422786Y-86681971D01*
X145553778Y-86777140D01*
X145588390Y-86802287D01*
X145673532Y-86845669D01*
X145770776Y-86895218D01*
X145770778Y-86895218D01*
X145770781Y-86895220D01*
X145861856Y-86924812D01*
X145965465Y-86958477D01*
X146066557Y-86974488D01*
X146167648Y-86990500D01*
X146167649Y-86990500D01*
X146372351Y-86990500D01*
X146372352Y-86990500D01*
X146574534Y-86958477D01*
X146769219Y-86895220D01*
X146951610Y-86802287D01*
X147067723Y-86717927D01*
X147117213Y-86681971D01*
X147117215Y-86681968D01*
X147117219Y-86681966D01*
X147261966Y-86537219D01*
X147330021Y-86443547D01*
X147385349Y-86400882D01*
X147454963Y-86394902D01*
X147516758Y-86427507D01*
X147548044Y-86477427D01*
X147575186Y-86559334D01*
X147667288Y-86708656D01*
X147791344Y-86832712D01*
X147940666Y-86924814D01*
X148107203Y-86979999D01*
X148209991Y-86990500D01*
X148644217Y-86990499D01*
X148711256Y-87010183D01*
X148731898Y-87026818D01*
X156482215Y-94777137D01*
X156482219Y-94777140D01*
X156646079Y-94886628D01*
X156646085Y-94886631D01*
X156646086Y-94886632D01*
X156828165Y-94962052D01*
X156989389Y-94994121D01*
X157021457Y-95000499D01*
X157021458Y-95000500D01*
X157021459Y-95000500D01*
X179098542Y-95000500D01*
X179130614Y-94994120D01*
X179195188Y-94981275D01*
X179291836Y-94962051D01*
X179345165Y-94939961D01*
X179473914Y-94886632D01*
X179637782Y-94777139D01*
X179777139Y-94637782D01*
X179777140Y-94637779D01*
X179784206Y-94630714D01*
X179784209Y-94630710D01*
X180297778Y-94117141D01*
X180297782Y-94117139D01*
X180437139Y-93977782D01*
X180546632Y-93813914D01*
X180622051Y-93631835D01*
X180625493Y-93614534D01*
X180660500Y-93438540D01*
X180660500Y-93241460D01*
X180660500Y-92124500D01*
X180680185Y-92057461D01*
X180732989Y-92011706D01*
X180784500Y-92000500D01*
X185598542Y-92000500D01*
X185630614Y-91994120D01*
X185695188Y-91981275D01*
X185791836Y-91962051D01*
X185845165Y-91939961D01*
X185973914Y-91886632D01*
X186137782Y-91777139D01*
X186277139Y-91637782D01*
X186277139Y-91637780D01*
X186287347Y-91627573D01*
X186287348Y-91627570D01*
X192277139Y-85637782D01*
X192353021Y-85524216D01*
X192386631Y-85473916D01*
X192386636Y-85473906D01*
X192462049Y-85291839D01*
X192462051Y-85291835D01*
X192486550Y-85168671D01*
X192500500Y-85098543D01*
X192500500Y-81825632D01*
X192520185Y-81758593D01*
X192524177Y-81752753D01*
X192526760Y-81749199D01*
X192612547Y-81580832D01*
X192670940Y-81401118D01*
X192675974Y-81369334D01*
X192700500Y-81214486D01*
X192700500Y-81025513D01*
X192670940Y-80838881D01*
X192642098Y-80750116D01*
X192612547Y-80659168D01*
X192612545Y-80659165D01*
X192612545Y-80659163D01*
X192567290Y-80570347D01*
X192526760Y-80490801D01*
X192415690Y-80337927D01*
X192282073Y-80204310D01*
X192129199Y-80093240D01*
X191960836Y-80007454D01*
X191781118Y-79949059D01*
X191594486Y-79919500D01*
X191594481Y-79919500D01*
X191405519Y-79919500D01*
X191405514Y-79919500D01*
X191218881Y-79949059D01*
X191039163Y-80007454D01*
X190870800Y-80093240D01*
X190786630Y-80154394D01*
X190717927Y-80204310D01*
X190717925Y-80204312D01*
X190717924Y-80204312D01*
X190584312Y-80337924D01*
X190584312Y-80337925D01*
X190584310Y-80337927D01*
X190580252Y-80343513D01*
X190473240Y-80490800D01*
X190387454Y-80659163D01*
X190329059Y-80838881D01*
X190299500Y-81025513D01*
X190299500Y-81214486D01*
X190329059Y-81401118D01*
X190387454Y-81580836D01*
X190473239Y-81749198D01*
X190473240Y-81749199D01*
X190475814Y-81752742D01*
X190499297Y-81818546D01*
X190499500Y-81825632D01*
X190499500Y-84534217D01*
X190479815Y-84601256D01*
X190463181Y-84621898D01*
X189212181Y-85872898D01*
X189150858Y-85906383D01*
X189081166Y-85901399D01*
X189025233Y-85859527D01*
X189000816Y-85794063D01*
X189000500Y-85785217D01*
X189000500Y-73405513D01*
X190299500Y-73405513D01*
X190299500Y-73594486D01*
X190329059Y-73781118D01*
X190387454Y-73960836D01*
X190473240Y-74129199D01*
X190584310Y-74282073D01*
X190717927Y-74415690D01*
X190870801Y-74526760D01*
X190950347Y-74567290D01*
X191039163Y-74612545D01*
X191039165Y-74612545D01*
X191039168Y-74612547D01*
X191135497Y-74643846D01*
X191218881Y-74670940D01*
X191405514Y-74700500D01*
X191405519Y-74700500D01*
X191594486Y-74700500D01*
X191781118Y-74670940D01*
X191960832Y-74612547D01*
X192129199Y-74526760D01*
X192282073Y-74415690D01*
X192415690Y-74282073D01*
X192526760Y-74129199D01*
X192612547Y-73960832D01*
X192670940Y-73781118D01*
X192700500Y-73594486D01*
X192700500Y-73405513D01*
X192670940Y-73218881D01*
X192612545Y-73039163D01*
X192526759Y-72870800D01*
X192524051Y-72867073D01*
X192415690Y-72717927D01*
X192282073Y-72584310D01*
X192129199Y-72473240D01*
X191960836Y-72387454D01*
X191781118Y-72329059D01*
X191594486Y-72299500D01*
X191594481Y-72299500D01*
X191405519Y-72299500D01*
X191405514Y-72299500D01*
X191218881Y-72329059D01*
X191039163Y-72387454D01*
X190870800Y-72473240D01*
X190783579Y-72536610D01*
X190717927Y-72584310D01*
X190717925Y-72584312D01*
X190717924Y-72584312D01*
X190584312Y-72717924D01*
X190584312Y-72717925D01*
X190584310Y-72717927D01*
X190536610Y-72783579D01*
X190473240Y-72870800D01*
X190387454Y-73039163D01*
X190329059Y-73218881D01*
X190299500Y-73405513D01*
X189000500Y-73405513D01*
X189000500Y-58104675D01*
X189000501Y-58104654D01*
X189000501Y-57901457D01*
X189000500Y-57901455D01*
X188969225Y-57744225D01*
X188962052Y-57708165D01*
X188903717Y-57567334D01*
X188886633Y-57526088D01*
X188886628Y-57526079D01*
X188777140Y-57362219D01*
X188777137Y-57362215D01*
X178974052Y-47559132D01*
X178890422Y-47475502D01*
X180829500Y-47475502D01*
X180829500Y-47694497D01*
X180852188Y-47866823D01*
X180858083Y-47911598D01*
X180914759Y-48123117D01*
X180998560Y-48325428D01*
X180998562Y-48325433D01*
X180998565Y-48325438D01*
X181108049Y-48515070D01*
X181241355Y-48688798D01*
X181241361Y-48688805D01*
X181396194Y-48843638D01*
X181396201Y-48843644D01*
X181569929Y-48976950D01*
X181759561Y-49086434D01*
X181759563Y-49086434D01*
X181759572Y-49086440D01*
X181961883Y-49170241D01*
X182173402Y-49226917D01*
X182390510Y-49255500D01*
X182390517Y-49255500D01*
X182609483Y-49255500D01*
X182609490Y-49255500D01*
X182826598Y-49226917D01*
X183038117Y-49170241D01*
X183240428Y-49086440D01*
X183430071Y-48976950D01*
X183603800Y-48843643D01*
X183758643Y-48688800D01*
X183891950Y-48515071D01*
X184001440Y-48325428D01*
X184085241Y-48123117D01*
X184141917Y-47911598D01*
X184170500Y-47694490D01*
X184170500Y-47475510D01*
X184170499Y-47475502D01*
X185829500Y-47475502D01*
X185829500Y-47694497D01*
X185852188Y-47866823D01*
X185858083Y-47911598D01*
X185914759Y-48123117D01*
X185998560Y-48325428D01*
X185998562Y-48325433D01*
X185998565Y-48325438D01*
X186108049Y-48515070D01*
X186241355Y-48688798D01*
X186241361Y-48688805D01*
X186396198Y-48843642D01*
X186396201Y-48843644D01*
X186450985Y-48885681D01*
X186492189Y-48942107D01*
X186499500Y-48984057D01*
X186499500Y-50069249D01*
X186499500Y-50069251D01*
X186499499Y-50069251D01*
X186537947Y-50262537D01*
X186537950Y-50262547D01*
X186613364Y-50444615D01*
X186613371Y-50444628D01*
X186722859Y-50608488D01*
X186722860Y-50608489D01*
X186722861Y-50608490D01*
X186862218Y-50747847D01*
X186862219Y-50747847D01*
X186869286Y-50754914D01*
X186869285Y-50754914D01*
X186869289Y-50754917D01*
X196727827Y-60613455D01*
X196761312Y-60674778D01*
X196764146Y-60701136D01*
X196764146Y-78787769D01*
X196744461Y-78854808D01*
X196727828Y-78875450D01*
X196621933Y-78981345D01*
X196529833Y-79130663D01*
X196529832Y-79130666D01*
X196474647Y-79297203D01*
X196474647Y-79297204D01*
X196474646Y-79297204D01*
X196464146Y-79399983D01*
X196464146Y-80600001D01*
X196464147Y-80600018D01*
X196474646Y-80702796D01*
X196474647Y-80702799D01*
X196490327Y-80750116D01*
X196529832Y-80869334D01*
X196621934Y-81018656D01*
X196745990Y-81142712D01*
X196895312Y-81234814D01*
X197061849Y-81289999D01*
X197164637Y-81300500D01*
X198364654Y-81300499D01*
X198467443Y-81289999D01*
X198633980Y-81234814D01*
X198783302Y-81142712D01*
X198907358Y-81018656D01*
X198999460Y-80869334D01*
X199022748Y-80799054D01*
X199026756Y-80791050D01*
X199044706Y-80771772D01*
X199059701Y-80750116D01*
X199068141Y-80746606D01*
X199074371Y-80739917D01*
X199099895Y-80733404D01*
X199124217Y-80723292D01*
X199140480Y-80723048D01*
X199142071Y-80722643D01*
X199143169Y-80723008D01*
X199147365Y-80722946D01*
X199185171Y-80725921D01*
X199864646Y-80046446D01*
X199864646Y-80052661D01*
X199891905Y-80154394D01*
X199944566Y-80245606D01*
X200019040Y-80320080D01*
X200110252Y-80372741D01*
X200211985Y-80400000D01*
X200218199Y-80400000D01*
X199538722Y-81079474D01*
X199583296Y-81111859D01*
X199765614Y-81204755D01*
X199960228Y-81267990D01*
X200162329Y-81300000D01*
X200366963Y-81300000D01*
X200569063Y-81267990D01*
X200763677Y-81204755D01*
X200945995Y-81111859D01*
X200990567Y-81079474D01*
X200311093Y-80400000D01*
X200317307Y-80400000D01*
X200419040Y-80372741D01*
X200510252Y-80320080D01*
X200584726Y-80245606D01*
X200637387Y-80154394D01*
X200664646Y-80052661D01*
X200664646Y-80046447D01*
X201344120Y-80725921D01*
X201376505Y-80681349D01*
X201469401Y-80499031D01*
X201532636Y-80304417D01*
X201564646Y-80102317D01*
X201564646Y-79897682D01*
X201532636Y-79695582D01*
X201469401Y-79500968D01*
X201376505Y-79318650D01*
X201344120Y-79274077D01*
X201344120Y-79274076D01*
X200664646Y-79953551D01*
X200664646Y-79947339D01*
X200637387Y-79845606D01*
X200584726Y-79754394D01*
X200510252Y-79679920D01*
X200419040Y-79627259D01*
X200317307Y-79600000D01*
X200311092Y-79600000D01*
X200990568Y-78920524D01*
X200990567Y-78920523D01*
X200946005Y-78888147D01*
X200945996Y-78888141D01*
X200763677Y-78795244D01*
X200569063Y-78732009D01*
X200366963Y-78700000D01*
X200162329Y-78700000D01*
X199960228Y-78732009D01*
X199765614Y-78795244D01*
X199583290Y-78888143D01*
X199538723Y-78920523D01*
X199538723Y-78920524D01*
X200218200Y-79600000D01*
X200211985Y-79600000D01*
X200110252Y-79627259D01*
X200019040Y-79679920D01*
X199944566Y-79754394D01*
X199891905Y-79845606D01*
X199864646Y-79947339D01*
X199864646Y-79953553D01*
X199185170Y-79274077D01*
X199147365Y-79277053D01*
X199078987Y-79262689D01*
X199029230Y-79213638D01*
X199026756Y-79208949D01*
X199022747Y-79200942D01*
X198999460Y-79130666D01*
X198907358Y-78981344D01*
X198798273Y-78872259D01*
X198795318Y-78868839D01*
X198782643Y-78840982D01*
X198767980Y-78814127D01*
X198767223Y-78807090D01*
X198766383Y-78805243D01*
X198766751Y-78802703D01*
X198765146Y-78787769D01*
X198765146Y-60701136D01*
X198784831Y-60634097D01*
X198801465Y-60613455D01*
X200439479Y-58975441D01*
X202499500Y-58975441D01*
X202499500Y-59224558D01*
X202499501Y-59224575D01*
X202532017Y-59471561D01*
X202596498Y-59712207D01*
X202691830Y-59942361D01*
X202691837Y-59942376D01*
X202816400Y-60158126D01*
X202968060Y-60355774D01*
X202968066Y-60355781D01*
X203144218Y-60531933D01*
X203144225Y-60531939D01*
X203341873Y-60683599D01*
X203557623Y-60808162D01*
X203557638Y-60808169D01*
X203656825Y-60849253D01*
X203787793Y-60903502D01*
X204028435Y-60967982D01*
X204275435Y-61000500D01*
X204275442Y-61000500D01*
X204524558Y-61000500D01*
X204524565Y-61000500D01*
X204771565Y-60967982D01*
X205012207Y-60903502D01*
X205242373Y-60808164D01*
X205458127Y-60683599D01*
X205655776Y-60531938D01*
X205831938Y-60355776D01*
X205983599Y-60158127D01*
X206108164Y-59942373D01*
X206203502Y-59712207D01*
X206267982Y-59471565D01*
X206300500Y-59224565D01*
X206300500Y-58975435D01*
X206267982Y-58728435D01*
X206203502Y-58487793D01*
X206108164Y-58257627D01*
X206019845Y-58104654D01*
X205983599Y-58041873D01*
X205831939Y-57844225D01*
X205831933Y-57844218D01*
X205655781Y-57668066D01*
X205655774Y-57668060D01*
X205458126Y-57516400D01*
X205242376Y-57391837D01*
X205242361Y-57391830D01*
X205012207Y-57296498D01*
X204771561Y-57232017D01*
X204524575Y-57199501D01*
X204524570Y-57199500D01*
X204524565Y-57199500D01*
X204275435Y-57199500D01*
X204275429Y-57199500D01*
X204275424Y-57199501D01*
X204028438Y-57232017D01*
X203787792Y-57296498D01*
X203557638Y-57391830D01*
X203557623Y-57391837D01*
X203341873Y-57516400D01*
X203144225Y-57668060D01*
X203144218Y-57668066D01*
X202968066Y-57844218D01*
X202968060Y-57844225D01*
X202816400Y-58041873D01*
X202691837Y-58257623D01*
X202691830Y-58257638D01*
X202596498Y-58487792D01*
X202532017Y-58728438D01*
X202499501Y-58975424D01*
X202499500Y-58975441D01*
X200439479Y-58975441D01*
X200531225Y-58883695D01*
X202218422Y-57196498D01*
X203913594Y-55501325D01*
X203974915Y-55467842D01*
X204025467Y-55467391D01*
X204028417Y-55467977D01*
X204028435Y-55467982D01*
X204275435Y-55500500D01*
X204275442Y-55500500D01*
X204524558Y-55500500D01*
X204524565Y-55500500D01*
X204771565Y-55467982D01*
X205012207Y-55403502D01*
X205242373Y-55308164D01*
X205458127Y-55183599D01*
X205655776Y-55031938D01*
X205831938Y-54855776D01*
X205983599Y-54658127D01*
X206108164Y-54442373D01*
X206203502Y-54212207D01*
X206267982Y-53971565D01*
X206300500Y-53724565D01*
X206300500Y-53475435D01*
X206267982Y-53228435D01*
X206203502Y-52987793D01*
X206128912Y-52807716D01*
X206108169Y-52757638D01*
X206108162Y-52757623D01*
X205983599Y-52541873D01*
X205831939Y-52344225D01*
X205831933Y-52344218D01*
X205655781Y-52168066D01*
X205655774Y-52168060D01*
X205458126Y-52016400D01*
X205242376Y-51891837D01*
X205242361Y-51891830D01*
X205012207Y-51796498D01*
X204771561Y-51732017D01*
X204524575Y-51699501D01*
X204524570Y-51699500D01*
X204524565Y-51699500D01*
X204392030Y-51699500D01*
X204324991Y-51679815D01*
X204279236Y-51627011D01*
X204269091Y-51559315D01*
X204300000Y-51324533D01*
X204300000Y-51075466D01*
X204267491Y-50828536D01*
X204203026Y-50587950D01*
X204107716Y-50357851D01*
X204107711Y-50357840D01*
X203983186Y-50142158D01*
X203983180Y-50142150D01*
X203908598Y-50044953D01*
X203908597Y-50044953D01*
X203262573Y-50690978D01*
X203176751Y-50562537D01*
X203037463Y-50423249D01*
X202909019Y-50337425D01*
X203555045Y-49691400D01*
X203457849Y-49616819D01*
X203457841Y-49616813D01*
X203242159Y-49492288D01*
X203242148Y-49492283D01*
X203012049Y-49396973D01*
X202771463Y-49332508D01*
X202524534Y-49300000D01*
X202275466Y-49300000D01*
X202028536Y-49332508D01*
X201787950Y-49396973D01*
X201557851Y-49492283D01*
X201557847Y-49492285D01*
X201342143Y-49616823D01*
X201244953Y-49691399D01*
X201244953Y-49691400D01*
X201890979Y-50337426D01*
X201762537Y-50423249D01*
X201623249Y-50562537D01*
X201537426Y-50690979D01*
X200891400Y-50044953D01*
X200891399Y-50044953D01*
X200816823Y-50142143D01*
X200692285Y-50357847D01*
X200692283Y-50357851D01*
X200596973Y-50587950D01*
X200532508Y-50828536D01*
X200500000Y-51075466D01*
X200500000Y-51324533D01*
X200532508Y-51571463D01*
X200596973Y-51812049D01*
X200692283Y-52042148D01*
X200692288Y-52042159D01*
X200816813Y-52257841D01*
X200816819Y-52257849D01*
X200891400Y-52355045D01*
X201537425Y-51709019D01*
X201623249Y-51837463D01*
X201762537Y-51976751D01*
X201890978Y-52062573D01*
X201244953Y-52708597D01*
X201244953Y-52708598D01*
X201342150Y-52783180D01*
X201342158Y-52783186D01*
X201557840Y-52907711D01*
X201557851Y-52907716D01*
X201787950Y-53003026D01*
X202028536Y-53067491D01*
X202275466Y-53100000D01*
X202407532Y-53100000D01*
X202474571Y-53119685D01*
X202520326Y-53172489D01*
X202530471Y-53240185D01*
X202499501Y-53475424D01*
X202499500Y-53475441D01*
X202499500Y-53724558D01*
X202499501Y-53724575D01*
X202532018Y-53971567D01*
X202532609Y-53974537D01*
X202532528Y-53975439D01*
X202532548Y-53975590D01*
X202532514Y-53975594D01*
X202526379Y-54044128D01*
X202498672Y-54086405D01*
X197852326Y-58732751D01*
X197791003Y-58766236D01*
X197721311Y-58761252D01*
X197676964Y-58732751D01*
X188536819Y-49592606D01*
X188503334Y-49531283D01*
X188500500Y-49504925D01*
X188500500Y-48984057D01*
X188520185Y-48917018D01*
X188549013Y-48885681D01*
X188603800Y-48843643D01*
X188758643Y-48688800D01*
X188891950Y-48515071D01*
X189001440Y-48325428D01*
X189085241Y-48123117D01*
X189141917Y-47911598D01*
X189170500Y-47694490D01*
X189170500Y-47475510D01*
X189170499Y-47475502D01*
X190829500Y-47475502D01*
X190829500Y-47694497D01*
X190852188Y-47866823D01*
X190858083Y-47911598D01*
X190914759Y-48123117D01*
X190998560Y-48325428D01*
X190998562Y-48325433D01*
X190998565Y-48325438D01*
X191108049Y-48515070D01*
X191241355Y-48688798D01*
X191241361Y-48688805D01*
X191396194Y-48843638D01*
X191396201Y-48843644D01*
X191569929Y-48976950D01*
X191759561Y-49086434D01*
X191759563Y-49086434D01*
X191759572Y-49086440D01*
X191961883Y-49170241D01*
X192173402Y-49226917D01*
X192390510Y-49255500D01*
X192390517Y-49255500D01*
X192609483Y-49255500D01*
X192609490Y-49255500D01*
X192826598Y-49226917D01*
X193038117Y-49170241D01*
X193240428Y-49086440D01*
X193430071Y-48976950D01*
X193603800Y-48843643D01*
X193758643Y-48688800D01*
X193891950Y-48515071D01*
X194001440Y-48325428D01*
X194085241Y-48123117D01*
X194141917Y-47911598D01*
X194170500Y-47694490D01*
X194170500Y-47475510D01*
X194141917Y-47258402D01*
X194085241Y-47046883D01*
X194001440Y-46844572D01*
X193929144Y-46719352D01*
X193891950Y-46654929D01*
X193758644Y-46481201D01*
X193758638Y-46481194D01*
X193603805Y-46326361D01*
X193603798Y-46326355D01*
X193430070Y-46193049D01*
X193240438Y-46083565D01*
X193240433Y-46083562D01*
X193240428Y-46083560D01*
X193038117Y-45999759D01*
X193038118Y-45999759D01*
X193038115Y-45999758D01*
X192932357Y-45971421D01*
X192826598Y-45943083D01*
X192790314Y-45938306D01*
X192609497Y-45914500D01*
X192609490Y-45914500D01*
X192390510Y-45914500D01*
X192390502Y-45914500D01*
X192183853Y-45941707D01*
X192173402Y-45943083D01*
X192128699Y-45955060D01*
X191961884Y-45999758D01*
X191843374Y-46048847D01*
X191759572Y-46083560D01*
X191759569Y-46083561D01*
X191759561Y-46083565D01*
X191569929Y-46193049D01*
X191396201Y-46326355D01*
X191396194Y-46326361D01*
X191241361Y-46481194D01*
X191241355Y-46481201D01*
X191108049Y-46654929D01*
X190998565Y-46844561D01*
X190998561Y-46844569D01*
X190998560Y-46844572D01*
X190981005Y-46886954D01*
X190914758Y-47046884D01*
X190858084Y-47258399D01*
X190858082Y-47258410D01*
X190829500Y-47475502D01*
X189170499Y-47475502D01*
X189141917Y-47258402D01*
X189085241Y-47046883D01*
X189001440Y-46844572D01*
X188929144Y-46719352D01*
X188891950Y-46654929D01*
X188758644Y-46481201D01*
X188758638Y-46481194D01*
X188603805Y-46326361D01*
X188603798Y-46326355D01*
X188430070Y-46193049D01*
X188240438Y-46083565D01*
X188240433Y-46083562D01*
X188240428Y-46083560D01*
X188038117Y-45999759D01*
X188038118Y-45999759D01*
X188038115Y-45999758D01*
X187932357Y-45971421D01*
X187826598Y-45943083D01*
X187790314Y-45938306D01*
X187609497Y-45914500D01*
X187609490Y-45914500D01*
X187390510Y-45914500D01*
X187390502Y-45914500D01*
X187183853Y-45941707D01*
X187173402Y-45943083D01*
X187128699Y-45955060D01*
X186961884Y-45999758D01*
X186843374Y-46048847D01*
X186759572Y-46083560D01*
X186759569Y-46083561D01*
X186759561Y-46083565D01*
X186569929Y-46193049D01*
X186396201Y-46326355D01*
X186396194Y-46326361D01*
X186241361Y-46481194D01*
X186241355Y-46481201D01*
X186108049Y-46654929D01*
X185998565Y-46844561D01*
X185998561Y-46844569D01*
X185998560Y-46844572D01*
X185981005Y-46886954D01*
X185914758Y-47046884D01*
X185858084Y-47258399D01*
X185858082Y-47258410D01*
X185829500Y-47475502D01*
X184170499Y-47475502D01*
X184141917Y-47258402D01*
X184085241Y-47046883D01*
X184001440Y-46844572D01*
X183929144Y-46719352D01*
X183891950Y-46654929D01*
X183758644Y-46481201D01*
X183758638Y-46481194D01*
X183603805Y-46326361D01*
X183603798Y-46326355D01*
X183430070Y-46193049D01*
X183240438Y-46083565D01*
X183240433Y-46083562D01*
X183240428Y-46083560D01*
X183038117Y-45999759D01*
X183038118Y-45999759D01*
X183038115Y-45999758D01*
X182932357Y-45971421D01*
X182826598Y-45943083D01*
X182790314Y-45938306D01*
X182609497Y-45914500D01*
X182609490Y-45914500D01*
X182390510Y-45914500D01*
X182390502Y-45914500D01*
X182183853Y-45941707D01*
X182173402Y-45943083D01*
X182128699Y-45955060D01*
X181961884Y-45999758D01*
X181843374Y-46048847D01*
X181759572Y-46083560D01*
X181759569Y-46083561D01*
X181759561Y-46083565D01*
X181569929Y-46193049D01*
X181396201Y-46326355D01*
X181396194Y-46326361D01*
X181241361Y-46481194D01*
X181241355Y-46481201D01*
X181108049Y-46654929D01*
X180998565Y-46844561D01*
X180998561Y-46844569D01*
X180998560Y-46844572D01*
X180981005Y-46886954D01*
X180914758Y-47046884D01*
X180858084Y-47258399D01*
X180858082Y-47258410D01*
X180829500Y-47475502D01*
X178890422Y-47475502D01*
X176627101Y-45212181D01*
X176593616Y-45150858D01*
X176598600Y-45081166D01*
X176640472Y-45025233D01*
X176705936Y-45000816D01*
X176714782Y-45000500D01*
X208375500Y-45000500D01*
X208442539Y-45020185D01*
X208488294Y-45072989D01*
X208499500Y-45124500D01*
X208499500Y-68145254D01*
X208479815Y-68212293D01*
X208427011Y-68258048D01*
X208357853Y-68267992D01*
X208294297Y-68238967D01*
X208258459Y-68186209D01*
X208227337Y-68097268D01*
X208221267Y-68079921D01*
X208104284Y-67837003D01*
X207960838Y-67608711D01*
X207792734Y-67397915D01*
X207602085Y-67207266D01*
X207391289Y-67039162D01*
X207162997Y-66895716D01*
X207162994Y-66895714D01*
X206920082Y-66778734D01*
X206665602Y-66689687D01*
X206665594Y-66689684D01*
X206468446Y-66644687D01*
X206402732Y-66629688D01*
X206402728Y-66629687D01*
X206402719Y-66629686D01*
X206134813Y-66599500D01*
X206134809Y-66599500D01*
X205865191Y-66599500D01*
X205865186Y-66599500D01*
X205597280Y-66629686D01*
X205597268Y-66629688D01*
X205334405Y-66689684D01*
X205334397Y-66689687D01*
X205079917Y-66778734D01*
X204837005Y-66895714D01*
X204608712Y-67039161D01*
X204397915Y-67207265D01*
X204207265Y-67397915D01*
X204039161Y-67608712D01*
X203895714Y-67837005D01*
X203778734Y-68079917D01*
X203689687Y-68334397D01*
X203689684Y-68334405D01*
X203629688Y-68597268D01*
X203629686Y-68597280D01*
X203599500Y-68865186D01*
X203599500Y-69134813D01*
X203629686Y-69402719D01*
X203629687Y-69402728D01*
X203629688Y-69402732D01*
X203633648Y-69420082D01*
X203689684Y-69665594D01*
X203689687Y-69665602D01*
X203778734Y-69920082D01*
X203895714Y-70162994D01*
X203895716Y-70162997D01*
X204039162Y-70391289D01*
X204207266Y-70602085D01*
X204397915Y-70792734D01*
X204608711Y-70960838D01*
X204837003Y-71104284D01*
X205079921Y-71221267D01*
X205271049Y-71288145D01*
X205334397Y-71310312D01*
X205334405Y-71310315D01*
X205334408Y-71310315D01*
X205334409Y-71310316D01*
X205597268Y-71370312D01*
X205865187Y-71400499D01*
X205865188Y-71400500D01*
X205865191Y-71400500D01*
X206134812Y-71400500D01*
X206134812Y-71400499D01*
X206402732Y-71370312D01*
X206665591Y-71310316D01*
X206920079Y-71221267D01*
X207162997Y-71104284D01*
X207391289Y-70960838D01*
X207602085Y-70792734D01*
X207792734Y-70602085D01*
X207960838Y-70391289D01*
X208104284Y-70162997D01*
X208221267Y-69920079D01*
X208258460Y-69813787D01*
X208299180Y-69757014D01*
X208364133Y-69731267D01*
X208432695Y-69744723D01*
X208483097Y-69793111D01*
X208499500Y-69854745D01*
X208499500Y-116645254D01*
X208479815Y-116712293D01*
X208427011Y-116758048D01*
X208357853Y-116767992D01*
X208294297Y-116738967D01*
X208258459Y-116686209D01*
X208231341Y-116608711D01*
X208221267Y-116579921D01*
X208104284Y-116337003D01*
X207960838Y-116108711D01*
X207792734Y-115897915D01*
X207602085Y-115707266D01*
X207391289Y-115539162D01*
X207162997Y-115395716D01*
X207162994Y-115395714D01*
X206920082Y-115278734D01*
X206665602Y-115189687D01*
X206665594Y-115189684D01*
X206468446Y-115144687D01*
X206402732Y-115129688D01*
X206402728Y-115129687D01*
X206402719Y-115129686D01*
X206134813Y-115099500D01*
X206134809Y-115099500D01*
X205865191Y-115099500D01*
X205865186Y-115099500D01*
X205597280Y-115129686D01*
X205597268Y-115129688D01*
X205334405Y-115189684D01*
X205334397Y-115189687D01*
X205079917Y-115278734D01*
X204837005Y-115395714D01*
X204608712Y-115539161D01*
X204397915Y-115707265D01*
X204207265Y-115897915D01*
X204039161Y-116108712D01*
X203895714Y-116337005D01*
X203778734Y-116579917D01*
X203689687Y-116834397D01*
X203689684Y-116834405D01*
X203629688Y-117097268D01*
X203629686Y-117097280D01*
X203599500Y-117365186D01*
X203599500Y-117634813D01*
X203629686Y-117902719D01*
X203629688Y-117902731D01*
X203689684Y-118165594D01*
X203689687Y-118165602D01*
X203717373Y-118244723D01*
X203772658Y-118402719D01*
X203778731Y-118420073D01*
X203778734Y-118420082D01*
X203895714Y-118662994D01*
X203895716Y-118662997D01*
X204039162Y-118891289D01*
X204207266Y-119102085D01*
X204397915Y-119292734D01*
X204608711Y-119460838D01*
X204837003Y-119604284D01*
X205079921Y-119721267D01*
X205150411Y-119745932D01*
X205186209Y-119758459D01*
X205242985Y-119799180D01*
X205268732Y-119864133D01*
X205255276Y-119932695D01*
X205206888Y-119983098D01*
X205145254Y-119999500D01*
X109694681Y-119999500D01*
X109627642Y-119979815D01*
X109581887Y-119927011D01*
X109571943Y-119857853D01*
X109600968Y-119794297D01*
X109607000Y-119787819D01*
X109673554Y-119721265D01*
X109792734Y-119602085D01*
X109960838Y-119391289D01*
X110104284Y-119162997D01*
X110221267Y-118920079D01*
X110310316Y-118665591D01*
X110370312Y-118402732D01*
X110400500Y-118134809D01*
X110400500Y-117865191D01*
X110370312Y-117597268D01*
X110310316Y-117334409D01*
X110221267Y-117079921D01*
X110104284Y-116837003D01*
X109960838Y-116608711D01*
X109792734Y-116397915D01*
X109602085Y-116207266D01*
X109391289Y-116039162D01*
X109162997Y-115895716D01*
X109162994Y-115895714D01*
X108920082Y-115778734D01*
X108665602Y-115689687D01*
X108665594Y-115689684D01*
X108468446Y-115644687D01*
X108402732Y-115629688D01*
X108402728Y-115629687D01*
X108402719Y-115629686D01*
X108134813Y-115599500D01*
X108134809Y-115599500D01*
X107865191Y-115599500D01*
X107865186Y-115599500D01*
X107597280Y-115629686D01*
X107597268Y-115629688D01*
X107334405Y-115689684D01*
X107334397Y-115689687D01*
X107079917Y-115778734D01*
X106837005Y-115895714D01*
X106608712Y-116039161D01*
X106397915Y-116207265D01*
X106207265Y-116397915D01*
X106039161Y-116608712D01*
X105895714Y-116837005D01*
X105778734Y-117079917D01*
X105741541Y-117186209D01*
X105700820Y-117242985D01*
X105635867Y-117268732D01*
X105567305Y-117255276D01*
X105516902Y-117206888D01*
X105500500Y-117145254D01*
X105500500Y-108600001D01*
X141209500Y-108600001D01*
X141209500Y-111600002D01*
X141212397Y-111654043D01*
X141247978Y-111793444D01*
X141247981Y-111793452D01*
X141250909Y-111800521D01*
X141250911Y-111800526D01*
X141302695Y-111895362D01*
X141400740Y-112000672D01*
X141400740Y-112000673D01*
X141524474Y-112074089D01*
X141526545Y-112074947D01*
X141531548Y-112077019D01*
X141582584Y-112095024D01*
X141725000Y-112115500D01*
X141725003Y-112115500D01*
X146725002Y-112115500D01*
X146730796Y-112115189D01*
X146779041Y-112112603D01*
X146918452Y-112077019D01*
X146925523Y-112074090D01*
X147020364Y-112022303D01*
X147125671Y-111924261D01*
X147125672Y-111924259D01*
X147125673Y-111924259D01*
X147199089Y-111800525D01*
X147199091Y-111800521D01*
X147202019Y-111793452D01*
X147220024Y-111742416D01*
X147240500Y-111600000D01*
X147240500Y-108600000D01*
X147237603Y-108545959D01*
X147202019Y-108406548D01*
X147199090Y-108399477D01*
X147154959Y-108318657D01*
X147147304Y-108304637D01*
X147049259Y-108199327D01*
X147049259Y-108199326D01*
X146925525Y-108125910D01*
X146918452Y-108122981D01*
X146918431Y-108122973D01*
X146867417Y-108104976D01*
X146819944Y-108098150D01*
X146725000Y-108084500D01*
X141725000Y-108084500D01*
X141724998Y-108084500D01*
X141670956Y-108087397D01*
X141531555Y-108122978D01*
X141531547Y-108122981D01*
X141524478Y-108125909D01*
X141524473Y-108125911D01*
X141429637Y-108177695D01*
X141324327Y-108275740D01*
X141324326Y-108275740D01*
X141250910Y-108399474D01*
X141247981Y-108406547D01*
X141247973Y-108406568D01*
X141229976Y-108457582D01*
X141218872Y-108534812D01*
X141209501Y-108599997D01*
X141209500Y-108600001D01*
X105500500Y-108600001D01*
X105500500Y-93207648D01*
X139889500Y-93207648D01*
X139889500Y-93412352D01*
X139896923Y-93459220D01*
X139921522Y-93614531D01*
X139984781Y-93809223D01*
X140048691Y-93934653D01*
X140070667Y-93977782D01*
X140077715Y-93991613D01*
X140198028Y-94157213D01*
X140342786Y-94301971D01*
X140497749Y-94414556D01*
X140508390Y-94422287D01*
X140624607Y-94481503D01*
X140690776Y-94515218D01*
X140690778Y-94515218D01*
X140690781Y-94515220D01*
X140795137Y-94549127D01*
X140885465Y-94578477D01*
X140986557Y-94594488D01*
X141087648Y-94610500D01*
X141087649Y-94610500D01*
X141292351Y-94610500D01*
X141292352Y-94610500D01*
X141494534Y-94578477D01*
X141689219Y-94515220D01*
X141871610Y-94422287D01*
X141964590Y-94354732D01*
X142037213Y-94301971D01*
X142037215Y-94301968D01*
X142037219Y-94301966D01*
X142181966Y-94157219D01*
X142181968Y-94157215D01*
X142181971Y-94157213D01*
X142302284Y-93991614D01*
X142302285Y-93991613D01*
X142302287Y-93991610D01*
X142349516Y-93898917D01*
X142397489Y-93848123D01*
X142465310Y-93831328D01*
X142531445Y-93853865D01*
X142570485Y-93898919D01*
X142617715Y-93991614D01*
X142738028Y-94157213D01*
X142882786Y-94301971D01*
X143037749Y-94414556D01*
X143048390Y-94422287D01*
X143164607Y-94481503D01*
X143230776Y-94515218D01*
X143230778Y-94515218D01*
X143230781Y-94515220D01*
X143335137Y-94549127D01*
X143425465Y-94578477D01*
X143526557Y-94594488D01*
X143627648Y-94610500D01*
X143627649Y-94610500D01*
X143832351Y-94610500D01*
X143832352Y-94610500D01*
X144034534Y-94578477D01*
X144229219Y-94515220D01*
X144411610Y-94422287D01*
X144504590Y-94354732D01*
X144577213Y-94301971D01*
X144577215Y-94301968D01*
X144577219Y-94301966D01*
X144721966Y-94157219D01*
X144721968Y-94157215D01*
X144721971Y-94157213D01*
X144842284Y-93991614D01*
X144842285Y-93991613D01*
X144842287Y-93991610D01*
X144889516Y-93898917D01*
X144937489Y-93848123D01*
X145005310Y-93831328D01*
X145071445Y-93853865D01*
X145110485Y-93898919D01*
X145157715Y-93991614D01*
X145278028Y-94157213D01*
X145422786Y-94301971D01*
X145577749Y-94414556D01*
X145588390Y-94422287D01*
X145770781Y-94515220D01*
X145884584Y-94552197D01*
X145894639Y-94555464D01*
X145952315Y-94594902D01*
X145979513Y-94659260D01*
X145967598Y-94728107D01*
X145944002Y-94761076D01*
X143862220Y-96842859D01*
X143862218Y-96842861D01*
X143792538Y-96912540D01*
X143722859Y-96982219D01*
X143613371Y-97146079D01*
X143613364Y-97146092D01*
X143537950Y-97328160D01*
X143537947Y-97328170D01*
X143499500Y-97521456D01*
X143499500Y-100760500D01*
X143479815Y-100827539D01*
X143427011Y-100873294D01*
X143375500Y-100884500D01*
X141724998Y-100884500D01*
X141670956Y-100887397D01*
X141531555Y-100922978D01*
X141531547Y-100922981D01*
X141524478Y-100925909D01*
X141524473Y-100925911D01*
X141429637Y-100977695D01*
X141324327Y-101075740D01*
X141324326Y-101075740D01*
X141250910Y-101199474D01*
X141247981Y-101206547D01*
X141247973Y-101206568D01*
X141229976Y-101257582D01*
X141229976Y-101257584D01*
X141209501Y-101399997D01*
X141209500Y-101400001D01*
X141209500Y-104400002D01*
X141212397Y-104454043D01*
X141247978Y-104593444D01*
X141247981Y-104593452D01*
X141250909Y-104600521D01*
X141250911Y-104600526D01*
X141302695Y-104695362D01*
X141400740Y-104800672D01*
X141400740Y-104800673D01*
X141524474Y-104874089D01*
X141526545Y-104874947D01*
X141531548Y-104877019D01*
X141582584Y-104895024D01*
X141725000Y-104915500D01*
X141725003Y-104915500D01*
X146725002Y-104915500D01*
X146730796Y-104915189D01*
X146779041Y-104912603D01*
X146918452Y-104877019D01*
X146925523Y-104874090D01*
X147020364Y-104822303D01*
X147125671Y-104724261D01*
X147125672Y-104724259D01*
X147125673Y-104724259D01*
X147199089Y-104600525D01*
X147199091Y-104600521D01*
X147202019Y-104593452D01*
X147220024Y-104542416D01*
X147240500Y-104400000D01*
X147240500Y-101400001D01*
X172759500Y-101400001D01*
X172759500Y-104400002D01*
X172762397Y-104454043D01*
X172797978Y-104593444D01*
X172797981Y-104593452D01*
X172800909Y-104600521D01*
X172800911Y-104600526D01*
X172852695Y-104695362D01*
X172950740Y-104800672D01*
X172950740Y-104800673D01*
X173074474Y-104874089D01*
X173076545Y-104874947D01*
X173081548Y-104877019D01*
X173132584Y-104895024D01*
X173275000Y-104915500D01*
X176324218Y-104915500D01*
X176391257Y-104935185D01*
X176411899Y-104951819D01*
X176844735Y-105384655D01*
X176844764Y-105384686D01*
X176987214Y-105527136D01*
X176987218Y-105527139D01*
X177151079Y-105636628D01*
X177151092Y-105636635D01*
X177279833Y-105689961D01*
X177322744Y-105707735D01*
X177333164Y-105712051D01*
X177429812Y-105731275D01*
X177478135Y-105740887D01*
X177526458Y-105750500D01*
X177526459Y-105750500D01*
X177526460Y-105750500D01*
X177723540Y-105750500D01*
X185316489Y-105750500D01*
X185383528Y-105770185D01*
X185429283Y-105822989D01*
X185439227Y-105892147D01*
X185410202Y-105955703D01*
X185381587Y-105980037D01*
X185300745Y-106029901D01*
X185256342Y-106057289D01*
X185132287Y-106181344D01*
X185126580Y-106190598D01*
X185074632Y-106237322D01*
X185021042Y-106249500D01*
X178526454Y-106249500D01*
X178494391Y-106255876D01*
X178494392Y-106255877D01*
X178333170Y-106287946D01*
X178333164Y-106287948D01*
X178151088Y-106363366D01*
X178151079Y-106363371D01*
X177987219Y-106472859D01*
X177987215Y-106472862D01*
X176411899Y-108048181D01*
X176350576Y-108081666D01*
X176324218Y-108084500D01*
X173274998Y-108084500D01*
X173220956Y-108087397D01*
X173081555Y-108122978D01*
X173081547Y-108122981D01*
X173074478Y-108125909D01*
X173074473Y-108125911D01*
X172979637Y-108177695D01*
X172874327Y-108275740D01*
X172874326Y-108275740D01*
X172800910Y-108399474D01*
X172797981Y-108406547D01*
X172797973Y-108406568D01*
X172779976Y-108457582D01*
X172768872Y-108534812D01*
X172759501Y-108599997D01*
X172759500Y-108600001D01*
X172759500Y-111600002D01*
X172762397Y-111654043D01*
X172797978Y-111793444D01*
X172797981Y-111793452D01*
X172800909Y-111800521D01*
X172800911Y-111800526D01*
X172852695Y-111895362D01*
X172950740Y-112000672D01*
X172950740Y-112000673D01*
X173074474Y-112074089D01*
X173076545Y-112074947D01*
X173081548Y-112077019D01*
X173132584Y-112095024D01*
X173275000Y-112115500D01*
X173275003Y-112115500D01*
X178275002Y-112115500D01*
X178280796Y-112115189D01*
X178329041Y-112112603D01*
X178468452Y-112077019D01*
X178475523Y-112074090D01*
X178570364Y-112022303D01*
X178675671Y-111924261D01*
X178675672Y-111924259D01*
X178675673Y-111924259D01*
X178749089Y-111800525D01*
X178749091Y-111800521D01*
X178752019Y-111793452D01*
X178770024Y-111742416D01*
X178790500Y-111600000D01*
X178790500Y-108600000D01*
X178788342Y-108559754D01*
X178804408Y-108491759D01*
X178824478Y-108465440D01*
X179003103Y-108286818D01*
X179064427Y-108253334D01*
X179090784Y-108250500D01*
X185021042Y-108250500D01*
X185088081Y-108270185D01*
X185126580Y-108309402D01*
X185132288Y-108318656D01*
X185256344Y-108442712D01*
X185405666Y-108534814D01*
X185572203Y-108589999D01*
X185674991Y-108600500D01*
X187275008Y-108600499D01*
X187377797Y-108589999D01*
X187544334Y-108534814D01*
X187693656Y-108442712D01*
X187817712Y-108318656D01*
X187909814Y-108169334D01*
X187964999Y-108002797D01*
X187975500Y-107900009D01*
X187975499Y-106599992D01*
X187964999Y-106497203D01*
X187909814Y-106330666D01*
X187817712Y-106181344D01*
X187693656Y-106057288D01*
X187544334Y-105965186D01*
X187544333Y-105965185D01*
X187538878Y-105961821D01*
X187492154Y-105909873D01*
X187480931Y-105840910D01*
X187508775Y-105776828D01*
X187516272Y-105768623D01*
X187655104Y-105629792D01*
X187780051Y-105457816D01*
X187876557Y-105268412D01*
X187942246Y-105066243D01*
X187975500Y-104856287D01*
X187975500Y-104643713D01*
X187942246Y-104433757D01*
X187876557Y-104231588D01*
X187780051Y-104042184D01*
X187780049Y-104042181D01*
X187780048Y-104042179D01*
X187655109Y-103870213D01*
X187504786Y-103719890D01*
X187332820Y-103594951D01*
X187143414Y-103498444D01*
X187143413Y-103498443D01*
X187143412Y-103498443D01*
X186941243Y-103432754D01*
X186941241Y-103432753D01*
X186941240Y-103432753D01*
X186779957Y-103407208D01*
X186731287Y-103399500D01*
X186218713Y-103399500D01*
X186170042Y-103407208D01*
X186008760Y-103432753D01*
X185806585Y-103498444D01*
X185617179Y-103594951D01*
X185441266Y-103722759D01*
X185440635Y-103721891D01*
X185381581Y-103748359D01*
X185364800Y-103749500D01*
X178914500Y-103749500D01*
X178847461Y-103729815D01*
X178801706Y-103677011D01*
X178790500Y-103625500D01*
X178790500Y-101399997D01*
X178790033Y-101391306D01*
X178787603Y-101345959D01*
X178752019Y-101206548D01*
X178749090Y-101199477D01*
X178697303Y-101104636D01*
X178670400Y-101075740D01*
X178599259Y-100999327D01*
X178599259Y-100999326D01*
X178475525Y-100925910D01*
X178468452Y-100922981D01*
X178468431Y-100922973D01*
X178417417Y-100904976D01*
X178369944Y-100898150D01*
X178275000Y-100884500D01*
X173275000Y-100884500D01*
X173274998Y-100884500D01*
X173220956Y-100887397D01*
X173081555Y-100922978D01*
X173081547Y-100922981D01*
X173074478Y-100925909D01*
X173074473Y-100925911D01*
X172979637Y-100977695D01*
X172874327Y-101075740D01*
X172874326Y-101075740D01*
X172800910Y-101199474D01*
X172797981Y-101206547D01*
X172797973Y-101206568D01*
X172779976Y-101257582D01*
X172779976Y-101257584D01*
X172759501Y-101399997D01*
X172759500Y-101400001D01*
X147240500Y-101400001D01*
X147240500Y-101400000D01*
X147237603Y-101345959D01*
X147202019Y-101206548D01*
X147199090Y-101199477D01*
X147147303Y-101104636D01*
X147120400Y-101075740D01*
X147049259Y-100999327D01*
X147049259Y-100999326D01*
X146925525Y-100925910D01*
X146918452Y-100922981D01*
X146918431Y-100922973D01*
X146867417Y-100904976D01*
X146819944Y-100898150D01*
X146725000Y-100884500D01*
X146724998Y-100884500D01*
X145624500Y-100884500D01*
X145557461Y-100864815D01*
X145511706Y-100812011D01*
X145500500Y-100760500D01*
X145500500Y-98085782D01*
X145520185Y-98018743D01*
X145536819Y-97998101D01*
X146692061Y-96842859D01*
X148898204Y-94636715D01*
X148959525Y-94603232D01*
X148966475Y-94601926D01*
X149114534Y-94578477D01*
X149309219Y-94515220D01*
X149491610Y-94422287D01*
X149584590Y-94354732D01*
X149657213Y-94301971D01*
X149657215Y-94301968D01*
X149657219Y-94301966D01*
X149801966Y-94157219D01*
X149801968Y-94157215D01*
X149801971Y-94157213D01*
X149854732Y-94084590D01*
X149922287Y-93991610D01*
X150015220Y-93809219D01*
X150078477Y-93614534D01*
X150078476Y-93614534D01*
X150078478Y-93614531D01*
X150103076Y-93459220D01*
X150110500Y-93412352D01*
X150110500Y-93207648D01*
X150078477Y-93005466D01*
X150070142Y-92979815D01*
X150015218Y-92810776D01*
X149969515Y-92721080D01*
X149922287Y-92628390D01*
X149914556Y-92617749D01*
X149801971Y-92462786D01*
X149657213Y-92318028D01*
X149491613Y-92197715D01*
X149491612Y-92197714D01*
X149491610Y-92197713D01*
X149434653Y-92168691D01*
X149309223Y-92104781D01*
X149114534Y-92041522D01*
X148939995Y-92013878D01*
X148912352Y-92009500D01*
X148707648Y-92009500D01*
X148683329Y-92013351D01*
X148505465Y-92041522D01*
X148310776Y-92104781D01*
X148128386Y-92197715D01*
X147962786Y-92318028D01*
X147818028Y-92462786D01*
X147697715Y-92628386D01*
X147650485Y-92721080D01*
X147602510Y-92771876D01*
X147534689Y-92788671D01*
X147468554Y-92766134D01*
X147429515Y-92721080D01*
X147428883Y-92719840D01*
X147382287Y-92628390D01*
X147374556Y-92617749D01*
X147261971Y-92462786D01*
X147117213Y-92318028D01*
X146951613Y-92197715D01*
X146951612Y-92197714D01*
X146951610Y-92197713D01*
X146894653Y-92168691D01*
X146769223Y-92104781D01*
X146574534Y-92041522D01*
X146399995Y-92013878D01*
X146372352Y-92009500D01*
X146167648Y-92009500D01*
X146143329Y-92013351D01*
X145965465Y-92041522D01*
X145770776Y-92104781D01*
X145588386Y-92197715D01*
X145422786Y-92318028D01*
X145278028Y-92462786D01*
X145157715Y-92628386D01*
X145110485Y-92721080D01*
X145062510Y-92771876D01*
X144994689Y-92788671D01*
X144928554Y-92766134D01*
X144889515Y-92721080D01*
X144888883Y-92719840D01*
X144842287Y-92628390D01*
X144834556Y-92617749D01*
X144721971Y-92462786D01*
X144577213Y-92318028D01*
X144411613Y-92197715D01*
X144411612Y-92197714D01*
X144411610Y-92197713D01*
X144354653Y-92168691D01*
X144229223Y-92104781D01*
X144034534Y-92041522D01*
X143859995Y-92013878D01*
X143832352Y-92009500D01*
X143627648Y-92009500D01*
X143603329Y-92013351D01*
X143425465Y-92041522D01*
X143230776Y-92104781D01*
X143048386Y-92197715D01*
X142882786Y-92318028D01*
X142738028Y-92462786D01*
X142617715Y-92628386D01*
X142570485Y-92721080D01*
X142522510Y-92771876D01*
X142454689Y-92788671D01*
X142388554Y-92766134D01*
X142349515Y-92721080D01*
X142348883Y-92719840D01*
X142302287Y-92628390D01*
X142294556Y-92617749D01*
X142181971Y-92462786D01*
X142037213Y-92318028D01*
X141871613Y-92197715D01*
X141871612Y-92197714D01*
X141871610Y-92197713D01*
X141814653Y-92168691D01*
X141689223Y-92104781D01*
X141494534Y-92041522D01*
X141319995Y-92013878D01*
X141292352Y-92009500D01*
X141087648Y-92009500D01*
X141063329Y-92013351D01*
X140885465Y-92041522D01*
X140690776Y-92104781D01*
X140508386Y-92197715D01*
X140342786Y-92318028D01*
X140198028Y-92462786D01*
X140077715Y-92628386D01*
X139984781Y-92810776D01*
X139921522Y-93005465D01*
X139889500Y-93207648D01*
X105500500Y-93207648D01*
X105500500Y-88507882D01*
X117535669Y-88507882D01*
X117535670Y-88507883D01*
X117561059Y-88526329D01*
X117729362Y-88612085D01*
X117908997Y-88670451D01*
X118095553Y-88700000D01*
X118284447Y-88700000D01*
X118471002Y-88670451D01*
X118650637Y-88612085D01*
X118818937Y-88526331D01*
X118844328Y-88507883D01*
X118844328Y-88507882D01*
X118190001Y-87853554D01*
X118190000Y-87853554D01*
X117535669Y-88507882D01*
X105500500Y-88507882D01*
X105500500Y-87405552D01*
X116990000Y-87405552D01*
X116990000Y-87594447D01*
X117019548Y-87781002D01*
X117077914Y-87960637D01*
X117163666Y-88128933D01*
X117182116Y-88154328D01*
X117836446Y-87500000D01*
X117836446Y-87499999D01*
X117790369Y-87453922D01*
X117840000Y-87453922D01*
X117840000Y-87546078D01*
X117863852Y-87635095D01*
X117909930Y-87714905D01*
X117975095Y-87780070D01*
X118054905Y-87826148D01*
X118143922Y-87850000D01*
X118236078Y-87850000D01*
X118325095Y-87826148D01*
X118404905Y-87780070D01*
X118470070Y-87714905D01*
X118516148Y-87635095D01*
X118540000Y-87546078D01*
X118540000Y-87499999D01*
X118543554Y-87499999D01*
X118543554Y-87500000D01*
X119197882Y-88154328D01*
X119197883Y-88154328D01*
X119216331Y-88128937D01*
X119302085Y-87960637D01*
X119360451Y-87781002D01*
X119390000Y-87594447D01*
X119390000Y-87405552D01*
X119389994Y-87405513D01*
X124609500Y-87405513D01*
X124609500Y-87594486D01*
X124639059Y-87781118D01*
X124697454Y-87960836D01*
X124767619Y-88098541D01*
X124783240Y-88129199D01*
X124894310Y-88282073D01*
X125027927Y-88415690D01*
X125180801Y-88526760D01*
X125260347Y-88567290D01*
X125349163Y-88612545D01*
X125349165Y-88612545D01*
X125349168Y-88612547D01*
X125426827Y-88637780D01*
X125528881Y-88670940D01*
X125715514Y-88700500D01*
X125715519Y-88700500D01*
X125904486Y-88700500D01*
X126091118Y-88670940D01*
X126092623Y-88670451D01*
X126270832Y-88612547D01*
X126439199Y-88526760D01*
X126442746Y-88524183D01*
X126508552Y-88500702D01*
X126515633Y-88500500D01*
X127984367Y-88500500D01*
X128051406Y-88520185D01*
X128057254Y-88524183D01*
X128060799Y-88526759D01*
X128229163Y-88612545D01*
X128229165Y-88612545D01*
X128229168Y-88612547D01*
X128306827Y-88637780D01*
X128408881Y-88670940D01*
X128595514Y-88700500D01*
X128595519Y-88700500D01*
X128784486Y-88700500D01*
X128971118Y-88670940D01*
X128972623Y-88670451D01*
X129150832Y-88612547D01*
X129319199Y-88526760D01*
X129472073Y-88415690D01*
X129605690Y-88282073D01*
X129716760Y-88129199D01*
X129802547Y-87960832D01*
X129860940Y-87781118D01*
X129871427Y-87714905D01*
X129890500Y-87594486D01*
X129890500Y-87405513D01*
X129860940Y-87218881D01*
X129802545Y-87039163D01*
X129729201Y-86895218D01*
X129716760Y-86870801D01*
X129605690Y-86717927D01*
X129472073Y-86584310D01*
X129319199Y-86473240D01*
X129150836Y-86387454D01*
X128971118Y-86329059D01*
X128784486Y-86299500D01*
X128784481Y-86299500D01*
X128595519Y-86299500D01*
X128595514Y-86299500D01*
X128408881Y-86329059D01*
X128229163Y-86387454D01*
X128060799Y-86473240D01*
X128057254Y-86475817D01*
X127991448Y-86499298D01*
X127984367Y-86499500D01*
X126515633Y-86499500D01*
X126448594Y-86479815D01*
X126442746Y-86475817D01*
X126439200Y-86473240D01*
X126270836Y-86387454D01*
X126091118Y-86329059D01*
X125904486Y-86299500D01*
X125904481Y-86299500D01*
X125715519Y-86299500D01*
X125715514Y-86299500D01*
X125528881Y-86329059D01*
X125349163Y-86387454D01*
X125180800Y-86473240D01*
X125144935Y-86499298D01*
X125027927Y-86584310D01*
X125027925Y-86584312D01*
X125027924Y-86584312D01*
X124894312Y-86717924D01*
X124894312Y-86717925D01*
X124894310Y-86717927D01*
X124851291Y-86777137D01*
X124783240Y-86870800D01*
X124697454Y-87039163D01*
X124639059Y-87218881D01*
X124609500Y-87405513D01*
X119389994Y-87405513D01*
X119360451Y-87218997D01*
X119302085Y-87039362D01*
X119216329Y-86871059D01*
X119197883Y-86845670D01*
X119197882Y-86845669D01*
X118543554Y-87499999D01*
X118540000Y-87499999D01*
X118540000Y-87453922D01*
X118516148Y-87364905D01*
X118470070Y-87285095D01*
X118404905Y-87219930D01*
X118325095Y-87173852D01*
X118236078Y-87150000D01*
X118143922Y-87150000D01*
X118054905Y-87173852D01*
X117975095Y-87219930D01*
X117909930Y-87285095D01*
X117863852Y-87364905D01*
X117840000Y-87453922D01*
X117790369Y-87453922D01*
X117182116Y-86845669D01*
X117182116Y-86845670D01*
X117163669Y-86871060D01*
X117077914Y-87039362D01*
X117019548Y-87218997D01*
X116990000Y-87405552D01*
X105500500Y-87405552D01*
X105500500Y-86492116D01*
X117535669Y-86492116D01*
X118190000Y-87146446D01*
X118190001Y-87146446D01*
X118844328Y-86492116D01*
X118818933Y-86473666D01*
X118650637Y-86387914D01*
X118471002Y-86329548D01*
X118284447Y-86300000D01*
X118095553Y-86300000D01*
X117908997Y-86329548D01*
X117729362Y-86387914D01*
X117561060Y-86473669D01*
X117535670Y-86492116D01*
X117535669Y-86492116D01*
X105500500Y-86492116D01*
X105500500Y-70194681D01*
X105520185Y-70127642D01*
X105572989Y-70081887D01*
X105642147Y-70071943D01*
X105705703Y-70100968D01*
X105712181Y-70107000D01*
X105897915Y-70292734D01*
X106108711Y-70460838D01*
X106337003Y-70604284D01*
X106579921Y-70721267D01*
X106771049Y-70788145D01*
X106834397Y-70810312D01*
X106834405Y-70810315D01*
X106834408Y-70810315D01*
X106834409Y-70810316D01*
X107097268Y-70870312D01*
X107365187Y-70900499D01*
X107365188Y-70900500D01*
X107365191Y-70900500D01*
X107634812Y-70900500D01*
X107634812Y-70900499D01*
X107902732Y-70870312D01*
X108165591Y-70810316D01*
X108420079Y-70721267D01*
X108662997Y-70604284D01*
X108891289Y-70460838D01*
X109102085Y-70292734D01*
X109292734Y-70102085D01*
X109460838Y-69891289D01*
X109604284Y-69662997D01*
X109721267Y-69420079D01*
X109810316Y-69165591D01*
X109870312Y-68902732D01*
X109900500Y-68634809D01*
X109900500Y-68365191D01*
X109870312Y-68097268D01*
X109810316Y-67834409D01*
X109721267Y-67579921D01*
X109604284Y-67337003D01*
X109460838Y-67108711D01*
X109292734Y-66897915D01*
X109102085Y-66707266D01*
X108891289Y-66539162D01*
X108662997Y-66395716D01*
X108662994Y-66395714D01*
X108420082Y-66278734D01*
X108165602Y-66189687D01*
X108165594Y-66189684D01*
X107968446Y-66144687D01*
X107902732Y-66129688D01*
X107902728Y-66129687D01*
X107902719Y-66129686D01*
X107634813Y-66099500D01*
X107634809Y-66099500D01*
X107365191Y-66099500D01*
X107365186Y-66099500D01*
X107097280Y-66129686D01*
X107097268Y-66129688D01*
X106834405Y-66189684D01*
X106834397Y-66189687D01*
X106579917Y-66278734D01*
X106337005Y-66395714D01*
X106108712Y-66539161D01*
X105897915Y-66707265D01*
X105712181Y-66893000D01*
X105650858Y-66926485D01*
X105581166Y-66921501D01*
X105525233Y-66879629D01*
X105500816Y-66814165D01*
X105500500Y-66805319D01*
X105500500Y-58875441D01*
X114599500Y-58875441D01*
X114599500Y-59124558D01*
X114599501Y-59124575D01*
X114632017Y-59371561D01*
X114696498Y-59612207D01*
X114791830Y-59842361D01*
X114791837Y-59842376D01*
X114916400Y-60058126D01*
X115068060Y-60255774D01*
X115068066Y-60255781D01*
X115244218Y-60431933D01*
X115244225Y-60431939D01*
X115441873Y-60583599D01*
X115657623Y-60708162D01*
X115657638Y-60708169D01*
X115756825Y-60749253D01*
X115887793Y-60803502D01*
X116128435Y-60867982D01*
X116375435Y-60900500D01*
X116375442Y-60900500D01*
X116624558Y-60900500D01*
X116624565Y-60900500D01*
X116871565Y-60867982D01*
X117112207Y-60803502D01*
X117342373Y-60708164D01*
X117558127Y-60583599D01*
X117755776Y-60431938D01*
X117931938Y-60255776D01*
X118083599Y-60058127D01*
X118208164Y-59842373D01*
X118303502Y-59612207D01*
X118367982Y-59371565D01*
X118400500Y-59124565D01*
X118400500Y-58875435D01*
X118367982Y-58628435D01*
X118303502Y-58387793D01*
X118208164Y-58157627D01*
X118177592Y-58104675D01*
X118083599Y-57941873D01*
X117931939Y-57744225D01*
X117931933Y-57744218D01*
X117755781Y-57568066D01*
X117755774Y-57568060D01*
X117558126Y-57416400D01*
X117342376Y-57291837D01*
X117342361Y-57291830D01*
X117112207Y-57196498D01*
X116871561Y-57132017D01*
X116624575Y-57099501D01*
X116624570Y-57099500D01*
X116624565Y-57099500D01*
X116375435Y-57099500D01*
X116375429Y-57099500D01*
X116375424Y-57099501D01*
X116128438Y-57132017D01*
X115887792Y-57196498D01*
X115657638Y-57291830D01*
X115657623Y-57291837D01*
X115441873Y-57416400D01*
X115244225Y-57568060D01*
X115244218Y-57568066D01*
X115068066Y-57744218D01*
X115068060Y-57744225D01*
X114916400Y-57941873D01*
X114791837Y-58157623D01*
X114791830Y-58157638D01*
X114696498Y-58387792D01*
X114632017Y-58628438D01*
X114599501Y-58875424D01*
X114599500Y-58875441D01*
X105500500Y-58875441D01*
X105500500Y-50975466D01*
X112600000Y-50975466D01*
X112600000Y-51224533D01*
X112632508Y-51471463D01*
X112696973Y-51712049D01*
X112792283Y-51942148D01*
X112792288Y-51942159D01*
X112916813Y-52157841D01*
X112916819Y-52157849D01*
X112991400Y-52255045D01*
X113637425Y-51609019D01*
X113723249Y-51737463D01*
X113862537Y-51876751D01*
X113990978Y-51962573D01*
X113344953Y-52608597D01*
X113344953Y-52608598D01*
X113442150Y-52683180D01*
X113442158Y-52683186D01*
X113657840Y-52807711D01*
X113657851Y-52807716D01*
X113887950Y-52903026D01*
X114128536Y-52967491D01*
X114375466Y-53000000D01*
X114507532Y-53000000D01*
X114574571Y-53019685D01*
X114620326Y-53072489D01*
X114630471Y-53140185D01*
X114599501Y-53375424D01*
X114599500Y-53375441D01*
X114599500Y-53624558D01*
X114599501Y-53624575D01*
X114632017Y-53871561D01*
X114632017Y-53871564D01*
X114632018Y-53871565D01*
X114659893Y-53975594D01*
X114696498Y-54112207D01*
X114791830Y-54342361D01*
X114791837Y-54342376D01*
X114916400Y-54558126D01*
X115068060Y-54755774D01*
X115068066Y-54755781D01*
X115244218Y-54931933D01*
X115244225Y-54931939D01*
X115441873Y-55083599D01*
X115657623Y-55208162D01*
X115657638Y-55208169D01*
X115756825Y-55249253D01*
X115887793Y-55303502D01*
X116128435Y-55367982D01*
X116375435Y-55400500D01*
X116375442Y-55400500D01*
X116624558Y-55400500D01*
X116624565Y-55400500D01*
X116871565Y-55367982D01*
X116871573Y-55367979D01*
X116874529Y-55367392D01*
X116875432Y-55367472D01*
X116875590Y-55367452D01*
X116875594Y-55367487D01*
X116944121Y-55373616D01*
X116986407Y-55401327D01*
X119963181Y-58378101D01*
X119996666Y-58439424D01*
X119999500Y-58465782D01*
X119999500Y-75742401D01*
X119979815Y-75809440D01*
X119927011Y-75855195D01*
X119857853Y-75865139D01*
X119837183Y-75860332D01*
X119804425Y-75849688D01*
X119804418Y-75849687D01*
X119602317Y-75817677D01*
X119397683Y-75817677D01*
X119195582Y-75849686D01*
X119000968Y-75912921D01*
X118818644Y-76005820D01*
X118774077Y-76038200D01*
X118774077Y-76038201D01*
X119453553Y-76717677D01*
X119447339Y-76717677D01*
X119345606Y-76744936D01*
X119254394Y-76797597D01*
X119179920Y-76872071D01*
X119127259Y-76963283D01*
X119100000Y-77065016D01*
X119100000Y-77071230D01*
X118420524Y-76391754D01*
X118420523Y-76391754D01*
X118388143Y-76436321D01*
X118295244Y-76618645D01*
X118232009Y-76813259D01*
X118200000Y-77015359D01*
X118200000Y-77219994D01*
X118232009Y-77422094D01*
X118295244Y-77616708D01*
X118388141Y-77799027D01*
X118388147Y-77799036D01*
X118420523Y-77843598D01*
X118420524Y-77843599D01*
X119100000Y-77164123D01*
X119100000Y-77170338D01*
X119127259Y-77272071D01*
X119179920Y-77363283D01*
X119254394Y-77437757D01*
X119345606Y-77490418D01*
X119447339Y-77517677D01*
X119453552Y-77517677D01*
X118774076Y-78197151D01*
X118777052Y-78234959D01*
X118762687Y-78303336D01*
X118713636Y-78353092D01*
X118692440Y-78362392D01*
X118630672Y-78382861D01*
X118630663Y-78382864D01*
X118481342Y-78474966D01*
X118357289Y-78599019D01*
X118265187Y-78748340D01*
X118265185Y-78748345D01*
X118247173Y-78802703D01*
X118210001Y-78914880D01*
X118210001Y-78914881D01*
X118210000Y-78914881D01*
X118199500Y-79017660D01*
X118199500Y-80217678D01*
X118199501Y-80217695D01*
X118210000Y-80320473D01*
X118210001Y-80320476D01*
X118265185Y-80487008D01*
X118265187Y-80487013D01*
X118271105Y-80496608D01*
X118357288Y-80636333D01*
X118481344Y-80760389D01*
X118630666Y-80852491D01*
X118797203Y-80907676D01*
X118899991Y-80918177D01*
X120100008Y-80918176D01*
X120202797Y-80907676D01*
X120369334Y-80852491D01*
X120518656Y-80760389D01*
X120642712Y-80636333D01*
X120734814Y-80487011D01*
X120789999Y-80320474D01*
X120800500Y-80217686D01*
X120800499Y-79783458D01*
X120820183Y-79716420D01*
X120836818Y-79695778D01*
X121051252Y-79481345D01*
X121777139Y-78755459D01*
X121814196Y-78700000D01*
X121814529Y-78699502D01*
X121814529Y-78699501D01*
X121881667Y-78599021D01*
X121886632Y-78591591D01*
X121962051Y-78409512D01*
X122000500Y-78216218D01*
X122000500Y-71990513D01*
X139489500Y-71990513D01*
X139489500Y-72179486D01*
X139519059Y-72366118D01*
X139577454Y-72545836D01*
X139597058Y-72584310D01*
X139663240Y-72714199D01*
X139774310Y-72867073D01*
X139907927Y-73000690D01*
X140060801Y-73111760D01*
X140140347Y-73152290D01*
X140229163Y-73197545D01*
X140229165Y-73197545D01*
X140229168Y-73197547D01*
X140294827Y-73218881D01*
X140408881Y-73255940D01*
X140595514Y-73285500D01*
X140595519Y-73285500D01*
X140784486Y-73285500D01*
X140971118Y-73255940D01*
X141150832Y-73197547D01*
X141319199Y-73111760D01*
X141472073Y-73000690D01*
X141605690Y-72867073D01*
X141716760Y-72714199D01*
X141802547Y-72545832D01*
X141860940Y-72366118D01*
X141866809Y-72329060D01*
X141890500Y-72179486D01*
X141890500Y-71990513D01*
X141860940Y-71803881D01*
X141802545Y-71624163D01*
X141716759Y-71455800D01*
X141676581Y-71400500D01*
X141605690Y-71302927D01*
X141472073Y-71169310D01*
X141319199Y-71058240D01*
X141150836Y-70972454D01*
X140971118Y-70914059D01*
X140784486Y-70884500D01*
X140784481Y-70884500D01*
X140595519Y-70884500D01*
X140595514Y-70884500D01*
X140408881Y-70914059D01*
X140229163Y-70972454D01*
X140060800Y-71058240D01*
X140024935Y-71084298D01*
X139907927Y-71169310D01*
X139907925Y-71169312D01*
X139907924Y-71169312D01*
X139774312Y-71302924D01*
X139774312Y-71302925D01*
X139774310Y-71302927D01*
X139768942Y-71310316D01*
X139663240Y-71455800D01*
X139577454Y-71624163D01*
X139519059Y-71803881D01*
X139489500Y-71990513D01*
X122000500Y-71990513D01*
X122000500Y-57901459D01*
X122000500Y-57901457D01*
X122000500Y-57901456D01*
X121962052Y-57708170D01*
X121962051Y-57708169D01*
X121962051Y-57708165D01*
X121904018Y-57568060D01*
X121886635Y-57526092D01*
X121886628Y-57526079D01*
X121777139Y-57362218D01*
X121777136Y-57362214D01*
X121634686Y-57219764D01*
X121634655Y-57219735D01*
X118401327Y-53986407D01*
X118367842Y-53925084D01*
X118367392Y-53874529D01*
X118367979Y-53871573D01*
X118367982Y-53871565D01*
X118400500Y-53624565D01*
X118400500Y-53375435D01*
X118367982Y-53128435D01*
X118303502Y-52887793D01*
X118229277Y-52708598D01*
X118208169Y-52657638D01*
X118208162Y-52657623D01*
X118083599Y-52441873D01*
X117931939Y-52244225D01*
X117931933Y-52244218D01*
X117755781Y-52068066D01*
X117755774Y-52068060D01*
X117558126Y-51916400D01*
X117342376Y-51791837D01*
X117342361Y-51791830D01*
X117112207Y-51696498D01*
X116871561Y-51632017D01*
X116624575Y-51599501D01*
X116624570Y-51599500D01*
X116624565Y-51599500D01*
X116492030Y-51599500D01*
X116424991Y-51579815D01*
X116379236Y-51527011D01*
X116369091Y-51459315D01*
X116400000Y-51224533D01*
X116400000Y-50975466D01*
X116367491Y-50728536D01*
X116303026Y-50487950D01*
X116207716Y-50257851D01*
X116207711Y-50257840D01*
X116083186Y-50042158D01*
X116083180Y-50042150D01*
X116008598Y-49944953D01*
X116008597Y-49944953D01*
X115362573Y-50590978D01*
X115276751Y-50462537D01*
X115137463Y-50323249D01*
X115009019Y-50237425D01*
X115655045Y-49591400D01*
X115557849Y-49516819D01*
X115557841Y-49516813D01*
X115342159Y-49392288D01*
X115342148Y-49392283D01*
X115112049Y-49296973D01*
X114871463Y-49232508D01*
X114624534Y-49200000D01*
X114375466Y-49200000D01*
X114128536Y-49232508D01*
X113887950Y-49296973D01*
X113657851Y-49392283D01*
X113657847Y-49392285D01*
X113442143Y-49516823D01*
X113344953Y-49591399D01*
X113344953Y-49591400D01*
X113990979Y-50237426D01*
X113862537Y-50323249D01*
X113723249Y-50462537D01*
X113637426Y-50590979D01*
X112991400Y-49944953D01*
X112991399Y-49944953D01*
X112916823Y-50042143D01*
X112792285Y-50257847D01*
X112792283Y-50257851D01*
X112696973Y-50487950D01*
X112632508Y-50728536D01*
X112600000Y-50975466D01*
X105500500Y-50975466D01*
X105500500Y-45124500D01*
X105520185Y-45057461D01*
X105572989Y-45011706D01*
X105624500Y-45000500D01*
X149370217Y-45000500D01*
X149437256Y-45020185D01*
G37*
%TD.AperFunction*%
%TD*%
M02*
