%TF.GenerationSoftware,KiCad,Pcbnew,10.0.5*%
%TF.CreationDate,2026-08-06T18:38:49-03:00*%
%TF.ProjectId,amplificador_IC4558,616d706c-6966-4696-9361-646f725f4943,rev?*%
%TF.SameCoordinates,Original*%
%TF.FileFunction,Copper,L2,Bot*%
%TF.FilePolarity,Positive*%
%FSLAX46Y46*%
G04 Gerber Fmt 4.6, Leading zero omitted, Abs format (unit mm)*
G04 Created by KiCad (PCBNEW 10.0.5) date 2026-08-06 18:38:49*
%MOMM*%
%LPD*%
G01*
G04 APERTURE LIST*
G04 Aperture macros list*
%AMRoundRect*
0 Rectangle with rounded corners*
0 $1 Rounding radius*
0 $2 $3 $4 $5 $6 $7 $8 $9 X,Y pos of 4 corners*
0 Add a 4 corners polygon primitive as box body*
4,1,4,$2,$3,$4,$5,$6,$7,$8,$9,$2,$3,0*
0 Add four circle primitives for the rounded corners*
1,1,$1+$1,$2,$3*
1,1,$1+$1,$4,$5*
1,1,$1+$1,$6,$7*
1,1,$1+$1,$8,$9*
0 Add four rect primitives between the rounded corners*
20,1,$1+$1,$2,$3,$4,$5,0*
20,1,$1+$1,$4,$5,$6,$7,0*
20,1,$1+$1,$6,$7,$8,$9,0*
20,1,$1+$1,$8,$9,$2,$3,0*%
%AMFreePoly0*
4,1,13,2.503536,1.503536,2.505000,1.500000,2.505000,-1.500000,2.503536,-1.503536,2.500000,-1.505000,-2.500000,-1.505000,-2.503536,-1.503536,-2.505000,-1.500000,-2.505000,1.500000,-2.503536,1.503536,-2.500000,1.505000,2.500000,1.505000,2.503536,1.503536,2.503536,1.503536,$1*%
G04 Aperture macros list end*
%TA.AperFunction,ComponentPad*%
%ADD10C,3.800000*%
%TD*%
%TA.AperFunction,ComponentPad*%
%ADD11C,1.400000*%
%TD*%
%TA.AperFunction,ComponentPad*%
%ADD12C,1.600000*%
%TD*%
%TA.AperFunction,ComponentPad*%
%ADD13RoundRect,0.250000X-0.550000X-0.550000X0.550000X-0.550000X0.550000X0.550000X-0.550000X0.550000X0*%
%TD*%
%TA.AperFunction,ComponentPad*%
%ADD14C,2.340000*%
%TD*%
%TA.AperFunction,ComponentPad*%
%ADD15RoundRect,0.250000X0.550000X-0.550000X0.550000X0.550000X-0.550000X0.550000X-0.550000X-0.550000X0*%
%TD*%
%TA.AperFunction,ComponentPad*%
%ADD16RoundRect,0.250000X-0.550000X0.550000X-0.550000X-0.550000X0.550000X-0.550000X0.550000X0.550000X0*%
%TD*%
%TA.AperFunction,ComponentPad*%
%ADD17C,2.800000*%
%TD*%
%TA.AperFunction,ComponentPad*%
%ADD18FreePoly0,0.000000*%
%TD*%
%TA.AperFunction,ComponentPad*%
%ADD19RoundRect,0.250000X0.750000X-0.600000X0.750000X0.600000X-0.750000X0.600000X-0.750000X-0.600000X0*%
%TD*%
%TA.AperFunction,ComponentPad*%
%ADD20O,2.000000X1.700000*%
%TD*%
%TA.AperFunction,Conductor*%
%ADD21C,1.000000*%
%TD*%
G04 APERTURE END LIST*
D10*
%TO.P,REF\u002A\u002A,1*%
%TO.N,N/C*%
X107500000Y-68500000D03*
%TD*%
%TO.P,REF\u002A\u002A,1*%
%TO.N,N/C*%
X206000000Y-69000000D03*
%TD*%
%TO.P,REF\u002A\u002A,1*%
%TO.N,N/C*%
X206000000Y-117500000D03*
%TD*%
D11*
%TO.P,R1,1*%
%TO.N,Net-(U1A-+)*%
X136310000Y-87500000D03*
%TO.P,R1,2*%
%TO.N,Net-(R1-Pad2)*%
X128690000Y-87500000D03*
%TD*%
%TO.P,R2,2*%
%TO.N,GND*%
X118190000Y-87500000D03*
%TO.P,R2,1*%
%TO.N,Net-(R1-Pad2)*%
X125810000Y-87500000D03*
%TD*%
%TO.P,R5,1*%
%TO.N,Net-(U1A--)*%
X159620000Y-72085000D03*
%TO.P,R5,2*%
%TO.N,Net-(C5-Pad2)*%
X152000000Y-72085000D03*
%TD*%
D12*
%TO.P,C2,2*%
%TO.N,GND*%
X200264646Y-80000000D03*
D13*
%TO.P,C2,1*%
%TO.N,Net-(C2-Pad1)*%
X197764646Y-80000000D03*
%TD*%
D12*
%TO.P,C3,2*%
%TO.N,Net-(C3-Pad2)*%
X173882323Y-80500000D03*
D13*
%TO.P,C3,1*%
%TO.N,Net-(C3-Pad1)*%
X171382323Y-80500000D03*
%TD*%
D12*
%TO.P,C4,2*%
%TO.N,Net-(U1A--)*%
X161500000Y-80500000D03*
D13*
%TO.P,C4,1*%
%TO.N,Net-(C3-Pad2)*%
X159000000Y-80500000D03*
%TD*%
D12*
%TO.P,C5,2*%
%TO.N,Net-(C5-Pad2)*%
X185382323Y-80500000D03*
D13*
%TO.P,C5,1*%
%TO.N,Net-(C5-Pad1)*%
X182882323Y-80500000D03*
%TD*%
D14*
%TO.P,RV4,1,1_1*%
%TO.N,Net-(RV2-Pad1)*%
X163000000Y-47585000D03*
%TO.P,RV4,2,2_2*%
%TO.N,Net-(C5-Pad1)*%
X168000000Y-47585000D03*
%TO.P,RV4,3,3_3*%
%TO.N,Net-(C3-Pad1)*%
X173000000Y-47585000D03*
%TD*%
%TO.P,RV3,1,1_1*%
%TO.N,Net-(RV2-Pad1)*%
X143500000Y-47585000D03*
%TO.P,RV3,2,2_2*%
%TO.N,Net-(C3-Pad2)*%
X148500000Y-47585000D03*
%TO.P,RV3,3,3_3*%
%TO.N,Net-(C3-Pad1)*%
X153500000Y-47585000D03*
%TD*%
%TO.P,RV2,1,1_1*%
%TO.N,Net-(RV2-Pad1)*%
X124000000Y-47585000D03*
%TO.P,RV2,2,2_2*%
%TO.N,Net-(R6-Pad2)*%
X129000000Y-47585000D03*
%TO.P,RV2,3,3_3*%
%TO.N,Net-(C3-Pad1)*%
X134000000Y-47585000D03*
%TD*%
%TO.P,RV1,1,1_1*%
%TO.N,Earth*%
X182500000Y-47585000D03*
%TO.P,RV1,2,2_2*%
%TO.N,Net-(C2-Pad1)*%
X187500000Y-47585000D03*
%TO.P,RV1,3,3_3*%
%TO.N,Net-(R3-Pad2)*%
X192500000Y-47585000D03*
%TD*%
D12*
%TO.P,C1,2*%
%TO.N,GND*%
X119500000Y-77117677D03*
D15*
%TO.P,C1,1*%
%TO.N,Net-(U1A-+)*%
X119500000Y-79617677D03*
%TD*%
D16*
%TO.P,U1,1*%
%TO.N,Net-(R3-Pad1)*%
X148810000Y-85690000D03*
D12*
%TO.P,U1,2,-_2*%
%TO.N,Net-(U1A--)*%
X146270000Y-85690000D03*
%TO.P,U1,3,+_3*%
%TO.N,Net-(U1A-+)*%
X143730000Y-85690000D03*
%TO.P,U1,4,V-_4*%
%TO.N,GND*%
X141190000Y-85690000D03*
%TO.P,U1,5*%
%TO.N,N/C*%
X141190000Y-93310000D03*
%TO.P,U1,6*%
X143730000Y-93310000D03*
%TO.P,U1,7*%
X146270000Y-93310000D03*
%TO.P,U1,8,V+_8*%
%TO.N,+5v*%
X148810000Y-93310000D03*
%TD*%
D11*
%TO.P,R6,1*%
%TO.N,Net-(C5-Pad2)*%
X148310000Y-72085000D03*
%TO.P,R6,2*%
%TO.N,Net-(R6-Pad2)*%
X140690000Y-72085000D03*
%TD*%
%TO.P,R4,1*%
%TO.N,Net-(C3-Pad1)*%
X172040000Y-91000000D03*
%TO.P,R4,2*%
%TO.N,Net-(R3-Pad1)*%
X179660000Y-91000000D03*
%TD*%
%TO.P,R3,1*%
%TO.N,Net-(R3-Pad1)*%
X191500000Y-81120000D03*
%TO.P,R3,2*%
%TO.N,Net-(R3-Pad2)*%
X191500000Y-73500000D03*
%TD*%
D17*
%TO.P,J2,R*%
%TO.N,N/C*%
X204400000Y-59100000D03*
%TO.P,J2,S*%
%TO.N,GND*%
X202400000Y-51200000D03*
%TO.P,J2,T*%
%TO.N,Net-(C2-Pad1)*%
X204400000Y-53600000D03*
%TD*%
%TO.P,J1,R*%
%TO.N,N/C*%
X116500000Y-59000000D03*
%TO.P,J1,S*%
%TO.N,GND*%
X114500000Y-51100000D03*
%TO.P,J1,T*%
%TO.N,Net-(U1A-+)*%
X116500000Y-53500000D03*
%TD*%
D18*
%TO.P,REF\u002A\u002A,VIN_N*%
%TO.N,N/C*%
X175775000Y-110100000D03*
%TO.P,REF\u002A\u002A,VIN_P*%
X175775000Y-102900000D03*
%TO.P,REF\u002A\u002A,VOUT_N*%
X144225000Y-110100000D03*
%TO.P,REF\u002A\u002A,VOUT_P*%
X144225000Y-102900000D03*
%TD*%
D10*
%TO.P,REF\u002A\u002A,1*%
%TO.N,N/C*%
X108000000Y-118000000D03*
%TD*%
D19*
%TO.P,REF\u002A\u002A,1*%
%TO.N,N/C*%
X186475000Y-107250000D03*
D20*
%TO.P,REF\u002A\u002A,2*%
X186475000Y-104750000D03*
%TD*%
%TO.N,GND*%
D21*
X138500000Y-106000000D02*
X142500000Y-110000000D01*
X138500000Y-92500000D02*
X138500000Y-106000000D01*
X141190000Y-87690000D02*
X141190000Y-89810000D01*
X141190000Y-89810000D02*
X138500000Y-92500000D01*
%TO.N,Net-(C3-Pad2)*%
X162000000Y-83500000D02*
X172500000Y-83500000D01*
X159000000Y-80500000D02*
X162000000Y-83500000D01*
X173882323Y-82117677D02*
X173882323Y-80500000D01*
X172500000Y-83500000D02*
X173882323Y-82117677D01*
%TO.N,Net-(R6-Pad2)*%
X140690000Y-72085000D02*
X129000000Y-60395000D01*
X129000000Y-60395000D02*
X129000000Y-47585000D01*
%TO.N,Net-(U1A--)*%
X159620000Y-72085000D02*
X161500000Y-73965000D01*
X161500000Y-73965000D02*
X161500000Y-80500000D01*
%TO.N,Net-(C3-Pad1)*%
X171382323Y-80500000D02*
X171382323Y-49707323D01*
X171382323Y-49707323D02*
X171130000Y-49455000D01*
X153500000Y-47585000D02*
X151630000Y-49455000D01*
X151630000Y-49455000D02*
X135870000Y-49455000D01*
X135870000Y-49455000D02*
X134000000Y-47585000D01*
X173000000Y-47585000D02*
X171130000Y-49455000D01*
X171130000Y-49455000D02*
X155370000Y-49455000D01*
X155370000Y-49455000D02*
X153500000Y-47585000D01*
%TO.N,GND*%
X191764646Y-88500000D02*
X142000000Y-88500000D01*
X200264646Y-80000000D02*
X191764646Y-88500000D01*
X142000000Y-88500000D02*
X141190000Y-87690000D01*
X141190000Y-87690000D02*
X141190000Y-85690000D01*
%TO.N,Net-(R3-Pad2)*%
X192500000Y-47585000D02*
X192500000Y-72500000D01*
X192500000Y-72500000D02*
X191500000Y-73500000D01*
%TO.N,GND*%
X202400000Y-51200000D02*
X200264646Y-53335354D01*
X200264646Y-53335354D02*
X200264646Y-80000000D01*
%TO.N,Net-(U1A-+)*%
X136310000Y-87500000D02*
X128427677Y-79617677D01*
X128427677Y-79617677D02*
X119500000Y-79617677D01*
%TD*%
M02*
