%TF.GenerationSoftware,KiCad,Pcbnew,10.0.5*%
%TF.CreationDate,2026-08-06T18:38:49-03:00*%
%TF.ProjectId,amplificador_IC4558,616d706c-6966-4696-9361-646f725f4943,rev?*%
%TF.SameCoordinates,Original*%
%TF.FileFunction,Legend,Top*%
%TF.FilePolarity,Positive*%
%FSLAX46Y46*%
G04 Gerber Fmt 4.6, Leading zero omitted, Abs format (unit mm)*
G04 Created by KiCad (PCBNEW 10.0.5) date 2026-08-06 18:38:49*
%MOMM*%
%LPD*%
G01*
G04 APERTURE LIST*
%ADD10C,0.150000*%
%ADD11C,0.120000*%
%ADD12C,0.127000*%
G04 APERTURE END LIST*
D10*
X106166666Y-66104819D02*
X105833333Y-65628628D01*
X105595238Y-66104819D02*
X105595238Y-65104819D01*
X105595238Y-65104819D02*
X105976190Y-65104819D01*
X105976190Y-65104819D02*
X106071428Y-65152438D01*
X106071428Y-65152438D02*
X106119047Y-65200057D01*
X106119047Y-65200057D02*
X106166666Y-65295295D01*
X106166666Y-65295295D02*
X106166666Y-65438152D01*
X106166666Y-65438152D02*
X106119047Y-65533390D01*
X106119047Y-65533390D02*
X106071428Y-65581009D01*
X106071428Y-65581009D02*
X105976190Y-65628628D01*
X105976190Y-65628628D02*
X105595238Y-65628628D01*
X106595238Y-65581009D02*
X106928571Y-65581009D01*
X107071428Y-66104819D02*
X106595238Y-66104819D01*
X106595238Y-66104819D02*
X106595238Y-65104819D01*
X106595238Y-65104819D02*
X107071428Y-65104819D01*
X107833333Y-65581009D02*
X107500000Y-65581009D01*
X107500000Y-66104819D02*
X107500000Y-65104819D01*
X107500000Y-65104819D02*
X107976190Y-65104819D01*
X108500000Y-65104819D02*
X108500000Y-65342914D01*
X108261905Y-65247676D02*
X108500000Y-65342914D01*
X108500000Y-65342914D02*
X108738095Y-65247676D01*
X108357143Y-65533390D02*
X108500000Y-65342914D01*
X108500000Y-65342914D02*
X108642857Y-65533390D01*
X109261905Y-65104819D02*
X109261905Y-65342914D01*
X109023810Y-65247676D02*
X109261905Y-65342914D01*
X109261905Y-65342914D02*
X109500000Y-65247676D01*
X109119048Y-65533390D02*
X109261905Y-65342914D01*
X109261905Y-65342914D02*
X109404762Y-65533390D01*
X204666666Y-66604819D02*
X204333333Y-66128628D01*
X204095238Y-66604819D02*
X204095238Y-65604819D01*
X204095238Y-65604819D02*
X204476190Y-65604819D01*
X204476190Y-65604819D02*
X204571428Y-65652438D01*
X204571428Y-65652438D02*
X204619047Y-65700057D01*
X204619047Y-65700057D02*
X204666666Y-65795295D01*
X204666666Y-65795295D02*
X204666666Y-65938152D01*
X204666666Y-65938152D02*
X204619047Y-66033390D01*
X204619047Y-66033390D02*
X204571428Y-66081009D01*
X204571428Y-66081009D02*
X204476190Y-66128628D01*
X204476190Y-66128628D02*
X204095238Y-66128628D01*
X205095238Y-66081009D02*
X205428571Y-66081009D01*
X205571428Y-66604819D02*
X205095238Y-66604819D01*
X205095238Y-66604819D02*
X205095238Y-65604819D01*
X205095238Y-65604819D02*
X205571428Y-65604819D01*
X206333333Y-66081009D02*
X206000000Y-66081009D01*
X206000000Y-66604819D02*
X206000000Y-65604819D01*
X206000000Y-65604819D02*
X206476190Y-65604819D01*
X207000000Y-65604819D02*
X207000000Y-65842914D01*
X206761905Y-65747676D02*
X207000000Y-65842914D01*
X207000000Y-65842914D02*
X207238095Y-65747676D01*
X206857143Y-66033390D02*
X207000000Y-65842914D01*
X207000000Y-65842914D02*
X207142857Y-66033390D01*
X207761905Y-65604819D02*
X207761905Y-65842914D01*
X207523810Y-65747676D02*
X207761905Y-65842914D01*
X207761905Y-65842914D02*
X208000000Y-65747676D01*
X207619048Y-66033390D02*
X207761905Y-65842914D01*
X207761905Y-65842914D02*
X207904762Y-66033390D01*
X204666666Y-115104819D02*
X204333333Y-114628628D01*
X204095238Y-115104819D02*
X204095238Y-114104819D01*
X204095238Y-114104819D02*
X204476190Y-114104819D01*
X204476190Y-114104819D02*
X204571428Y-114152438D01*
X204571428Y-114152438D02*
X204619047Y-114200057D01*
X204619047Y-114200057D02*
X204666666Y-114295295D01*
X204666666Y-114295295D02*
X204666666Y-114438152D01*
X204666666Y-114438152D02*
X204619047Y-114533390D01*
X204619047Y-114533390D02*
X204571428Y-114581009D01*
X204571428Y-114581009D02*
X204476190Y-114628628D01*
X204476190Y-114628628D02*
X204095238Y-114628628D01*
X205095238Y-114581009D02*
X205428571Y-114581009D01*
X205571428Y-115104819D02*
X205095238Y-115104819D01*
X205095238Y-115104819D02*
X205095238Y-114104819D01*
X205095238Y-114104819D02*
X205571428Y-114104819D01*
X206333333Y-114581009D02*
X206000000Y-114581009D01*
X206000000Y-115104819D02*
X206000000Y-114104819D01*
X206000000Y-114104819D02*
X206476190Y-114104819D01*
X207000000Y-114104819D02*
X207000000Y-114342914D01*
X206761905Y-114247676D02*
X207000000Y-114342914D01*
X207000000Y-114342914D02*
X207238095Y-114247676D01*
X206857143Y-114533390D02*
X207000000Y-114342914D01*
X207000000Y-114342914D02*
X207142857Y-114533390D01*
X207761905Y-114104819D02*
X207761905Y-114342914D01*
X207523810Y-114247676D02*
X207761905Y-114342914D01*
X207761905Y-114342914D02*
X208000000Y-114247676D01*
X207619048Y-114533390D02*
X207761905Y-114342914D01*
X207761905Y-114342914D02*
X207904762Y-114533390D01*
X132333333Y-89874819D02*
X132000000Y-89398628D01*
X131761905Y-89874819D02*
X131761905Y-88874819D01*
X131761905Y-88874819D02*
X132142857Y-88874819D01*
X132142857Y-88874819D02*
X132238095Y-88922438D01*
X132238095Y-88922438D02*
X132285714Y-88970057D01*
X132285714Y-88970057D02*
X132333333Y-89065295D01*
X132333333Y-89065295D02*
X132333333Y-89208152D01*
X132333333Y-89208152D02*
X132285714Y-89303390D01*
X132285714Y-89303390D02*
X132238095Y-89351009D01*
X132238095Y-89351009D02*
X132142857Y-89398628D01*
X132142857Y-89398628D02*
X131761905Y-89398628D01*
X133285714Y-89874819D02*
X132714286Y-89874819D01*
X133000000Y-89874819D02*
X133000000Y-88874819D01*
X133000000Y-88874819D02*
X132904762Y-89017676D01*
X132904762Y-89017676D02*
X132809524Y-89112914D01*
X132809524Y-89112914D02*
X132714286Y-89160533D01*
X121833333Y-89874819D02*
X121500000Y-89398628D01*
X121261905Y-89874819D02*
X121261905Y-88874819D01*
X121261905Y-88874819D02*
X121642857Y-88874819D01*
X121642857Y-88874819D02*
X121738095Y-88922438D01*
X121738095Y-88922438D02*
X121785714Y-88970057D01*
X121785714Y-88970057D02*
X121833333Y-89065295D01*
X121833333Y-89065295D02*
X121833333Y-89208152D01*
X121833333Y-89208152D02*
X121785714Y-89303390D01*
X121785714Y-89303390D02*
X121738095Y-89351009D01*
X121738095Y-89351009D02*
X121642857Y-89398628D01*
X121642857Y-89398628D02*
X121261905Y-89398628D01*
X122214286Y-88970057D02*
X122261905Y-88922438D01*
X122261905Y-88922438D02*
X122357143Y-88874819D01*
X122357143Y-88874819D02*
X122595238Y-88874819D01*
X122595238Y-88874819D02*
X122690476Y-88922438D01*
X122690476Y-88922438D02*
X122738095Y-88970057D01*
X122738095Y-88970057D02*
X122785714Y-89065295D01*
X122785714Y-89065295D02*
X122785714Y-89160533D01*
X122785714Y-89160533D02*
X122738095Y-89303390D01*
X122738095Y-89303390D02*
X122166667Y-89874819D01*
X122166667Y-89874819D02*
X122785714Y-89874819D01*
X155643333Y-74459819D02*
X155310000Y-73983628D01*
X155071905Y-74459819D02*
X155071905Y-73459819D01*
X155071905Y-73459819D02*
X155452857Y-73459819D01*
X155452857Y-73459819D02*
X155548095Y-73507438D01*
X155548095Y-73507438D02*
X155595714Y-73555057D01*
X155595714Y-73555057D02*
X155643333Y-73650295D01*
X155643333Y-73650295D02*
X155643333Y-73793152D01*
X155643333Y-73793152D02*
X155595714Y-73888390D01*
X155595714Y-73888390D02*
X155548095Y-73936009D01*
X155548095Y-73936009D02*
X155452857Y-73983628D01*
X155452857Y-73983628D02*
X155071905Y-73983628D01*
X156548095Y-73459819D02*
X156071905Y-73459819D01*
X156071905Y-73459819D02*
X156024286Y-73936009D01*
X156024286Y-73936009D02*
X156071905Y-73888390D01*
X156071905Y-73888390D02*
X156167143Y-73840771D01*
X156167143Y-73840771D02*
X156405238Y-73840771D01*
X156405238Y-73840771D02*
X156500476Y-73888390D01*
X156500476Y-73888390D02*
X156548095Y-73936009D01*
X156548095Y-73936009D02*
X156595714Y-74031247D01*
X156595714Y-74031247D02*
X156595714Y-74269342D01*
X156595714Y-74269342D02*
X156548095Y-74364580D01*
X156548095Y-74364580D02*
X156500476Y-74412200D01*
X156500476Y-74412200D02*
X156405238Y-74459819D01*
X156405238Y-74459819D02*
X156167143Y-74459819D01*
X156167143Y-74459819D02*
X156071905Y-74412200D01*
X156071905Y-74412200D02*
X156024286Y-74364580D01*
X198847979Y-74109580D02*
X198800360Y-74157200D01*
X198800360Y-74157200D02*
X198657503Y-74204819D01*
X198657503Y-74204819D02*
X198562265Y-74204819D01*
X198562265Y-74204819D02*
X198419408Y-74157200D01*
X198419408Y-74157200D02*
X198324170Y-74061961D01*
X198324170Y-74061961D02*
X198276551Y-73966723D01*
X198276551Y-73966723D02*
X198228932Y-73776247D01*
X198228932Y-73776247D02*
X198228932Y-73633390D01*
X198228932Y-73633390D02*
X198276551Y-73442914D01*
X198276551Y-73442914D02*
X198324170Y-73347676D01*
X198324170Y-73347676D02*
X198419408Y-73252438D01*
X198419408Y-73252438D02*
X198562265Y-73204819D01*
X198562265Y-73204819D02*
X198657503Y-73204819D01*
X198657503Y-73204819D02*
X198800360Y-73252438D01*
X198800360Y-73252438D02*
X198847979Y-73300057D01*
X199228932Y-73300057D02*
X199276551Y-73252438D01*
X199276551Y-73252438D02*
X199371789Y-73204819D01*
X199371789Y-73204819D02*
X199609884Y-73204819D01*
X199609884Y-73204819D02*
X199705122Y-73252438D01*
X199705122Y-73252438D02*
X199752741Y-73300057D01*
X199752741Y-73300057D02*
X199800360Y-73395295D01*
X199800360Y-73395295D02*
X199800360Y-73490533D01*
X199800360Y-73490533D02*
X199752741Y-73633390D01*
X199752741Y-73633390D02*
X199181313Y-74204819D01*
X199181313Y-74204819D02*
X199800360Y-74204819D01*
X155965656Y-73694580D02*
X155918037Y-73742200D01*
X155918037Y-73742200D02*
X155775180Y-73789819D01*
X155775180Y-73789819D02*
X155679942Y-73789819D01*
X155679942Y-73789819D02*
X155537085Y-73742200D01*
X155537085Y-73742200D02*
X155441847Y-73646961D01*
X155441847Y-73646961D02*
X155394228Y-73551723D01*
X155394228Y-73551723D02*
X155346609Y-73361247D01*
X155346609Y-73361247D02*
X155346609Y-73218390D01*
X155346609Y-73218390D02*
X155394228Y-73027914D01*
X155394228Y-73027914D02*
X155441847Y-72932676D01*
X155441847Y-72932676D02*
X155537085Y-72837438D01*
X155537085Y-72837438D02*
X155679942Y-72789819D01*
X155679942Y-72789819D02*
X155775180Y-72789819D01*
X155775180Y-72789819D02*
X155918037Y-72837438D01*
X155918037Y-72837438D02*
X155965656Y-72885057D01*
X156298990Y-72789819D02*
X156918037Y-72789819D01*
X156918037Y-72789819D02*
X156584704Y-73170771D01*
X156584704Y-73170771D02*
X156727561Y-73170771D01*
X156727561Y-73170771D02*
X156822799Y-73218390D01*
X156822799Y-73218390D02*
X156870418Y-73266009D01*
X156870418Y-73266009D02*
X156918037Y-73361247D01*
X156918037Y-73361247D02*
X156918037Y-73599342D01*
X156918037Y-73599342D02*
X156870418Y-73694580D01*
X156870418Y-73694580D02*
X156822799Y-73742200D01*
X156822799Y-73742200D02*
X156727561Y-73789819D01*
X156727561Y-73789819D02*
X156441847Y-73789819D01*
X156441847Y-73789819D02*
X156346609Y-73742200D01*
X156346609Y-73742200D02*
X156298990Y-73694580D01*
X143583333Y-73694580D02*
X143535714Y-73742200D01*
X143535714Y-73742200D02*
X143392857Y-73789819D01*
X143392857Y-73789819D02*
X143297619Y-73789819D01*
X143297619Y-73789819D02*
X143154762Y-73742200D01*
X143154762Y-73742200D02*
X143059524Y-73646961D01*
X143059524Y-73646961D02*
X143011905Y-73551723D01*
X143011905Y-73551723D02*
X142964286Y-73361247D01*
X142964286Y-73361247D02*
X142964286Y-73218390D01*
X142964286Y-73218390D02*
X143011905Y-73027914D01*
X143011905Y-73027914D02*
X143059524Y-72932676D01*
X143059524Y-72932676D02*
X143154762Y-72837438D01*
X143154762Y-72837438D02*
X143297619Y-72789819D01*
X143297619Y-72789819D02*
X143392857Y-72789819D01*
X143392857Y-72789819D02*
X143535714Y-72837438D01*
X143535714Y-72837438D02*
X143583333Y-72885057D01*
X144440476Y-73123152D02*
X144440476Y-73789819D01*
X144202381Y-72742200D02*
X143964286Y-73456485D01*
X143964286Y-73456485D02*
X144583333Y-73456485D01*
X167465656Y-73694580D02*
X167418037Y-73742200D01*
X167418037Y-73742200D02*
X167275180Y-73789819D01*
X167275180Y-73789819D02*
X167179942Y-73789819D01*
X167179942Y-73789819D02*
X167037085Y-73742200D01*
X167037085Y-73742200D02*
X166941847Y-73646961D01*
X166941847Y-73646961D02*
X166894228Y-73551723D01*
X166894228Y-73551723D02*
X166846609Y-73361247D01*
X166846609Y-73361247D02*
X166846609Y-73218390D01*
X166846609Y-73218390D02*
X166894228Y-73027914D01*
X166894228Y-73027914D02*
X166941847Y-72932676D01*
X166941847Y-72932676D02*
X167037085Y-72837438D01*
X167037085Y-72837438D02*
X167179942Y-72789819D01*
X167179942Y-72789819D02*
X167275180Y-72789819D01*
X167275180Y-72789819D02*
X167418037Y-72837438D01*
X167418037Y-72837438D02*
X167465656Y-72885057D01*
X168370418Y-72789819D02*
X167894228Y-72789819D01*
X167894228Y-72789819D02*
X167846609Y-73266009D01*
X167846609Y-73266009D02*
X167894228Y-73218390D01*
X167894228Y-73218390D02*
X167989466Y-73170771D01*
X167989466Y-73170771D02*
X168227561Y-73170771D01*
X168227561Y-73170771D02*
X168322799Y-73218390D01*
X168322799Y-73218390D02*
X168370418Y-73266009D01*
X168370418Y-73266009D02*
X168418037Y-73361247D01*
X168418037Y-73361247D02*
X168418037Y-73599342D01*
X168418037Y-73599342D02*
X168370418Y-73694580D01*
X168370418Y-73694580D02*
X168322799Y-73742200D01*
X168322799Y-73742200D02*
X168227561Y-73789819D01*
X168227561Y-73789819D02*
X167989466Y-73789819D01*
X167989466Y-73789819D02*
X167894228Y-73742200D01*
X167894228Y-73742200D02*
X167846609Y-73694580D01*
X178154819Y-58095238D02*
X177678628Y-58428571D01*
X178154819Y-58666666D02*
X177154819Y-58666666D01*
X177154819Y-58666666D02*
X177154819Y-58285714D01*
X177154819Y-58285714D02*
X177202438Y-58190476D01*
X177202438Y-58190476D02*
X177250057Y-58142857D01*
X177250057Y-58142857D02*
X177345295Y-58095238D01*
X177345295Y-58095238D02*
X177488152Y-58095238D01*
X177488152Y-58095238D02*
X177583390Y-58142857D01*
X177583390Y-58142857D02*
X177631009Y-58190476D01*
X177631009Y-58190476D02*
X177678628Y-58285714D01*
X177678628Y-58285714D02*
X177678628Y-58666666D01*
X177154819Y-57809523D02*
X178154819Y-57476190D01*
X178154819Y-57476190D02*
X177154819Y-57142857D01*
X177488152Y-56380952D02*
X178154819Y-56380952D01*
X177107200Y-56619047D02*
X177821485Y-56857142D01*
X177821485Y-56857142D02*
X177821485Y-56238095D01*
X158654819Y-58095238D02*
X158178628Y-58428571D01*
X158654819Y-58666666D02*
X157654819Y-58666666D01*
X157654819Y-58666666D02*
X157654819Y-58285714D01*
X157654819Y-58285714D02*
X157702438Y-58190476D01*
X157702438Y-58190476D02*
X157750057Y-58142857D01*
X157750057Y-58142857D02*
X157845295Y-58095238D01*
X157845295Y-58095238D02*
X157988152Y-58095238D01*
X157988152Y-58095238D02*
X158083390Y-58142857D01*
X158083390Y-58142857D02*
X158131009Y-58190476D01*
X158131009Y-58190476D02*
X158178628Y-58285714D01*
X158178628Y-58285714D02*
X158178628Y-58666666D01*
X157654819Y-57809523D02*
X158654819Y-57476190D01*
X158654819Y-57476190D02*
X157654819Y-57142857D01*
X157654819Y-56904761D02*
X157654819Y-56285714D01*
X157654819Y-56285714D02*
X158035771Y-56619047D01*
X158035771Y-56619047D02*
X158035771Y-56476190D01*
X158035771Y-56476190D02*
X158083390Y-56380952D01*
X158083390Y-56380952D02*
X158131009Y-56333333D01*
X158131009Y-56333333D02*
X158226247Y-56285714D01*
X158226247Y-56285714D02*
X158464342Y-56285714D01*
X158464342Y-56285714D02*
X158559580Y-56333333D01*
X158559580Y-56333333D02*
X158607200Y-56380952D01*
X158607200Y-56380952D02*
X158654819Y-56476190D01*
X158654819Y-56476190D02*
X158654819Y-56761904D01*
X158654819Y-56761904D02*
X158607200Y-56857142D01*
X158607200Y-56857142D02*
X158559580Y-56904761D01*
X139154819Y-58095238D02*
X138678628Y-58428571D01*
X139154819Y-58666666D02*
X138154819Y-58666666D01*
X138154819Y-58666666D02*
X138154819Y-58285714D01*
X138154819Y-58285714D02*
X138202438Y-58190476D01*
X138202438Y-58190476D02*
X138250057Y-58142857D01*
X138250057Y-58142857D02*
X138345295Y-58095238D01*
X138345295Y-58095238D02*
X138488152Y-58095238D01*
X138488152Y-58095238D02*
X138583390Y-58142857D01*
X138583390Y-58142857D02*
X138631009Y-58190476D01*
X138631009Y-58190476D02*
X138678628Y-58285714D01*
X138678628Y-58285714D02*
X138678628Y-58666666D01*
X138154819Y-57809523D02*
X139154819Y-57476190D01*
X139154819Y-57476190D02*
X138154819Y-57142857D01*
X138250057Y-56857142D02*
X138202438Y-56809523D01*
X138202438Y-56809523D02*
X138154819Y-56714285D01*
X138154819Y-56714285D02*
X138154819Y-56476190D01*
X138154819Y-56476190D02*
X138202438Y-56380952D01*
X138202438Y-56380952D02*
X138250057Y-56333333D01*
X138250057Y-56333333D02*
X138345295Y-56285714D01*
X138345295Y-56285714D02*
X138440533Y-56285714D01*
X138440533Y-56285714D02*
X138583390Y-56333333D01*
X138583390Y-56333333D02*
X139154819Y-56904761D01*
X139154819Y-56904761D02*
X139154819Y-56285714D01*
X197654819Y-58095238D02*
X197178628Y-58428571D01*
X197654819Y-58666666D02*
X196654819Y-58666666D01*
X196654819Y-58666666D02*
X196654819Y-58285714D01*
X196654819Y-58285714D02*
X196702438Y-58190476D01*
X196702438Y-58190476D02*
X196750057Y-58142857D01*
X196750057Y-58142857D02*
X196845295Y-58095238D01*
X196845295Y-58095238D02*
X196988152Y-58095238D01*
X196988152Y-58095238D02*
X197083390Y-58142857D01*
X197083390Y-58142857D02*
X197131009Y-58190476D01*
X197131009Y-58190476D02*
X197178628Y-58285714D01*
X197178628Y-58285714D02*
X197178628Y-58666666D01*
X196654819Y-57809523D02*
X197654819Y-57476190D01*
X197654819Y-57476190D02*
X196654819Y-57142857D01*
X197654819Y-56285714D02*
X197654819Y-56857142D01*
X197654819Y-56571428D02*
X196654819Y-56571428D01*
X196654819Y-56571428D02*
X196797676Y-56666666D01*
X196797676Y-56666666D02*
X196892914Y-56761904D01*
X196892914Y-56761904D02*
X196940533Y-56857142D01*
X113609580Y-78534343D02*
X113657200Y-78581962D01*
X113657200Y-78581962D02*
X113704819Y-78724819D01*
X113704819Y-78724819D02*
X113704819Y-78820057D01*
X113704819Y-78820057D02*
X113657200Y-78962914D01*
X113657200Y-78962914D02*
X113561961Y-79058152D01*
X113561961Y-79058152D02*
X113466723Y-79105771D01*
X113466723Y-79105771D02*
X113276247Y-79153390D01*
X113276247Y-79153390D02*
X113133390Y-79153390D01*
X113133390Y-79153390D02*
X112942914Y-79105771D01*
X112942914Y-79105771D02*
X112847676Y-79058152D01*
X112847676Y-79058152D02*
X112752438Y-78962914D01*
X112752438Y-78962914D02*
X112704819Y-78820057D01*
X112704819Y-78820057D02*
X112704819Y-78724819D01*
X112704819Y-78724819D02*
X112752438Y-78581962D01*
X112752438Y-78581962D02*
X112800057Y-78534343D01*
X113704819Y-77581962D02*
X113704819Y-78153390D01*
X113704819Y-77867676D02*
X112704819Y-77867676D01*
X112704819Y-77867676D02*
X112847676Y-77962914D01*
X112847676Y-77962914D02*
X112942914Y-78058152D01*
X112942914Y-78058152D02*
X112990533Y-78153390D01*
X150594819Y-90261904D02*
X151404342Y-90261904D01*
X151404342Y-90261904D02*
X151499580Y-90214285D01*
X151499580Y-90214285D02*
X151547200Y-90166666D01*
X151547200Y-90166666D02*
X151594819Y-90071428D01*
X151594819Y-90071428D02*
X151594819Y-89880952D01*
X151594819Y-89880952D02*
X151547200Y-89785714D01*
X151547200Y-89785714D02*
X151499580Y-89738095D01*
X151499580Y-89738095D02*
X151404342Y-89690476D01*
X151404342Y-89690476D02*
X150594819Y-89690476D01*
X151594819Y-88690476D02*
X151594819Y-89261904D01*
X151594819Y-88976190D02*
X150594819Y-88976190D01*
X150594819Y-88976190D02*
X150737676Y-89071428D01*
X150737676Y-89071428D02*
X150832914Y-89166666D01*
X150832914Y-89166666D02*
X150880533Y-89261904D01*
X144333333Y-74459819D02*
X144000000Y-73983628D01*
X143761905Y-74459819D02*
X143761905Y-73459819D01*
X143761905Y-73459819D02*
X144142857Y-73459819D01*
X144142857Y-73459819D02*
X144238095Y-73507438D01*
X144238095Y-73507438D02*
X144285714Y-73555057D01*
X144285714Y-73555057D02*
X144333333Y-73650295D01*
X144333333Y-73650295D02*
X144333333Y-73793152D01*
X144333333Y-73793152D02*
X144285714Y-73888390D01*
X144285714Y-73888390D02*
X144238095Y-73936009D01*
X144238095Y-73936009D02*
X144142857Y-73983628D01*
X144142857Y-73983628D02*
X143761905Y-73983628D01*
X145190476Y-73459819D02*
X145000000Y-73459819D01*
X145000000Y-73459819D02*
X144904762Y-73507438D01*
X144904762Y-73507438D02*
X144857143Y-73555057D01*
X144857143Y-73555057D02*
X144761905Y-73697914D01*
X144761905Y-73697914D02*
X144714286Y-73888390D01*
X144714286Y-73888390D02*
X144714286Y-74269342D01*
X144714286Y-74269342D02*
X144761905Y-74364580D01*
X144761905Y-74364580D02*
X144809524Y-74412200D01*
X144809524Y-74412200D02*
X144904762Y-74459819D01*
X144904762Y-74459819D02*
X145095238Y-74459819D01*
X145095238Y-74459819D02*
X145190476Y-74412200D01*
X145190476Y-74412200D02*
X145238095Y-74364580D01*
X145238095Y-74364580D02*
X145285714Y-74269342D01*
X145285714Y-74269342D02*
X145285714Y-74031247D01*
X145285714Y-74031247D02*
X145238095Y-73936009D01*
X145238095Y-73936009D02*
X145190476Y-73888390D01*
X145190476Y-73888390D02*
X145095238Y-73840771D01*
X145095238Y-73840771D02*
X144904762Y-73840771D01*
X144904762Y-73840771D02*
X144809524Y-73888390D01*
X144809524Y-73888390D02*
X144761905Y-73936009D01*
X144761905Y-73936009D02*
X144714286Y-74031247D01*
X175683333Y-89534819D02*
X175350000Y-89058628D01*
X175111905Y-89534819D02*
X175111905Y-88534819D01*
X175111905Y-88534819D02*
X175492857Y-88534819D01*
X175492857Y-88534819D02*
X175588095Y-88582438D01*
X175588095Y-88582438D02*
X175635714Y-88630057D01*
X175635714Y-88630057D02*
X175683333Y-88725295D01*
X175683333Y-88725295D02*
X175683333Y-88868152D01*
X175683333Y-88868152D02*
X175635714Y-88963390D01*
X175635714Y-88963390D02*
X175588095Y-89011009D01*
X175588095Y-89011009D02*
X175492857Y-89058628D01*
X175492857Y-89058628D02*
X175111905Y-89058628D01*
X176540476Y-88868152D02*
X176540476Y-89534819D01*
X176302381Y-88487200D02*
X176064286Y-89201485D01*
X176064286Y-89201485D02*
X176683333Y-89201485D01*
X190034819Y-77476666D02*
X189558628Y-77809999D01*
X190034819Y-78048094D02*
X189034819Y-78048094D01*
X189034819Y-78048094D02*
X189034819Y-77667142D01*
X189034819Y-77667142D02*
X189082438Y-77571904D01*
X189082438Y-77571904D02*
X189130057Y-77524285D01*
X189130057Y-77524285D02*
X189225295Y-77476666D01*
X189225295Y-77476666D02*
X189368152Y-77476666D01*
X189368152Y-77476666D02*
X189463390Y-77524285D01*
X189463390Y-77524285D02*
X189511009Y-77571904D01*
X189511009Y-77571904D02*
X189558628Y-77667142D01*
X189558628Y-77667142D02*
X189558628Y-78048094D01*
X189034819Y-77143332D02*
X189034819Y-76524285D01*
X189034819Y-76524285D02*
X189415771Y-76857618D01*
X189415771Y-76857618D02*
X189415771Y-76714761D01*
X189415771Y-76714761D02*
X189463390Y-76619523D01*
X189463390Y-76619523D02*
X189511009Y-76571904D01*
X189511009Y-76571904D02*
X189606247Y-76524285D01*
X189606247Y-76524285D02*
X189844342Y-76524285D01*
X189844342Y-76524285D02*
X189939580Y-76571904D01*
X189939580Y-76571904D02*
X189987200Y-76619523D01*
X189987200Y-76619523D02*
X190034819Y-76714761D01*
X190034819Y-76714761D02*
X190034819Y-77000475D01*
X190034819Y-77000475D02*
X189987200Y-77095713D01*
X189987200Y-77095713D02*
X189939580Y-77143332D01*
X202166666Y-44204819D02*
X202166666Y-44919104D01*
X202166666Y-44919104D02*
X202119047Y-45061961D01*
X202119047Y-45061961D02*
X202023809Y-45157200D01*
X202023809Y-45157200D02*
X201880952Y-45204819D01*
X201880952Y-45204819D02*
X201785714Y-45204819D01*
X202595238Y-44300057D02*
X202642857Y-44252438D01*
X202642857Y-44252438D02*
X202738095Y-44204819D01*
X202738095Y-44204819D02*
X202976190Y-44204819D01*
X202976190Y-44204819D02*
X203071428Y-44252438D01*
X203071428Y-44252438D02*
X203119047Y-44300057D01*
X203119047Y-44300057D02*
X203166666Y-44395295D01*
X203166666Y-44395295D02*
X203166666Y-44490533D01*
X203166666Y-44490533D02*
X203119047Y-44633390D01*
X203119047Y-44633390D02*
X202547619Y-45204819D01*
X202547619Y-45204819D02*
X203166666Y-45204819D01*
X114266666Y-44104819D02*
X114266666Y-44819104D01*
X114266666Y-44819104D02*
X114219047Y-44961961D01*
X114219047Y-44961961D02*
X114123809Y-45057200D01*
X114123809Y-45057200D02*
X113980952Y-45104819D01*
X113980952Y-45104819D02*
X113885714Y-45104819D01*
X115266666Y-45104819D02*
X114695238Y-45104819D01*
X114980952Y-45104819D02*
X114980952Y-44104819D01*
X114980952Y-44104819D02*
X114885714Y-44247676D01*
X114885714Y-44247676D02*
X114790476Y-44342914D01*
X114790476Y-44342914D02*
X114695238Y-44390533D01*
X143341666Y-97319819D02*
X143008333Y-96843628D01*
X142770238Y-97319819D02*
X142770238Y-96319819D01*
X142770238Y-96319819D02*
X143151190Y-96319819D01*
X143151190Y-96319819D02*
X143246428Y-96367438D01*
X143246428Y-96367438D02*
X143294047Y-96415057D01*
X143294047Y-96415057D02*
X143341666Y-96510295D01*
X143341666Y-96510295D02*
X143341666Y-96653152D01*
X143341666Y-96653152D02*
X143294047Y-96748390D01*
X143294047Y-96748390D02*
X143246428Y-96796009D01*
X143246428Y-96796009D02*
X143151190Y-96843628D01*
X143151190Y-96843628D02*
X142770238Y-96843628D01*
X143770238Y-96796009D02*
X144103571Y-96796009D01*
X144246428Y-97319819D02*
X143770238Y-97319819D01*
X143770238Y-97319819D02*
X143770238Y-96319819D01*
X143770238Y-96319819D02*
X144246428Y-96319819D01*
X145008333Y-96796009D02*
X144675000Y-96796009D01*
X144675000Y-97319819D02*
X144675000Y-96319819D01*
X144675000Y-96319819D02*
X145151190Y-96319819D01*
X145675000Y-96319819D02*
X145675000Y-96557914D01*
X145436905Y-96462676D02*
X145675000Y-96557914D01*
X145675000Y-96557914D02*
X145913095Y-96462676D01*
X145532143Y-96748390D02*
X145675000Y-96557914D01*
X145675000Y-96557914D02*
X145817857Y-96748390D01*
X146436905Y-96319819D02*
X146436905Y-96557914D01*
X146198810Y-96462676D02*
X146436905Y-96557914D01*
X146436905Y-96557914D02*
X146675000Y-96462676D01*
X146294048Y-96748390D02*
X146436905Y-96557914D01*
X146436905Y-96557914D02*
X146579762Y-96748390D01*
X106666666Y-115604819D02*
X106333333Y-115128628D01*
X106095238Y-115604819D02*
X106095238Y-114604819D01*
X106095238Y-114604819D02*
X106476190Y-114604819D01*
X106476190Y-114604819D02*
X106571428Y-114652438D01*
X106571428Y-114652438D02*
X106619047Y-114700057D01*
X106619047Y-114700057D02*
X106666666Y-114795295D01*
X106666666Y-114795295D02*
X106666666Y-114938152D01*
X106666666Y-114938152D02*
X106619047Y-115033390D01*
X106619047Y-115033390D02*
X106571428Y-115081009D01*
X106571428Y-115081009D02*
X106476190Y-115128628D01*
X106476190Y-115128628D02*
X106095238Y-115128628D01*
X107095238Y-115081009D02*
X107428571Y-115081009D01*
X107571428Y-115604819D02*
X107095238Y-115604819D01*
X107095238Y-115604819D02*
X107095238Y-114604819D01*
X107095238Y-114604819D02*
X107571428Y-114604819D01*
X108333333Y-115081009D02*
X108000000Y-115081009D01*
X108000000Y-115604819D02*
X108000000Y-114604819D01*
X108000000Y-114604819D02*
X108476190Y-114604819D01*
X109000000Y-114604819D02*
X109000000Y-114842914D01*
X108761905Y-114747676D02*
X109000000Y-114842914D01*
X109000000Y-114842914D02*
X109238095Y-114747676D01*
X108857143Y-115033390D02*
X109000000Y-114842914D01*
X109000000Y-114842914D02*
X109142857Y-115033390D01*
X109761905Y-114604819D02*
X109761905Y-114842914D01*
X109523810Y-114747676D02*
X109761905Y-114842914D01*
X109761905Y-114842914D02*
X110000000Y-114747676D01*
X109619048Y-115033390D02*
X109761905Y-114842914D01*
X109761905Y-114842914D02*
X109904762Y-115033390D01*
X183379819Y-107333333D02*
X182903628Y-107666666D01*
X183379819Y-107904761D02*
X182379819Y-107904761D01*
X182379819Y-107904761D02*
X182379819Y-107523809D01*
X182379819Y-107523809D02*
X182427438Y-107428571D01*
X182427438Y-107428571D02*
X182475057Y-107380952D01*
X182475057Y-107380952D02*
X182570295Y-107333333D01*
X182570295Y-107333333D02*
X182713152Y-107333333D01*
X182713152Y-107333333D02*
X182808390Y-107380952D01*
X182808390Y-107380952D02*
X182856009Y-107428571D01*
X182856009Y-107428571D02*
X182903628Y-107523809D01*
X182903628Y-107523809D02*
X182903628Y-107904761D01*
X182856009Y-106904761D02*
X182856009Y-106571428D01*
X183379819Y-106428571D02*
X183379819Y-106904761D01*
X183379819Y-106904761D02*
X182379819Y-106904761D01*
X182379819Y-106904761D02*
X182379819Y-106428571D01*
X182856009Y-105666666D02*
X182856009Y-105999999D01*
X183379819Y-105999999D02*
X182379819Y-105999999D01*
X182379819Y-105999999D02*
X182379819Y-105523809D01*
X182379819Y-104999999D02*
X182617914Y-104999999D01*
X182522676Y-105238094D02*
X182617914Y-104999999D01*
X182617914Y-104999999D02*
X182522676Y-104761904D01*
X182808390Y-105142856D02*
X182617914Y-104999999D01*
X182617914Y-104999999D02*
X182808390Y-104857142D01*
X182379819Y-104238094D02*
X182617914Y-104238094D01*
X182522676Y-104476189D02*
X182617914Y-104238094D01*
X182617914Y-104238094D02*
X182522676Y-103999999D01*
X182808390Y-104380951D02*
X182617914Y-104238094D01*
X182617914Y-104238094D02*
X182808390Y-104095237D01*
%TO.C,R1*%
D11*
X135370000Y-87500000D02*
X134420000Y-87500000D01*
X129630000Y-87500000D02*
X130580000Y-87500000D01*
X130580000Y-86580000D02*
X134420000Y-86580000D01*
X134420000Y-88420000D01*
X130580000Y-88420000D01*
X130580000Y-86580000D01*
%TO.C,R2*%
X120080000Y-86580000D02*
X123920000Y-86580000D01*
X123920000Y-88420000D01*
X120080000Y-88420000D01*
X120080000Y-86580000D01*
X119130000Y-87500000D02*
X120080000Y-87500000D01*
X124870000Y-87500000D02*
X123920000Y-87500000D01*
%TO.C,R5*%
X158680000Y-72085000D02*
X157730000Y-72085000D01*
X152940000Y-72085000D02*
X153890000Y-72085000D01*
X153890000Y-71165000D02*
X157730000Y-71165000D01*
X157730000Y-73005000D01*
X153890000Y-73005000D01*
X153890000Y-71165000D01*
%TO.C,C2*%
X204134646Y-80000000D02*
G75*
G02*
X193894646Y-80000000I-5120000J0D01*
G01*
X193894646Y-80000000D02*
G75*
G02*
X204134646Y-80000000I5120000J0D01*
G01*
X204094646Y-79401000D02*
X204094646Y-80599000D01*
X204054646Y-79138000D02*
X204054646Y-80862000D01*
X204014646Y-78938000D02*
X204014646Y-81062000D01*
X203974646Y-78770000D02*
X203974646Y-81230000D01*
X203934646Y-78623000D02*
X203934646Y-81377000D01*
X203894646Y-78491000D02*
X203894646Y-81509000D01*
X203854646Y-78370000D02*
X203854646Y-81630000D01*
X203814646Y-78258000D02*
X203814646Y-81742000D01*
X203774646Y-78154000D02*
X203774646Y-81846000D01*
X203734646Y-78056000D02*
X203734646Y-81944000D01*
X203694646Y-77963000D02*
X203694646Y-82037000D01*
X203654646Y-77876000D02*
X203654646Y-82124000D01*
X203614646Y-77792000D02*
X203614646Y-82208000D01*
X203574646Y-77712000D02*
X203574646Y-82288000D01*
X203534646Y-77635000D02*
X203534646Y-82365000D01*
X203494646Y-77561000D02*
X203494646Y-82439000D01*
X203454646Y-77490000D02*
X203454646Y-82510000D01*
X203414646Y-77422000D02*
X203414646Y-82578000D01*
X203374646Y-77356000D02*
X203374646Y-82644000D01*
X203334646Y-77292000D02*
X203334646Y-82708000D01*
X203294646Y-77230000D02*
X203294646Y-82770000D01*
X203254646Y-77170000D02*
X203254646Y-82830000D01*
X203214646Y-77112000D02*
X203214646Y-82888000D01*
X203174646Y-77055000D02*
X203174646Y-82945000D01*
X203134646Y-77000000D02*
X203134646Y-83000000D01*
X203094646Y-76947000D02*
X203094646Y-83053000D01*
X203054646Y-76895000D02*
X203054646Y-83105000D01*
X203014646Y-76844000D02*
X203014646Y-83156000D01*
X202974646Y-76795000D02*
X202974646Y-83205000D01*
X202934646Y-76746000D02*
X202934646Y-83254000D01*
X202894646Y-76699000D02*
X202894646Y-83301000D01*
X202854646Y-76653000D02*
X202854646Y-83347000D01*
X202814646Y-76609000D02*
X202814646Y-83391000D01*
X202774646Y-76565000D02*
X202774646Y-83435000D01*
X202734646Y-76522000D02*
X202734646Y-83478000D01*
X202694646Y-76480000D02*
X202694646Y-83520000D01*
X202654646Y-76439000D02*
X202654646Y-83561000D01*
X202614646Y-76399000D02*
X202614646Y-83601000D01*
X202574646Y-76360000D02*
X202574646Y-83640000D01*
X202534646Y-76322000D02*
X202534646Y-83678000D01*
X202494646Y-76284000D02*
X202494646Y-83716000D01*
X202454646Y-76248000D02*
X202454646Y-83752000D01*
X202414646Y-76212000D02*
X202414646Y-83788000D01*
X202374646Y-76177000D02*
X202374646Y-83823000D01*
X202334646Y-76142000D02*
X202334646Y-83858000D01*
X202294646Y-76109000D02*
X202294646Y-83891000D01*
X202254646Y-76076000D02*
X202254646Y-83924000D01*
X202214646Y-76043000D02*
X202214646Y-83957000D01*
X202174646Y-76012000D02*
X202174646Y-83988000D01*
X202134646Y-75980000D02*
X202134646Y-84020000D01*
X202094646Y-75950000D02*
X202094646Y-84050000D01*
X202054646Y-75920000D02*
X202054646Y-84080000D01*
X202014646Y-75891000D02*
X202014646Y-84109000D01*
X201974646Y-75862000D02*
X201974646Y-84138000D01*
X201934646Y-75834000D02*
X201934646Y-84166000D01*
X201894646Y-75807000D02*
X201894646Y-84193000D01*
X201854646Y-75780000D02*
X201854646Y-84220000D01*
X201814646Y-75753000D02*
X201814646Y-84247000D01*
X201774646Y-75728000D02*
X201774646Y-84272000D01*
X201734646Y-75702000D02*
X201734646Y-84298000D01*
X201694646Y-75677000D02*
X201694646Y-84323000D01*
X201654646Y-75653000D02*
X201654646Y-84347000D01*
X201614646Y-75629000D02*
X201614646Y-84371000D01*
X201574646Y-75606000D02*
X201574646Y-84394000D01*
X201534646Y-75583000D02*
X201534646Y-84417000D01*
X201494646Y-75561000D02*
X201494646Y-84439000D01*
X201454646Y-75539000D02*
X201454646Y-84461000D01*
X201414646Y-75517000D02*
X201414646Y-84483000D01*
X201374646Y-75496000D02*
X201374646Y-84504000D01*
X201334646Y-75476000D02*
X201334646Y-84524000D01*
X201294646Y-81040000D02*
X201294646Y-84544000D01*
X201294646Y-75456000D02*
X201294646Y-78960000D01*
X201254646Y-81040000D02*
X201254646Y-84564000D01*
X201254646Y-75436000D02*
X201254646Y-78960000D01*
X201214646Y-81040000D02*
X201214646Y-84583000D01*
X201214646Y-75417000D02*
X201214646Y-78960000D01*
X201174646Y-81040000D02*
X201174646Y-84602000D01*
X201174646Y-75398000D02*
X201174646Y-78960000D01*
X201134646Y-81040000D02*
X201134646Y-84620000D01*
X201134646Y-75380000D02*
X201134646Y-78960000D01*
X201094646Y-81040000D02*
X201094646Y-84638000D01*
X201094646Y-75362000D02*
X201094646Y-78960000D01*
X201054646Y-81040000D02*
X201054646Y-84656000D01*
X201054646Y-75344000D02*
X201054646Y-78960000D01*
X201014646Y-81040000D02*
X201014646Y-84673000D01*
X201014646Y-75327000D02*
X201014646Y-78960000D01*
X200974646Y-81040000D02*
X200974646Y-84690000D01*
X200974646Y-75310000D02*
X200974646Y-78960000D01*
X200934646Y-81040000D02*
X200934646Y-84706000D01*
X200934646Y-75294000D02*
X200934646Y-78960000D01*
X200894646Y-81040000D02*
X200894646Y-84722000D01*
X200894646Y-75278000D02*
X200894646Y-78960000D01*
X200854646Y-81040000D02*
X200854646Y-84738000D01*
X200854646Y-75262000D02*
X200854646Y-78960000D01*
X200814646Y-81040000D02*
X200814646Y-84753000D01*
X200814646Y-75247000D02*
X200814646Y-78960000D01*
X200774646Y-81040000D02*
X200774646Y-84768000D01*
X200774646Y-75232000D02*
X200774646Y-78960000D01*
X200734646Y-81040000D02*
X200734646Y-84782000D01*
X200734646Y-75218000D02*
X200734646Y-78960000D01*
X200694646Y-81040000D02*
X200694646Y-84797000D01*
X200694646Y-75203000D02*
X200694646Y-78960000D01*
X200654646Y-81040000D02*
X200654646Y-84810000D01*
X200654646Y-75190000D02*
X200654646Y-78960000D01*
X200614646Y-81040000D02*
X200614646Y-84824000D01*
X200614646Y-75176000D02*
X200614646Y-78960000D01*
X200574646Y-81040000D02*
X200574646Y-84837000D01*
X200574646Y-75163000D02*
X200574646Y-78960000D01*
X200534646Y-81040000D02*
X200534646Y-84849000D01*
X200534646Y-75151000D02*
X200534646Y-78960000D01*
X200494646Y-81040000D02*
X200494646Y-84861000D01*
X200494646Y-75139000D02*
X200494646Y-78960000D01*
X200454646Y-81040000D02*
X200454646Y-84873000D01*
X200454646Y-75127000D02*
X200454646Y-78960000D01*
X200414646Y-81040000D02*
X200414646Y-84885000D01*
X200414646Y-75115000D02*
X200414646Y-78960000D01*
X200374646Y-81040000D02*
X200374646Y-84896000D01*
X200374646Y-75104000D02*
X200374646Y-78960000D01*
X200334646Y-81040000D02*
X200334646Y-84907000D01*
X200334646Y-75093000D02*
X200334646Y-78960000D01*
X200294646Y-81040000D02*
X200294646Y-84917000D01*
X200294646Y-75083000D02*
X200294646Y-78960000D01*
X200254646Y-81040000D02*
X200254646Y-84928000D01*
X200254646Y-75072000D02*
X200254646Y-78960000D01*
X200214646Y-81040000D02*
X200214646Y-84937000D01*
X200214646Y-75063000D02*
X200214646Y-78960000D01*
X200174646Y-81040000D02*
X200174646Y-84947000D01*
X200174646Y-75053000D02*
X200174646Y-78960000D01*
X200134646Y-81040000D02*
X200134646Y-84956000D01*
X200134646Y-75044000D02*
X200134646Y-78960000D01*
X200094646Y-81040000D02*
X200094646Y-84965000D01*
X200094646Y-75035000D02*
X200094646Y-78960000D01*
X200054646Y-81040000D02*
X200054646Y-84973000D01*
X200054646Y-75027000D02*
X200054646Y-78960000D01*
X200014646Y-81040000D02*
X200014646Y-84981000D01*
X200014646Y-75019000D02*
X200014646Y-78960000D01*
X199974646Y-81040000D02*
X199974646Y-84989000D01*
X199974646Y-75011000D02*
X199974646Y-78960000D01*
X199934646Y-81040000D02*
X199934646Y-84997000D01*
X199934646Y-75003000D02*
X199934646Y-78960000D01*
X199894646Y-81040000D02*
X199894646Y-85004000D01*
X199894646Y-74996000D02*
X199894646Y-78960000D01*
X199854646Y-81040000D02*
X199854646Y-85011000D01*
X199854646Y-74989000D02*
X199854646Y-78960000D01*
X199814646Y-81040000D02*
X199814646Y-85017000D01*
X199814646Y-74983000D02*
X199814646Y-78960000D01*
X199774646Y-81040000D02*
X199774646Y-85023000D01*
X199774646Y-74977000D02*
X199774646Y-78960000D01*
X199734646Y-81040000D02*
X199734646Y-85029000D01*
X199734646Y-74971000D02*
X199734646Y-78960000D01*
X199694646Y-81040000D02*
X199694646Y-85035000D01*
X199694646Y-74965000D02*
X199694646Y-78960000D01*
X199654646Y-81040000D02*
X199654646Y-85040000D01*
X199654646Y-74960000D02*
X199654646Y-78960000D01*
X199614646Y-81040000D02*
X199614646Y-85045000D01*
X199614646Y-74955000D02*
X199614646Y-78960000D01*
X199574646Y-81040000D02*
X199574646Y-85049000D01*
X199574646Y-74951000D02*
X199574646Y-78960000D01*
X199534646Y-81040000D02*
X199534646Y-85054000D01*
X199534646Y-74946000D02*
X199534646Y-78960000D01*
X199494646Y-81040000D02*
X199494646Y-85057000D01*
X199494646Y-74943000D02*
X199494646Y-78960000D01*
X199454646Y-81040000D02*
X199454646Y-85061000D01*
X199454646Y-74939000D02*
X199454646Y-78960000D01*
X199414646Y-81040000D02*
X199414646Y-85064000D01*
X199414646Y-74936000D02*
X199414646Y-78960000D01*
X199374646Y-81040000D02*
X199374646Y-85067000D01*
X199374646Y-74933000D02*
X199374646Y-78960000D01*
X199334646Y-81040000D02*
X199334646Y-85070000D01*
X199334646Y-74930000D02*
X199334646Y-78960000D01*
X199294646Y-81040000D02*
X199294646Y-85072000D01*
X199294646Y-74928000D02*
X199294646Y-78960000D01*
X199254646Y-81040000D02*
X199254646Y-85074000D01*
X199254646Y-74926000D02*
X199254646Y-78960000D01*
X199214646Y-74924000D02*
X199214646Y-85076000D01*
X199174646Y-74923000D02*
X199174646Y-85077000D01*
X199134646Y-74921000D02*
X199134646Y-85079000D01*
X199094646Y-74921000D02*
X199094646Y-85079000D01*
X199054646Y-74920000D02*
X199054646Y-85080000D01*
X199014646Y-74920000D02*
X199014646Y-85080000D01*
X194035000Y-76625000D02*
X194035000Y-77625000D01*
X193535000Y-77125000D02*
X194535000Y-77125000D01*
%TO.C,C3*%
X177752323Y-80500000D02*
G75*
G02*
X167512323Y-80500000I-5120000J0D01*
G01*
X167512323Y-80500000D02*
G75*
G02*
X177752323Y-80500000I5120000J0D01*
G01*
X177712323Y-79901000D02*
X177712323Y-81099000D01*
X177672323Y-79638000D02*
X177672323Y-81362000D01*
X177632323Y-79438000D02*
X177632323Y-81562000D01*
X177592323Y-79270000D02*
X177592323Y-81730000D01*
X177552323Y-79123000D02*
X177552323Y-81877000D01*
X177512323Y-78991000D02*
X177512323Y-82009000D01*
X177472323Y-78870000D02*
X177472323Y-82130000D01*
X177432323Y-78758000D02*
X177432323Y-82242000D01*
X177392323Y-78654000D02*
X177392323Y-82346000D01*
X177352323Y-78556000D02*
X177352323Y-82444000D01*
X177312323Y-78463000D02*
X177312323Y-82537000D01*
X177272323Y-78376000D02*
X177272323Y-82624000D01*
X177232323Y-78292000D02*
X177232323Y-82708000D01*
X177192323Y-78212000D02*
X177192323Y-82788000D01*
X177152323Y-78135000D02*
X177152323Y-82865000D01*
X177112323Y-78061000D02*
X177112323Y-82939000D01*
X177072323Y-77990000D02*
X177072323Y-83010000D01*
X177032323Y-77922000D02*
X177032323Y-83078000D01*
X176992323Y-77856000D02*
X176992323Y-83144000D01*
X176952323Y-77792000D02*
X176952323Y-83208000D01*
X176912323Y-77730000D02*
X176912323Y-83270000D01*
X176872323Y-77670000D02*
X176872323Y-83330000D01*
X176832323Y-77612000D02*
X176832323Y-83388000D01*
X176792323Y-77555000D02*
X176792323Y-83445000D01*
X176752323Y-77500000D02*
X176752323Y-83500000D01*
X176712323Y-77447000D02*
X176712323Y-83553000D01*
X176672323Y-77395000D02*
X176672323Y-83605000D01*
X176632323Y-77344000D02*
X176632323Y-83656000D01*
X176592323Y-77295000D02*
X176592323Y-83705000D01*
X176552323Y-77246000D02*
X176552323Y-83754000D01*
X176512323Y-77199000D02*
X176512323Y-83801000D01*
X176472323Y-77153000D02*
X176472323Y-83847000D01*
X176432323Y-77109000D02*
X176432323Y-83891000D01*
X176392323Y-77065000D02*
X176392323Y-83935000D01*
X176352323Y-77022000D02*
X176352323Y-83978000D01*
X176312323Y-76980000D02*
X176312323Y-84020000D01*
X176272323Y-76939000D02*
X176272323Y-84061000D01*
X176232323Y-76899000D02*
X176232323Y-84101000D01*
X176192323Y-76860000D02*
X176192323Y-84140000D01*
X176152323Y-76822000D02*
X176152323Y-84178000D01*
X176112323Y-76784000D02*
X176112323Y-84216000D01*
X176072323Y-76748000D02*
X176072323Y-84252000D01*
X176032323Y-76712000D02*
X176032323Y-84288000D01*
X175992323Y-76677000D02*
X175992323Y-84323000D01*
X175952323Y-76642000D02*
X175952323Y-84358000D01*
X175912323Y-76609000D02*
X175912323Y-84391000D01*
X175872323Y-76576000D02*
X175872323Y-84424000D01*
X175832323Y-76543000D02*
X175832323Y-84457000D01*
X175792323Y-76512000D02*
X175792323Y-84488000D01*
X175752323Y-76480000D02*
X175752323Y-84520000D01*
X175712323Y-76450000D02*
X175712323Y-84550000D01*
X175672323Y-76420000D02*
X175672323Y-84580000D01*
X175632323Y-76391000D02*
X175632323Y-84609000D01*
X175592323Y-76362000D02*
X175592323Y-84638000D01*
X175552323Y-76334000D02*
X175552323Y-84666000D01*
X175512323Y-76307000D02*
X175512323Y-84693000D01*
X175472323Y-76280000D02*
X175472323Y-84720000D01*
X175432323Y-76253000D02*
X175432323Y-84747000D01*
X175392323Y-76228000D02*
X175392323Y-84772000D01*
X175352323Y-76202000D02*
X175352323Y-84798000D01*
X175312323Y-76177000D02*
X175312323Y-84823000D01*
X175272323Y-76153000D02*
X175272323Y-84847000D01*
X175232323Y-76129000D02*
X175232323Y-84871000D01*
X175192323Y-76106000D02*
X175192323Y-84894000D01*
X175152323Y-76083000D02*
X175152323Y-84917000D01*
X175112323Y-76061000D02*
X175112323Y-84939000D01*
X175072323Y-76039000D02*
X175072323Y-84961000D01*
X175032323Y-76017000D02*
X175032323Y-84983000D01*
X174992323Y-75996000D02*
X174992323Y-85004000D01*
X174952323Y-75976000D02*
X174952323Y-85024000D01*
X174912323Y-81540000D02*
X174912323Y-85044000D01*
X174912323Y-75956000D02*
X174912323Y-79460000D01*
X174872323Y-81540000D02*
X174872323Y-85064000D01*
X174872323Y-75936000D02*
X174872323Y-79460000D01*
X174832323Y-81540000D02*
X174832323Y-85083000D01*
X174832323Y-75917000D02*
X174832323Y-79460000D01*
X174792323Y-81540000D02*
X174792323Y-85102000D01*
X174792323Y-75898000D02*
X174792323Y-79460000D01*
X174752323Y-81540000D02*
X174752323Y-85120000D01*
X174752323Y-75880000D02*
X174752323Y-79460000D01*
X174712323Y-81540000D02*
X174712323Y-85138000D01*
X174712323Y-75862000D02*
X174712323Y-79460000D01*
X174672323Y-81540000D02*
X174672323Y-85156000D01*
X174672323Y-75844000D02*
X174672323Y-79460000D01*
X174632323Y-81540000D02*
X174632323Y-85173000D01*
X174632323Y-75827000D02*
X174632323Y-79460000D01*
X174592323Y-81540000D02*
X174592323Y-85190000D01*
X174592323Y-75810000D02*
X174592323Y-79460000D01*
X174552323Y-81540000D02*
X174552323Y-85206000D01*
X174552323Y-75794000D02*
X174552323Y-79460000D01*
X174512323Y-81540000D02*
X174512323Y-85222000D01*
X174512323Y-75778000D02*
X174512323Y-79460000D01*
X174472323Y-81540000D02*
X174472323Y-85238000D01*
X174472323Y-75762000D02*
X174472323Y-79460000D01*
X174432323Y-81540000D02*
X174432323Y-85253000D01*
X174432323Y-75747000D02*
X174432323Y-79460000D01*
X174392323Y-81540000D02*
X174392323Y-85268000D01*
X174392323Y-75732000D02*
X174392323Y-79460000D01*
X174352323Y-81540000D02*
X174352323Y-85282000D01*
X174352323Y-75718000D02*
X174352323Y-79460000D01*
X174312323Y-81540000D02*
X174312323Y-85297000D01*
X174312323Y-75703000D02*
X174312323Y-79460000D01*
X174272323Y-81540000D02*
X174272323Y-85310000D01*
X174272323Y-75690000D02*
X174272323Y-79460000D01*
X174232323Y-81540000D02*
X174232323Y-85324000D01*
X174232323Y-75676000D02*
X174232323Y-79460000D01*
X174192323Y-81540000D02*
X174192323Y-85337000D01*
X174192323Y-75663000D02*
X174192323Y-79460000D01*
X174152323Y-81540000D02*
X174152323Y-85349000D01*
X174152323Y-75651000D02*
X174152323Y-79460000D01*
X174112323Y-81540000D02*
X174112323Y-85361000D01*
X174112323Y-75639000D02*
X174112323Y-79460000D01*
X174072323Y-81540000D02*
X174072323Y-85373000D01*
X174072323Y-75627000D02*
X174072323Y-79460000D01*
X174032323Y-81540000D02*
X174032323Y-85385000D01*
X174032323Y-75615000D02*
X174032323Y-79460000D01*
X173992323Y-81540000D02*
X173992323Y-85396000D01*
X173992323Y-75604000D02*
X173992323Y-79460000D01*
X173952323Y-81540000D02*
X173952323Y-85407000D01*
X173952323Y-75593000D02*
X173952323Y-79460000D01*
X173912323Y-81540000D02*
X173912323Y-85417000D01*
X173912323Y-75583000D02*
X173912323Y-79460000D01*
X173872323Y-81540000D02*
X173872323Y-85428000D01*
X173872323Y-75572000D02*
X173872323Y-79460000D01*
X173832323Y-81540000D02*
X173832323Y-85437000D01*
X173832323Y-75563000D02*
X173832323Y-79460000D01*
X173792323Y-81540000D02*
X173792323Y-85447000D01*
X173792323Y-75553000D02*
X173792323Y-79460000D01*
X173752323Y-81540000D02*
X173752323Y-85456000D01*
X173752323Y-75544000D02*
X173752323Y-79460000D01*
X173712323Y-81540000D02*
X173712323Y-85465000D01*
X173712323Y-75535000D02*
X173712323Y-79460000D01*
X173672323Y-81540000D02*
X173672323Y-85473000D01*
X173672323Y-75527000D02*
X173672323Y-79460000D01*
X173632323Y-81540000D02*
X173632323Y-85481000D01*
X173632323Y-75519000D02*
X173632323Y-79460000D01*
X173592323Y-81540000D02*
X173592323Y-85489000D01*
X173592323Y-75511000D02*
X173592323Y-79460000D01*
X173552323Y-81540000D02*
X173552323Y-85497000D01*
X173552323Y-75503000D02*
X173552323Y-79460000D01*
X173512323Y-81540000D02*
X173512323Y-85504000D01*
X173512323Y-75496000D02*
X173512323Y-79460000D01*
X173472323Y-81540000D02*
X173472323Y-85511000D01*
X173472323Y-75489000D02*
X173472323Y-79460000D01*
X173432323Y-81540000D02*
X173432323Y-85517000D01*
X173432323Y-75483000D02*
X173432323Y-79460000D01*
X173392323Y-81540000D02*
X173392323Y-85523000D01*
X173392323Y-75477000D02*
X173392323Y-79460000D01*
X173352323Y-81540000D02*
X173352323Y-85529000D01*
X173352323Y-75471000D02*
X173352323Y-79460000D01*
X173312323Y-81540000D02*
X173312323Y-85535000D01*
X173312323Y-75465000D02*
X173312323Y-79460000D01*
X173272323Y-81540000D02*
X173272323Y-85540000D01*
X173272323Y-75460000D02*
X173272323Y-79460000D01*
X173232323Y-81540000D02*
X173232323Y-85545000D01*
X173232323Y-75455000D02*
X173232323Y-79460000D01*
X173192323Y-81540000D02*
X173192323Y-85549000D01*
X173192323Y-75451000D02*
X173192323Y-79460000D01*
X173152323Y-81540000D02*
X173152323Y-85554000D01*
X173152323Y-75446000D02*
X173152323Y-79460000D01*
X173112323Y-81540000D02*
X173112323Y-85557000D01*
X173112323Y-75443000D02*
X173112323Y-79460000D01*
X173072323Y-81540000D02*
X173072323Y-85561000D01*
X173072323Y-75439000D02*
X173072323Y-79460000D01*
X173032323Y-81540000D02*
X173032323Y-85564000D01*
X173032323Y-75436000D02*
X173032323Y-79460000D01*
X172992323Y-81540000D02*
X172992323Y-85567000D01*
X172992323Y-75433000D02*
X172992323Y-79460000D01*
X172952323Y-81540000D02*
X172952323Y-85570000D01*
X172952323Y-75430000D02*
X172952323Y-79460000D01*
X172912323Y-81540000D02*
X172912323Y-85572000D01*
X172912323Y-75428000D02*
X172912323Y-79460000D01*
X172872323Y-81540000D02*
X172872323Y-85574000D01*
X172872323Y-75426000D02*
X172872323Y-79460000D01*
X172832323Y-75424000D02*
X172832323Y-85576000D01*
X172792323Y-75423000D02*
X172792323Y-85577000D01*
X172752323Y-75421000D02*
X172752323Y-85579000D01*
X172712323Y-75421000D02*
X172712323Y-85579000D01*
X172672323Y-75420000D02*
X172672323Y-85580000D01*
X172632323Y-75420000D02*
X172632323Y-85580000D01*
X167652677Y-77125000D02*
X167652677Y-78125000D01*
X167152677Y-77625000D02*
X168152677Y-77625000D01*
%TO.C,C4*%
X165370000Y-80500000D02*
G75*
G02*
X155130000Y-80500000I-5120000J0D01*
G01*
X155130000Y-80500000D02*
G75*
G02*
X165370000Y-80500000I5120000J0D01*
G01*
X165330000Y-79901000D02*
X165330000Y-81099000D01*
X165290000Y-79638000D02*
X165290000Y-81362000D01*
X165250000Y-79438000D02*
X165250000Y-81562000D01*
X165210000Y-79270000D02*
X165210000Y-81730000D01*
X165170000Y-79123000D02*
X165170000Y-81877000D01*
X165130000Y-78991000D02*
X165130000Y-82009000D01*
X165090000Y-78870000D02*
X165090000Y-82130000D01*
X165050000Y-78758000D02*
X165050000Y-82242000D01*
X165010000Y-78654000D02*
X165010000Y-82346000D01*
X164970000Y-78556000D02*
X164970000Y-82444000D01*
X164930000Y-78463000D02*
X164930000Y-82537000D01*
X164890000Y-78376000D02*
X164890000Y-82624000D01*
X164850000Y-78292000D02*
X164850000Y-82708000D01*
X164810000Y-78212000D02*
X164810000Y-82788000D01*
X164770000Y-78135000D02*
X164770000Y-82865000D01*
X164730000Y-78061000D02*
X164730000Y-82939000D01*
X164690000Y-77990000D02*
X164690000Y-83010000D01*
X164650000Y-77922000D02*
X164650000Y-83078000D01*
X164610000Y-77856000D02*
X164610000Y-83144000D01*
X164570000Y-77792000D02*
X164570000Y-83208000D01*
X164530000Y-77730000D02*
X164530000Y-83270000D01*
X164490000Y-77670000D02*
X164490000Y-83330000D01*
X164450000Y-77612000D02*
X164450000Y-83388000D01*
X164410000Y-77555000D02*
X164410000Y-83445000D01*
X164370000Y-77500000D02*
X164370000Y-83500000D01*
X164330000Y-77447000D02*
X164330000Y-83553000D01*
X164290000Y-77395000D02*
X164290000Y-83605000D01*
X164250000Y-77344000D02*
X164250000Y-83656000D01*
X164210000Y-77295000D02*
X164210000Y-83705000D01*
X164170000Y-77246000D02*
X164170000Y-83754000D01*
X164130000Y-77199000D02*
X164130000Y-83801000D01*
X164090000Y-77153000D02*
X164090000Y-83847000D01*
X164050000Y-77109000D02*
X164050000Y-83891000D01*
X164010000Y-77065000D02*
X164010000Y-83935000D01*
X163970000Y-77022000D02*
X163970000Y-83978000D01*
X163930000Y-76980000D02*
X163930000Y-84020000D01*
X163890000Y-76939000D02*
X163890000Y-84061000D01*
X163850000Y-76899000D02*
X163850000Y-84101000D01*
X163810000Y-76860000D02*
X163810000Y-84140000D01*
X163770000Y-76822000D02*
X163770000Y-84178000D01*
X163730000Y-76784000D02*
X163730000Y-84216000D01*
X163690000Y-76748000D02*
X163690000Y-84252000D01*
X163650000Y-76712000D02*
X163650000Y-84288000D01*
X163610000Y-76677000D02*
X163610000Y-84323000D01*
X163570000Y-76642000D02*
X163570000Y-84358000D01*
X163530000Y-76609000D02*
X163530000Y-84391000D01*
X163490000Y-76576000D02*
X163490000Y-84424000D01*
X163450000Y-76543000D02*
X163450000Y-84457000D01*
X163410000Y-76512000D02*
X163410000Y-84488000D01*
X163370000Y-76480000D02*
X163370000Y-84520000D01*
X163330000Y-76450000D02*
X163330000Y-84550000D01*
X163290000Y-76420000D02*
X163290000Y-84580000D01*
X163250000Y-76391000D02*
X163250000Y-84609000D01*
X163210000Y-76362000D02*
X163210000Y-84638000D01*
X163170000Y-76334000D02*
X163170000Y-84666000D01*
X163130000Y-76307000D02*
X163130000Y-84693000D01*
X163090000Y-76280000D02*
X163090000Y-84720000D01*
X163050000Y-76253000D02*
X163050000Y-84747000D01*
X163010000Y-76228000D02*
X163010000Y-84772000D01*
X162970000Y-76202000D02*
X162970000Y-84798000D01*
X162930000Y-76177000D02*
X162930000Y-84823000D01*
X162890000Y-76153000D02*
X162890000Y-84847000D01*
X162850000Y-76129000D02*
X162850000Y-84871000D01*
X162810000Y-76106000D02*
X162810000Y-84894000D01*
X162770000Y-76083000D02*
X162770000Y-84917000D01*
X162730000Y-76061000D02*
X162730000Y-84939000D01*
X162690000Y-76039000D02*
X162690000Y-84961000D01*
X162650000Y-76017000D02*
X162650000Y-84983000D01*
X162610000Y-75996000D02*
X162610000Y-85004000D01*
X162570000Y-75976000D02*
X162570000Y-85024000D01*
X162530000Y-81540000D02*
X162530000Y-85044000D01*
X162530000Y-75956000D02*
X162530000Y-79460000D01*
X162490000Y-81540000D02*
X162490000Y-85064000D01*
X162490000Y-75936000D02*
X162490000Y-79460000D01*
X162450000Y-81540000D02*
X162450000Y-85083000D01*
X162450000Y-75917000D02*
X162450000Y-79460000D01*
X162410000Y-81540000D02*
X162410000Y-85102000D01*
X162410000Y-75898000D02*
X162410000Y-79460000D01*
X162370000Y-81540000D02*
X162370000Y-85120000D01*
X162370000Y-75880000D02*
X162370000Y-79460000D01*
X162330000Y-81540000D02*
X162330000Y-85138000D01*
X162330000Y-75862000D02*
X162330000Y-79460000D01*
X162290000Y-81540000D02*
X162290000Y-85156000D01*
X162290000Y-75844000D02*
X162290000Y-79460000D01*
X162250000Y-81540000D02*
X162250000Y-85173000D01*
X162250000Y-75827000D02*
X162250000Y-79460000D01*
X162210000Y-81540000D02*
X162210000Y-85190000D01*
X162210000Y-75810000D02*
X162210000Y-79460000D01*
X162170000Y-81540000D02*
X162170000Y-85206000D01*
X162170000Y-75794000D02*
X162170000Y-79460000D01*
X162130000Y-81540000D02*
X162130000Y-85222000D01*
X162130000Y-75778000D02*
X162130000Y-79460000D01*
X162090000Y-81540000D02*
X162090000Y-85238000D01*
X162090000Y-75762000D02*
X162090000Y-79460000D01*
X162050000Y-81540000D02*
X162050000Y-85253000D01*
X162050000Y-75747000D02*
X162050000Y-79460000D01*
X162010000Y-81540000D02*
X162010000Y-85268000D01*
X162010000Y-75732000D02*
X162010000Y-79460000D01*
X161970000Y-81540000D02*
X161970000Y-85282000D01*
X161970000Y-75718000D02*
X161970000Y-79460000D01*
X161930000Y-81540000D02*
X161930000Y-85297000D01*
X161930000Y-75703000D02*
X161930000Y-79460000D01*
X161890000Y-81540000D02*
X161890000Y-85310000D01*
X161890000Y-75690000D02*
X161890000Y-79460000D01*
X161850000Y-81540000D02*
X161850000Y-85324000D01*
X161850000Y-75676000D02*
X161850000Y-79460000D01*
X161810000Y-81540000D02*
X161810000Y-85337000D01*
X161810000Y-75663000D02*
X161810000Y-79460000D01*
X161770000Y-81540000D02*
X161770000Y-85349000D01*
X161770000Y-75651000D02*
X161770000Y-79460000D01*
X161730000Y-81540000D02*
X161730000Y-85361000D01*
X161730000Y-75639000D02*
X161730000Y-79460000D01*
X161690000Y-81540000D02*
X161690000Y-85373000D01*
X161690000Y-75627000D02*
X161690000Y-79460000D01*
X161650000Y-81540000D02*
X161650000Y-85385000D01*
X161650000Y-75615000D02*
X161650000Y-79460000D01*
X161610000Y-81540000D02*
X161610000Y-85396000D01*
X161610000Y-75604000D02*
X161610000Y-79460000D01*
X161570000Y-81540000D02*
X161570000Y-85407000D01*
X161570000Y-75593000D02*
X161570000Y-79460000D01*
X161530000Y-81540000D02*
X161530000Y-85417000D01*
X161530000Y-75583000D02*
X161530000Y-79460000D01*
X161490000Y-81540000D02*
X161490000Y-85428000D01*
X161490000Y-75572000D02*
X161490000Y-79460000D01*
X161450000Y-81540000D02*
X161450000Y-85437000D01*
X161450000Y-75563000D02*
X161450000Y-79460000D01*
X161410000Y-81540000D02*
X161410000Y-85447000D01*
X161410000Y-75553000D02*
X161410000Y-79460000D01*
X161370000Y-81540000D02*
X161370000Y-85456000D01*
X161370000Y-75544000D02*
X161370000Y-79460000D01*
X161330000Y-81540000D02*
X161330000Y-85465000D01*
X161330000Y-75535000D02*
X161330000Y-79460000D01*
X161290000Y-81540000D02*
X161290000Y-85473000D01*
X161290000Y-75527000D02*
X161290000Y-79460000D01*
X161250000Y-81540000D02*
X161250000Y-85481000D01*
X161250000Y-75519000D02*
X161250000Y-79460000D01*
X161210000Y-81540000D02*
X161210000Y-85489000D01*
X161210000Y-75511000D02*
X161210000Y-79460000D01*
X161170000Y-81540000D02*
X161170000Y-85497000D01*
X161170000Y-75503000D02*
X161170000Y-79460000D01*
X161130000Y-81540000D02*
X161130000Y-85504000D01*
X161130000Y-75496000D02*
X161130000Y-79460000D01*
X161090000Y-81540000D02*
X161090000Y-85511000D01*
X161090000Y-75489000D02*
X161090000Y-79460000D01*
X161050000Y-81540000D02*
X161050000Y-85517000D01*
X161050000Y-75483000D02*
X161050000Y-79460000D01*
X161010000Y-81540000D02*
X161010000Y-85523000D01*
X161010000Y-75477000D02*
X161010000Y-79460000D01*
X160970000Y-81540000D02*
X160970000Y-85529000D01*
X160970000Y-75471000D02*
X160970000Y-79460000D01*
X160930000Y-81540000D02*
X160930000Y-85535000D01*
X160930000Y-75465000D02*
X160930000Y-79460000D01*
X160890000Y-81540000D02*
X160890000Y-85540000D01*
X160890000Y-75460000D02*
X160890000Y-79460000D01*
X160850000Y-81540000D02*
X160850000Y-85545000D01*
X160850000Y-75455000D02*
X160850000Y-79460000D01*
X160810000Y-81540000D02*
X160810000Y-85549000D01*
X160810000Y-75451000D02*
X160810000Y-79460000D01*
X160770000Y-81540000D02*
X160770000Y-85554000D01*
X160770000Y-75446000D02*
X160770000Y-79460000D01*
X160730000Y-81540000D02*
X160730000Y-85557000D01*
X160730000Y-75443000D02*
X160730000Y-79460000D01*
X160690000Y-81540000D02*
X160690000Y-85561000D01*
X160690000Y-75439000D02*
X160690000Y-79460000D01*
X160650000Y-81540000D02*
X160650000Y-85564000D01*
X160650000Y-75436000D02*
X160650000Y-79460000D01*
X160610000Y-81540000D02*
X160610000Y-85567000D01*
X160610000Y-75433000D02*
X160610000Y-79460000D01*
X160570000Y-81540000D02*
X160570000Y-85570000D01*
X160570000Y-75430000D02*
X160570000Y-79460000D01*
X160530000Y-81540000D02*
X160530000Y-85572000D01*
X160530000Y-75428000D02*
X160530000Y-79460000D01*
X160490000Y-81540000D02*
X160490000Y-85574000D01*
X160490000Y-75426000D02*
X160490000Y-79460000D01*
X160450000Y-75424000D02*
X160450000Y-85576000D01*
X160410000Y-75423000D02*
X160410000Y-85577000D01*
X160370000Y-75421000D02*
X160370000Y-85579000D01*
X160330000Y-75421000D02*
X160330000Y-85579000D01*
X160290000Y-75420000D02*
X160290000Y-85580000D01*
X160250000Y-75420000D02*
X160250000Y-85580000D01*
X155270354Y-77125000D02*
X155270354Y-78125000D01*
X154770354Y-77625000D02*
X155770354Y-77625000D01*
%TO.C,C5*%
X189252323Y-80500000D02*
G75*
G02*
X179012323Y-80500000I-5120000J0D01*
G01*
X179012323Y-80500000D02*
G75*
G02*
X189252323Y-80500000I5120000J0D01*
G01*
X189212323Y-79901000D02*
X189212323Y-81099000D01*
X189172323Y-79638000D02*
X189172323Y-81362000D01*
X189132323Y-79438000D02*
X189132323Y-81562000D01*
X189092323Y-79270000D02*
X189092323Y-81730000D01*
X189052323Y-79123000D02*
X189052323Y-81877000D01*
X189012323Y-78991000D02*
X189012323Y-82009000D01*
X188972323Y-78870000D02*
X188972323Y-82130000D01*
X188932323Y-78758000D02*
X188932323Y-82242000D01*
X188892323Y-78654000D02*
X188892323Y-82346000D01*
X188852323Y-78556000D02*
X188852323Y-82444000D01*
X188812323Y-78463000D02*
X188812323Y-82537000D01*
X188772323Y-78376000D02*
X188772323Y-82624000D01*
X188732323Y-78292000D02*
X188732323Y-82708000D01*
X188692323Y-78212000D02*
X188692323Y-82788000D01*
X188652323Y-78135000D02*
X188652323Y-82865000D01*
X188612323Y-78061000D02*
X188612323Y-82939000D01*
X188572323Y-77990000D02*
X188572323Y-83010000D01*
X188532323Y-77922000D02*
X188532323Y-83078000D01*
X188492323Y-77856000D02*
X188492323Y-83144000D01*
X188452323Y-77792000D02*
X188452323Y-83208000D01*
X188412323Y-77730000D02*
X188412323Y-83270000D01*
X188372323Y-77670000D02*
X188372323Y-83330000D01*
X188332323Y-77612000D02*
X188332323Y-83388000D01*
X188292323Y-77555000D02*
X188292323Y-83445000D01*
X188252323Y-77500000D02*
X188252323Y-83500000D01*
X188212323Y-77447000D02*
X188212323Y-83553000D01*
X188172323Y-77395000D02*
X188172323Y-83605000D01*
X188132323Y-77344000D02*
X188132323Y-83656000D01*
X188092323Y-77295000D02*
X188092323Y-83705000D01*
X188052323Y-77246000D02*
X188052323Y-83754000D01*
X188012323Y-77199000D02*
X188012323Y-83801000D01*
X187972323Y-77153000D02*
X187972323Y-83847000D01*
X187932323Y-77109000D02*
X187932323Y-83891000D01*
X187892323Y-77065000D02*
X187892323Y-83935000D01*
X187852323Y-77022000D02*
X187852323Y-83978000D01*
X187812323Y-76980000D02*
X187812323Y-84020000D01*
X187772323Y-76939000D02*
X187772323Y-84061000D01*
X187732323Y-76899000D02*
X187732323Y-84101000D01*
X187692323Y-76860000D02*
X187692323Y-84140000D01*
X187652323Y-76822000D02*
X187652323Y-84178000D01*
X187612323Y-76784000D02*
X187612323Y-84216000D01*
X187572323Y-76748000D02*
X187572323Y-84252000D01*
X187532323Y-76712000D02*
X187532323Y-84288000D01*
X187492323Y-76677000D02*
X187492323Y-84323000D01*
X187452323Y-76642000D02*
X187452323Y-84358000D01*
X187412323Y-76609000D02*
X187412323Y-84391000D01*
X187372323Y-76576000D02*
X187372323Y-84424000D01*
X187332323Y-76543000D02*
X187332323Y-84457000D01*
X187292323Y-76512000D02*
X187292323Y-84488000D01*
X187252323Y-76480000D02*
X187252323Y-84520000D01*
X187212323Y-76450000D02*
X187212323Y-84550000D01*
X187172323Y-76420000D02*
X187172323Y-84580000D01*
X187132323Y-76391000D02*
X187132323Y-84609000D01*
X187092323Y-76362000D02*
X187092323Y-84638000D01*
X187052323Y-76334000D02*
X187052323Y-84666000D01*
X187012323Y-76307000D02*
X187012323Y-84693000D01*
X186972323Y-76280000D02*
X186972323Y-84720000D01*
X186932323Y-76253000D02*
X186932323Y-84747000D01*
X186892323Y-76228000D02*
X186892323Y-84772000D01*
X186852323Y-76202000D02*
X186852323Y-84798000D01*
X186812323Y-76177000D02*
X186812323Y-84823000D01*
X186772323Y-76153000D02*
X186772323Y-84847000D01*
X186732323Y-76129000D02*
X186732323Y-84871000D01*
X186692323Y-76106000D02*
X186692323Y-84894000D01*
X186652323Y-76083000D02*
X186652323Y-84917000D01*
X186612323Y-76061000D02*
X186612323Y-84939000D01*
X186572323Y-76039000D02*
X186572323Y-84961000D01*
X186532323Y-76017000D02*
X186532323Y-84983000D01*
X186492323Y-75996000D02*
X186492323Y-85004000D01*
X186452323Y-75976000D02*
X186452323Y-85024000D01*
X186412323Y-81540000D02*
X186412323Y-85044000D01*
X186412323Y-75956000D02*
X186412323Y-79460000D01*
X186372323Y-81540000D02*
X186372323Y-85064000D01*
X186372323Y-75936000D02*
X186372323Y-79460000D01*
X186332323Y-81540000D02*
X186332323Y-85083000D01*
X186332323Y-75917000D02*
X186332323Y-79460000D01*
X186292323Y-81540000D02*
X186292323Y-85102000D01*
X186292323Y-75898000D02*
X186292323Y-79460000D01*
X186252323Y-81540000D02*
X186252323Y-85120000D01*
X186252323Y-75880000D02*
X186252323Y-79460000D01*
X186212323Y-81540000D02*
X186212323Y-85138000D01*
X186212323Y-75862000D02*
X186212323Y-79460000D01*
X186172323Y-81540000D02*
X186172323Y-85156000D01*
X186172323Y-75844000D02*
X186172323Y-79460000D01*
X186132323Y-81540000D02*
X186132323Y-85173000D01*
X186132323Y-75827000D02*
X186132323Y-79460000D01*
X186092323Y-81540000D02*
X186092323Y-85190000D01*
X186092323Y-75810000D02*
X186092323Y-79460000D01*
X186052323Y-81540000D02*
X186052323Y-85206000D01*
X186052323Y-75794000D02*
X186052323Y-79460000D01*
X186012323Y-81540000D02*
X186012323Y-85222000D01*
X186012323Y-75778000D02*
X186012323Y-79460000D01*
X185972323Y-81540000D02*
X185972323Y-85238000D01*
X185972323Y-75762000D02*
X185972323Y-79460000D01*
X185932323Y-81540000D02*
X185932323Y-85253000D01*
X185932323Y-75747000D02*
X185932323Y-79460000D01*
X185892323Y-81540000D02*
X185892323Y-85268000D01*
X185892323Y-75732000D02*
X185892323Y-79460000D01*
X185852323Y-81540000D02*
X185852323Y-85282000D01*
X185852323Y-75718000D02*
X185852323Y-79460000D01*
X185812323Y-81540000D02*
X185812323Y-85297000D01*
X185812323Y-75703000D02*
X185812323Y-79460000D01*
X185772323Y-81540000D02*
X185772323Y-85310000D01*
X185772323Y-75690000D02*
X185772323Y-79460000D01*
X185732323Y-81540000D02*
X185732323Y-85324000D01*
X185732323Y-75676000D02*
X185732323Y-79460000D01*
X185692323Y-81540000D02*
X185692323Y-85337000D01*
X185692323Y-75663000D02*
X185692323Y-79460000D01*
X185652323Y-81540000D02*
X185652323Y-85349000D01*
X185652323Y-75651000D02*
X185652323Y-79460000D01*
X185612323Y-81540000D02*
X185612323Y-85361000D01*
X185612323Y-75639000D02*
X185612323Y-79460000D01*
X185572323Y-81540000D02*
X185572323Y-85373000D01*
X185572323Y-75627000D02*
X185572323Y-79460000D01*
X185532323Y-81540000D02*
X185532323Y-85385000D01*
X185532323Y-75615000D02*
X185532323Y-79460000D01*
X185492323Y-81540000D02*
X185492323Y-85396000D01*
X185492323Y-75604000D02*
X185492323Y-79460000D01*
X185452323Y-81540000D02*
X185452323Y-85407000D01*
X185452323Y-75593000D02*
X185452323Y-79460000D01*
X185412323Y-81540000D02*
X185412323Y-85417000D01*
X185412323Y-75583000D02*
X185412323Y-79460000D01*
X185372323Y-81540000D02*
X185372323Y-85428000D01*
X185372323Y-75572000D02*
X185372323Y-79460000D01*
X185332323Y-81540000D02*
X185332323Y-85437000D01*
X185332323Y-75563000D02*
X185332323Y-79460000D01*
X185292323Y-81540000D02*
X185292323Y-85447000D01*
X185292323Y-75553000D02*
X185292323Y-79460000D01*
X185252323Y-81540000D02*
X185252323Y-85456000D01*
X185252323Y-75544000D02*
X185252323Y-79460000D01*
X185212323Y-81540000D02*
X185212323Y-85465000D01*
X185212323Y-75535000D02*
X185212323Y-79460000D01*
X185172323Y-81540000D02*
X185172323Y-85473000D01*
X185172323Y-75527000D02*
X185172323Y-79460000D01*
X185132323Y-81540000D02*
X185132323Y-85481000D01*
X185132323Y-75519000D02*
X185132323Y-79460000D01*
X185092323Y-81540000D02*
X185092323Y-85489000D01*
X185092323Y-75511000D02*
X185092323Y-79460000D01*
X185052323Y-81540000D02*
X185052323Y-85497000D01*
X185052323Y-75503000D02*
X185052323Y-79460000D01*
X185012323Y-81540000D02*
X185012323Y-85504000D01*
X185012323Y-75496000D02*
X185012323Y-79460000D01*
X184972323Y-81540000D02*
X184972323Y-85511000D01*
X184972323Y-75489000D02*
X184972323Y-79460000D01*
X184932323Y-81540000D02*
X184932323Y-85517000D01*
X184932323Y-75483000D02*
X184932323Y-79460000D01*
X184892323Y-81540000D02*
X184892323Y-85523000D01*
X184892323Y-75477000D02*
X184892323Y-79460000D01*
X184852323Y-81540000D02*
X184852323Y-85529000D01*
X184852323Y-75471000D02*
X184852323Y-79460000D01*
X184812323Y-81540000D02*
X184812323Y-85535000D01*
X184812323Y-75465000D02*
X184812323Y-79460000D01*
X184772323Y-81540000D02*
X184772323Y-85540000D01*
X184772323Y-75460000D02*
X184772323Y-79460000D01*
X184732323Y-81540000D02*
X184732323Y-85545000D01*
X184732323Y-75455000D02*
X184732323Y-79460000D01*
X184692323Y-81540000D02*
X184692323Y-85549000D01*
X184692323Y-75451000D02*
X184692323Y-79460000D01*
X184652323Y-81540000D02*
X184652323Y-85554000D01*
X184652323Y-75446000D02*
X184652323Y-79460000D01*
X184612323Y-81540000D02*
X184612323Y-85557000D01*
X184612323Y-75443000D02*
X184612323Y-79460000D01*
X184572323Y-81540000D02*
X184572323Y-85561000D01*
X184572323Y-75439000D02*
X184572323Y-79460000D01*
X184532323Y-81540000D02*
X184532323Y-85564000D01*
X184532323Y-75436000D02*
X184532323Y-79460000D01*
X184492323Y-81540000D02*
X184492323Y-85567000D01*
X184492323Y-75433000D02*
X184492323Y-79460000D01*
X184452323Y-81540000D02*
X184452323Y-85570000D01*
X184452323Y-75430000D02*
X184452323Y-79460000D01*
X184412323Y-81540000D02*
X184412323Y-85572000D01*
X184412323Y-75428000D02*
X184412323Y-79460000D01*
X184372323Y-81540000D02*
X184372323Y-85574000D01*
X184372323Y-75426000D02*
X184372323Y-79460000D01*
X184332323Y-75424000D02*
X184332323Y-85576000D01*
X184292323Y-75423000D02*
X184292323Y-85577000D01*
X184252323Y-75421000D02*
X184252323Y-85579000D01*
X184212323Y-75421000D02*
X184212323Y-85579000D01*
X184172323Y-75420000D02*
X184172323Y-85580000D01*
X184132323Y-75420000D02*
X184132323Y-85580000D01*
X179152677Y-77125000D02*
X179152677Y-78125000D01*
X178652677Y-77625000D02*
X179652677Y-77625000D01*
%TO.C,RV4*%
X176560000Y-49225000D02*
X159440000Y-49225000D01*
X176560000Y-60135000D02*
X176560000Y-49225000D01*
X159440000Y-60135000D02*
X159440000Y-49225000D01*
X176560000Y-60135000D02*
G75*
G02*
X159440000Y-60135000I-8560000J0D01*
G01*
X159440000Y-60135000D02*
G75*
G02*
X176560000Y-60135000I8560000J0D01*
G01*
%TO.C,RV3*%
X157060000Y-49225000D02*
X139940000Y-49225000D01*
X157060000Y-60135000D02*
X157060000Y-49225000D01*
X139940000Y-60135000D02*
X139940000Y-49225000D01*
X157060000Y-60135000D02*
G75*
G02*
X139940000Y-60135000I-8560000J0D01*
G01*
X139940000Y-60135000D02*
G75*
G02*
X157060000Y-60135000I8560000J0D01*
G01*
%TO.C,RV2*%
X137560000Y-49225000D02*
X120440000Y-49225000D01*
X137560000Y-60135000D02*
X137560000Y-49225000D01*
X120440000Y-60135000D02*
X120440000Y-49225000D01*
X137560000Y-60135000D02*
G75*
G02*
X120440000Y-60135000I-8560000J0D01*
G01*
X120440000Y-60135000D02*
G75*
G02*
X137560000Y-60135000I8560000J0D01*
G01*
%TO.C,RV1*%
X196060000Y-49225000D02*
X178940000Y-49225000D01*
X196060000Y-60135000D02*
X196060000Y-49225000D01*
X178940000Y-60135000D02*
X178940000Y-49225000D01*
X196060000Y-60135000D02*
G75*
G02*
X178940000Y-60135000I-8560000J0D01*
G01*
X178940000Y-60135000D02*
G75*
G02*
X196060000Y-60135000I8560000J0D01*
G01*
%TO.C,C1*%
X124620000Y-78367677D02*
G75*
G02*
X114380000Y-78367677I-5120000J0D01*
G01*
X114380000Y-78367677D02*
G75*
G02*
X124620000Y-78367677I5120000J0D01*
G01*
X118901000Y-73287677D02*
X120099000Y-73287677D01*
X118638000Y-73327677D02*
X120362000Y-73327677D01*
X118438000Y-73367677D02*
X120562000Y-73367677D01*
X118270000Y-73407677D02*
X120730000Y-73407677D01*
X118123000Y-73447677D02*
X120877000Y-73447677D01*
X117991000Y-73487677D02*
X121009000Y-73487677D01*
X117870000Y-73527677D02*
X121130000Y-73527677D01*
X117758000Y-73567677D02*
X121242000Y-73567677D01*
X117654000Y-73607677D02*
X121346000Y-73607677D01*
X117556000Y-73647677D02*
X121444000Y-73647677D01*
X117463000Y-73687677D02*
X121537000Y-73687677D01*
X117376000Y-73727677D02*
X121624000Y-73727677D01*
X117292000Y-73767677D02*
X121708000Y-73767677D01*
X117212000Y-73807677D02*
X121788000Y-73807677D01*
X117135000Y-73847677D02*
X121865000Y-73847677D01*
X117061000Y-73887677D02*
X121939000Y-73887677D01*
X116990000Y-73927677D02*
X122010000Y-73927677D01*
X116922000Y-73967677D02*
X122078000Y-73967677D01*
X116856000Y-74007677D02*
X122144000Y-74007677D01*
X116792000Y-74047677D02*
X122208000Y-74047677D01*
X116730000Y-74087677D02*
X122270000Y-74087677D01*
X116670000Y-74127677D02*
X122330000Y-74127677D01*
X116612000Y-74167677D02*
X122388000Y-74167677D01*
X116555000Y-74207677D02*
X122445000Y-74207677D01*
X116500000Y-74247677D02*
X122500000Y-74247677D01*
X116447000Y-74287677D02*
X122553000Y-74287677D01*
X116395000Y-74327677D02*
X122605000Y-74327677D01*
X116344000Y-74367677D02*
X122656000Y-74367677D01*
X116295000Y-74407677D02*
X122705000Y-74407677D01*
X116246000Y-74447677D02*
X122754000Y-74447677D01*
X116199000Y-74487677D02*
X122801000Y-74487677D01*
X116153000Y-74527677D02*
X122847000Y-74527677D01*
X116109000Y-74567677D02*
X122891000Y-74567677D01*
X116065000Y-74607677D02*
X122935000Y-74607677D01*
X116022000Y-74647677D02*
X122978000Y-74647677D01*
X115980000Y-74687677D02*
X123020000Y-74687677D01*
X115939000Y-74727677D02*
X123061000Y-74727677D01*
X115899000Y-74767677D02*
X123101000Y-74767677D01*
X115860000Y-74807677D02*
X123140000Y-74807677D01*
X115822000Y-74847677D02*
X123178000Y-74847677D01*
X115784000Y-74887677D02*
X123216000Y-74887677D01*
X115748000Y-74927677D02*
X123252000Y-74927677D01*
X115712000Y-74967677D02*
X123288000Y-74967677D01*
X115677000Y-75007677D02*
X123323000Y-75007677D01*
X115642000Y-75047677D02*
X123358000Y-75047677D01*
X115609000Y-75087677D02*
X123391000Y-75087677D01*
X115576000Y-75127677D02*
X123424000Y-75127677D01*
X115543000Y-75167677D02*
X123457000Y-75167677D01*
X115512000Y-75207677D02*
X123488000Y-75207677D01*
X115480000Y-75247677D02*
X123520000Y-75247677D01*
X115450000Y-75287677D02*
X123550000Y-75287677D01*
X115420000Y-75327677D02*
X123580000Y-75327677D01*
X115391000Y-75367677D02*
X123609000Y-75367677D01*
X115362000Y-75407677D02*
X123638000Y-75407677D01*
X115334000Y-75447677D02*
X123666000Y-75447677D01*
X115307000Y-75487677D02*
X123693000Y-75487677D01*
X115280000Y-75527677D02*
X123720000Y-75527677D01*
X115253000Y-75567677D02*
X123747000Y-75567677D01*
X115228000Y-75607677D02*
X123772000Y-75607677D01*
X115202000Y-75647677D02*
X123798000Y-75647677D01*
X115177000Y-75687677D02*
X123823000Y-75687677D01*
X115153000Y-75727677D02*
X123847000Y-75727677D01*
X115129000Y-75767677D02*
X123871000Y-75767677D01*
X115106000Y-75807677D02*
X123894000Y-75807677D01*
X115083000Y-75847677D02*
X123917000Y-75847677D01*
X115061000Y-75887677D02*
X123939000Y-75887677D01*
X115039000Y-75927677D02*
X123961000Y-75927677D01*
X115017000Y-75967677D02*
X123983000Y-75967677D01*
X114996000Y-76007677D02*
X124004000Y-76007677D01*
X114976000Y-76047677D02*
X124024000Y-76047677D01*
X120540000Y-76087677D02*
X124044000Y-76087677D01*
X114956000Y-76087677D02*
X118460000Y-76087677D01*
X120540000Y-76127677D02*
X124064000Y-76127677D01*
X114936000Y-76127677D02*
X118460000Y-76127677D01*
X120540000Y-76167677D02*
X124083000Y-76167677D01*
X114917000Y-76167677D02*
X118460000Y-76167677D01*
X120540000Y-76207677D02*
X124102000Y-76207677D01*
X114898000Y-76207677D02*
X118460000Y-76207677D01*
X120540000Y-76247677D02*
X124120000Y-76247677D01*
X114880000Y-76247677D02*
X118460000Y-76247677D01*
X120540000Y-76287677D02*
X124138000Y-76287677D01*
X114862000Y-76287677D02*
X118460000Y-76287677D01*
X120540000Y-76327677D02*
X124156000Y-76327677D01*
X114844000Y-76327677D02*
X118460000Y-76327677D01*
X120540000Y-76367677D02*
X124173000Y-76367677D01*
X114827000Y-76367677D02*
X118460000Y-76367677D01*
X120540000Y-76407677D02*
X124190000Y-76407677D01*
X114810000Y-76407677D02*
X118460000Y-76407677D01*
X120540000Y-76447677D02*
X124206000Y-76447677D01*
X114794000Y-76447677D02*
X118460000Y-76447677D01*
X120540000Y-76487677D02*
X124222000Y-76487677D01*
X114778000Y-76487677D02*
X118460000Y-76487677D01*
X120540000Y-76527677D02*
X124238000Y-76527677D01*
X114762000Y-76527677D02*
X118460000Y-76527677D01*
X120540000Y-76567677D02*
X124253000Y-76567677D01*
X114747000Y-76567677D02*
X118460000Y-76567677D01*
X120540000Y-76607677D02*
X124268000Y-76607677D01*
X114732000Y-76607677D02*
X118460000Y-76607677D01*
X120540000Y-76647677D02*
X124282000Y-76647677D01*
X114718000Y-76647677D02*
X118460000Y-76647677D01*
X120540000Y-76687677D02*
X124297000Y-76687677D01*
X114703000Y-76687677D02*
X118460000Y-76687677D01*
X120540000Y-76727677D02*
X124310000Y-76727677D01*
X114690000Y-76727677D02*
X118460000Y-76727677D01*
X120540000Y-76767677D02*
X124324000Y-76767677D01*
X114676000Y-76767677D02*
X118460000Y-76767677D01*
X120540000Y-76807677D02*
X124337000Y-76807677D01*
X114663000Y-76807677D02*
X118460000Y-76807677D01*
X120540000Y-76847677D02*
X124349000Y-76847677D01*
X114651000Y-76847677D02*
X118460000Y-76847677D01*
X120540000Y-76887677D02*
X124361000Y-76887677D01*
X114639000Y-76887677D02*
X118460000Y-76887677D01*
X120540000Y-76927677D02*
X124373000Y-76927677D01*
X114627000Y-76927677D02*
X118460000Y-76927677D01*
X120540000Y-76967677D02*
X124385000Y-76967677D01*
X114615000Y-76967677D02*
X118460000Y-76967677D01*
X120540000Y-77007677D02*
X124396000Y-77007677D01*
X114604000Y-77007677D02*
X118460000Y-77007677D01*
X120540000Y-77047677D02*
X124407000Y-77047677D01*
X114593000Y-77047677D02*
X118460000Y-77047677D01*
X120540000Y-77087677D02*
X124417000Y-77087677D01*
X114583000Y-77087677D02*
X118460000Y-77087677D01*
X120540000Y-77127677D02*
X124428000Y-77127677D01*
X114572000Y-77127677D02*
X118460000Y-77127677D01*
X120540000Y-77167677D02*
X124437000Y-77167677D01*
X114563000Y-77167677D02*
X118460000Y-77167677D01*
X120540000Y-77207677D02*
X124447000Y-77207677D01*
X114553000Y-77207677D02*
X118460000Y-77207677D01*
X120540000Y-77247677D02*
X124456000Y-77247677D01*
X114544000Y-77247677D02*
X118460000Y-77247677D01*
X120540000Y-77287677D02*
X124465000Y-77287677D01*
X114535000Y-77287677D02*
X118460000Y-77287677D01*
X120540000Y-77327677D02*
X124473000Y-77327677D01*
X114527000Y-77327677D02*
X118460000Y-77327677D01*
X120540000Y-77367677D02*
X124481000Y-77367677D01*
X114519000Y-77367677D02*
X118460000Y-77367677D01*
X120540000Y-77407677D02*
X124489000Y-77407677D01*
X114511000Y-77407677D02*
X118460000Y-77407677D01*
X120540000Y-77447677D02*
X124497000Y-77447677D01*
X114503000Y-77447677D02*
X118460000Y-77447677D01*
X120540000Y-77487677D02*
X124504000Y-77487677D01*
X114496000Y-77487677D02*
X118460000Y-77487677D01*
X120540000Y-77527677D02*
X124511000Y-77527677D01*
X114489000Y-77527677D02*
X118460000Y-77527677D01*
X120540000Y-77567677D02*
X124517000Y-77567677D01*
X114483000Y-77567677D02*
X118460000Y-77567677D01*
X120540000Y-77607677D02*
X124523000Y-77607677D01*
X114477000Y-77607677D02*
X118460000Y-77607677D01*
X120540000Y-77647677D02*
X124529000Y-77647677D01*
X114471000Y-77647677D02*
X118460000Y-77647677D01*
X120540000Y-77687677D02*
X124535000Y-77687677D01*
X114465000Y-77687677D02*
X118460000Y-77687677D01*
X120540000Y-77727677D02*
X124540000Y-77727677D01*
X114460000Y-77727677D02*
X118460000Y-77727677D01*
X120540000Y-77767677D02*
X124545000Y-77767677D01*
X114455000Y-77767677D02*
X118460000Y-77767677D01*
X120540000Y-77807677D02*
X124549000Y-77807677D01*
X114451000Y-77807677D02*
X118460000Y-77807677D01*
X120540000Y-77847677D02*
X124554000Y-77847677D01*
X114446000Y-77847677D02*
X118460000Y-77847677D01*
X120540000Y-77887677D02*
X124557000Y-77887677D01*
X114443000Y-77887677D02*
X118460000Y-77887677D01*
X120540000Y-77927677D02*
X124561000Y-77927677D01*
X114439000Y-77927677D02*
X118460000Y-77927677D01*
X120540000Y-77967677D02*
X124564000Y-77967677D01*
X114436000Y-77967677D02*
X118460000Y-77967677D01*
X120540000Y-78007677D02*
X124567000Y-78007677D01*
X114433000Y-78007677D02*
X118460000Y-78007677D01*
X120540000Y-78047677D02*
X124570000Y-78047677D01*
X114430000Y-78047677D02*
X118460000Y-78047677D01*
X120540000Y-78087677D02*
X124572000Y-78087677D01*
X114428000Y-78087677D02*
X118460000Y-78087677D01*
X120540000Y-78127677D02*
X124574000Y-78127677D01*
X114426000Y-78127677D02*
X118460000Y-78127677D01*
X114424000Y-78167677D02*
X124576000Y-78167677D01*
X114423000Y-78207677D02*
X124577000Y-78207677D01*
X114421000Y-78247677D02*
X124579000Y-78247677D01*
X114421000Y-78287677D02*
X124579000Y-78287677D01*
X114420000Y-78327677D02*
X124580000Y-78327677D01*
X114420000Y-78367677D02*
X124580000Y-78367677D01*
X116125000Y-83347323D02*
X117125000Y-83347323D01*
X116625000Y-83847323D02*
X116625000Y-82847323D01*
%TO.C,U1*%
X150140000Y-86850000D02*
X139860000Y-86850000D01*
X139860000Y-86850000D02*
X139860000Y-92150000D01*
X150140000Y-88500000D02*
X150140000Y-86850000D01*
X150140000Y-92150000D02*
X150140000Y-90500000D01*
X139860000Y-92150000D02*
X150140000Y-92150000D01*
X150140000Y-90500000D02*
G75*
G02*
X150140000Y-88500000I0J1000000D01*
G01*
%TO.C,R6*%
X147370000Y-72085000D02*
X146420000Y-72085000D01*
X141630000Y-72085000D02*
X142580000Y-72085000D01*
X142580000Y-71165000D02*
X146420000Y-71165000D01*
X146420000Y-73005000D01*
X142580000Y-73005000D01*
X142580000Y-71165000D01*
%TO.C,R4*%
X172980000Y-91000000D02*
X173930000Y-91000000D01*
X178720000Y-91000000D02*
X177770000Y-91000000D01*
X173930000Y-90080000D02*
X177770000Y-90080000D01*
X177770000Y-91920000D01*
X173930000Y-91920000D01*
X173930000Y-90080000D01*
%TO.C,R3*%
X191500000Y-80180000D02*
X191500000Y-79230000D01*
X191500000Y-74440000D02*
X191500000Y-75390000D01*
X190580000Y-75390000D02*
X192420000Y-75390000D01*
X192420000Y-79230000D01*
X190580000Y-79230000D01*
X190580000Y-75390000D01*
%TO.C,J2*%
X198280000Y-49880000D02*
X200180000Y-49880000D01*
X198280000Y-64120000D02*
X198280000Y-49880000D01*
X200180000Y-45880000D02*
X206420000Y-45880000D01*
X200180000Y-49880000D02*
X200180000Y-45880000D01*
X206420000Y-45880000D02*
X206420000Y-49880000D01*
X206420000Y-49880000D02*
X206720000Y-49880000D01*
X206720000Y-49880000D02*
X206720000Y-64120000D01*
X206720000Y-64120000D02*
X198280000Y-64120000D01*
%TO.C,J1*%
X110380000Y-49780000D02*
X112280000Y-49780000D01*
X110380000Y-64020000D02*
X110380000Y-49780000D01*
X112280000Y-45780000D02*
X118520000Y-45780000D01*
X112280000Y-49780000D02*
X112280000Y-45780000D01*
X118520000Y-45780000D02*
X118520000Y-49780000D01*
X118520000Y-49780000D02*
X118820000Y-49780000D01*
X118820000Y-49780000D02*
X118820000Y-64020000D01*
X118820000Y-64020000D02*
X110380000Y-64020000D01*
%TO.C,REF\u002A\u002A*%
D12*
X178575000Y-97900000D02*
X178575000Y-101080000D01*
X141425000Y-97900000D02*
X178575000Y-97900000D01*
X141425000Y-101080000D02*
X141425000Y-97900000D01*
X178575000Y-104720000D02*
X178575000Y-108280000D01*
X141425000Y-108280000D02*
X141425000Y-104720000D01*
X178575000Y-111920000D02*
X178575000Y-115100000D01*
X178575000Y-115100000D02*
X141425000Y-115100000D01*
X141425000Y-115100000D02*
X141425000Y-111920000D01*
D11*
X183725000Y-110100000D02*
X184975000Y-110100000D01*
X186275000Y-109800000D02*
X186275000Y-109050000D01*
X186275000Y-109050000D02*
X189225000Y-109050000D01*
X189225000Y-109050000D02*
X189225000Y-106000000D01*
X183725000Y-108850000D02*
X183725000Y-110100000D01*
X186275000Y-102950000D02*
X189225000Y-102950000D01*
X189225000Y-102950000D02*
X189225000Y-106000000D01*
X186275000Y-102200000D02*
X186275000Y-102950000D01*
X184015000Y-102190000D02*
X189985000Y-102190000D01*
X189985000Y-109810000D01*
X184015000Y-109810000D01*
X184015000Y-102190000D01*
X184025000Y-108000000D02*
X184775000Y-108000000D01*
X184775000Y-109800000D01*
X184025000Y-109800000D01*
X184025000Y-108000000D01*
X184025000Y-105500000D02*
X184775000Y-105500000D01*
X184775000Y-106500000D01*
X184025000Y-106500000D01*
X184025000Y-105500000D01*
X184025000Y-102200000D02*
X184775000Y-102200000D01*
X184775000Y-104000000D01*
X184025000Y-104000000D01*
X184025000Y-102200000D01*
%TD*%
M02*
