%TF.GenerationSoftware,KiCad,Pcbnew,10.0.4*%
%TF.CreationDate,2026-07-16T15:09:27-03:00*%
%TF.ProjectId,amplificador_IC4558,616d706c-6966-4696-9361-646f725f4943,rev?*%
%TF.SameCoordinates,Original*%
%TF.FileFunction,Copper,L1,Top*%
%TF.FilePolarity,Positive*%
%FSLAX46Y46*%
G04 Gerber Fmt 4.6, Leading zero omitted, Abs format (unit mm)*
G04 Created by KiCad (PCBNEW 10.0.4) date 2026-07-16 15:09:27*
%MOMM*%
%LPD*%
G01*
G04 APERTURE LIST*
G04 Aperture macros list*
%AMRoundRect*
0 Rectangle with rounded corners*
0 $1 Rounding radius*
0 $2 $3 $4 $5 $6 $7 $8 $9 X,Y pos of 4 corners*
0 Add a 4 corners polygon primitive as box body*
4,1,4,$2,$3,$4,$5,$6,$7,$8,$9,$2,$3,0*
0 Add four circle primitives for the rounded corners*
1,1,$1+$1,$2,$3*
1,1,$1+$1,$4,$5*
1,1,$1+$1,$6,$7*
1,1,$1+$1,$8,$9*
0 Add four rect primitives between the rounded corners*
20,1,$1+$1,$2,$3,$4,$5,0*
20,1,$1+$1,$4,$5,$6,$7,0*
20,1,$1+$1,$6,$7,$8,$9,0*
20,1,$1+$1,$8,$9,$2,$3,0*%
%AMFreePoly0*
4,1,13,2.503536,1.503536,2.505000,1.500000,2.505000,-1.500000,2.503536,-1.503536,2.500000,-1.505000,-2.500000,-1.505000,-2.503536,-1.503536,-2.505000,-1.500000,-2.505000,1.500000,-2.503536,1.503536,-2.500000,1.505000,2.500000,1.505000,2.503536,1.503536,2.503536,1.503536,$1*%
G04 Aperture macros list end*
%TA.AperFunction,ComponentPad*%
%ADD10C,2.000000*%
%TD*%
%TA.AperFunction,ComponentPad*%
%ADD11C,3.800000*%
%TD*%
%TA.AperFunction,ComponentPad*%
%ADD12C,2.800000*%
%TD*%
%TA.AperFunction,ComponentPad*%
%ADD13RoundRect,0.250000X0.600000X0.725000X-0.600000X0.725000X-0.600000X-0.725000X0.600000X-0.725000X0*%
%TD*%
%TA.AperFunction,ComponentPad*%
%ADD14O,1.700000X1.950000*%
%TD*%
%TA.AperFunction,ComponentPad*%
%ADD15RoundRect,0.250000X0.725000X-0.600000X0.725000X0.600000X-0.725000X0.600000X-0.725000X-0.600000X0*%
%TD*%
%TA.AperFunction,ComponentPad*%
%ADD16O,1.950000X1.700000*%
%TD*%
%TA.AperFunction,ComponentPad*%
%ADD17C,1.400000*%
%TD*%
%TA.AperFunction,ComponentPad*%
%ADD18RoundRect,0.250000X0.550000X-0.550000X0.550000X0.550000X-0.550000X0.550000X-0.550000X-0.550000X0*%
%TD*%
%TA.AperFunction,ComponentPad*%
%ADD19C,1.600000*%
%TD*%
%TA.AperFunction,ComponentPad*%
%ADD20FreePoly0,90.000000*%
%TD*%
%TA.AperFunction,ComponentPad*%
%ADD21RoundRect,0.250000X-0.600000X-0.750000X0.600000X-0.750000X0.600000X0.750000X-0.600000X0.750000X0*%
%TD*%
%TA.AperFunction,ComponentPad*%
%ADD22O,1.700000X2.000000*%
%TD*%
%TA.AperFunction,ComponentPad*%
%ADD23RoundRect,0.250000X-0.550000X0.550000X-0.550000X-0.550000X0.550000X-0.550000X0.550000X0.550000X0*%
%TD*%
%TA.AperFunction,Conductor*%
%ADD24C,1.000000*%
%TD*%
%TA.AperFunction,Conductor*%
%ADD25C,1.500000*%
%TD*%
G04 APERTURE END LIST*
D10*
%TO.P,REF\u002A\u002A,1*%
%TO.N,N/C*%
X132000000Y-110500000D03*
%TD*%
%TO.P,REF\u002A\u002A,1*%
%TO.N,N/C*%
X141000000Y-101500000D03*
%TD*%
%TO.P,REF\u002A\u002A,1*%
%TO.N,N/C*%
X142000000Y-79000000D03*
%TD*%
%TO.P,REF\u002A\u002A,1*%
%TO.N,N/C*%
X167000000Y-116000000D03*
%TD*%
%TO.P,REF\u002A\u002A,1*%
%TO.N,N/C*%
X165500000Y-98000000D03*
%TD*%
%TO.P,REF\u002A\u002A,1*%
%TO.N,N/C*%
X142500000Y-62500000D03*
%TD*%
D11*
%TO.P,REF\u002A\u002A,1*%
%TO.N,N/C*%
X101000000Y-61500000D03*
%TD*%
%TO.P,REF\u002A\u002A,1*%
%TO.N,N/C*%
X202000000Y-61500000D03*
%TD*%
%TO.P,REF\u002A\u002A,1*%
%TO.N,N/C*%
X202000000Y-124500000D03*
%TD*%
%TO.P,REF\u002A\u002A,1*%
%TO.N,N/C*%
X101000000Y-124500000D03*
%TD*%
D12*
%TO.P,J2,T*%
%TO.N,Net-(C2-Pad1)*%
X194900000Y-71400000D03*
%TO.P,J2,S*%
%TO.N,GND*%
X197300000Y-69400000D03*
%TO.P,J2,R*%
%TO.N,N/C*%
X189400000Y-71400000D03*
%TD*%
D13*
%TO.P,RV4,1,1_1*%
%TO.N,Net-(RV2-Pad1)*%
X144000000Y-110525000D03*
D14*
%TO.P,RV4,2,2_2*%
%TO.N,Net-(C5-Pad1)*%
X141500000Y-110525000D03*
%TO.P,RV4,3,3_3*%
%TO.N,Net-(C3-Pad1)*%
X139000000Y-110525000D03*
%TD*%
D15*
%TO.P,RV3,1,1_1*%
%TO.N,Net-(RV2-Pad1)*%
X126975000Y-110500000D03*
D16*
%TO.P,RV3,2,2_2*%
%TO.N,Net-(C3-Pad2)*%
X126975000Y-108000000D03*
%TO.P,RV3,3,3_3*%
%TO.N,Net-(C3-Pad1)*%
X126975000Y-105500000D03*
%TD*%
D15*
%TO.P,RV2,1,1_1*%
%TO.N,Net-(RV2-Pad1)*%
X149975000Y-92500000D03*
D16*
%TO.P,RV2,2,2_2*%
%TO.N,Net-(R6-Pad2)*%
X149975000Y-90000000D03*
%TO.P,RV2,3,3_3*%
%TO.N,Net-(C3-Pad1)*%
X149975000Y-87500000D03*
%TD*%
D15*
%TO.P,RV1,1,1_1*%
%TO.N,Earth*%
X171975000Y-79500000D03*
D16*
%TO.P,RV1,2,2_2*%
%TO.N,Net-(C2-Pad1)*%
X171975000Y-77000000D03*
%TO.P,RV1,3,3_3*%
%TO.N,Net-(R3-Pad2)*%
X171975000Y-74500000D03*
%TD*%
D17*
%TO.P,R2,2*%
%TO.N,GND*%
X136000000Y-60380000D03*
%TO.P,R2,1*%
%TO.N,Net-(R1-Pad2)*%
X136000000Y-68000000D03*
%TD*%
%TO.P,R6,2*%
%TO.N,Net-(R6-Pad2)*%
X145120000Y-90000000D03*
%TO.P,R6,1*%
%TO.N,Net-(C5-Pad2)*%
X137500000Y-90000000D03*
%TD*%
%TO.P,R5,2*%
%TO.N,Net-(C5-Pad2)*%
X133500000Y-90310000D03*
%TO.P,R5,1*%
%TO.N,Net-(U1A--)*%
X133500000Y-82690000D03*
%TD*%
%TO.P,R1,1*%
%TO.N,Net-(U1A-+)*%
X133000000Y-78310000D03*
%TO.P,R1,2*%
%TO.N,Net-(R1-Pad2)*%
X133000000Y-70690000D03*
%TD*%
%TO.P,R3,1*%
%TO.N,Net-(R3-Pad1)*%
X159000000Y-69000000D03*
%TO.P,R3,2*%
%TO.N,Net-(R3-Pad2)*%
X166620000Y-69000000D03*
%TD*%
D12*
%TO.P,J1,R*%
%TO.N,N/C*%
X113100000Y-68100000D03*
%TO.P,J1,S*%
%TO.N,GND*%
X105200000Y-70100000D03*
%TO.P,J1,T*%
%TO.N,Net-(U1A-+)*%
X107600000Y-68100000D03*
%TD*%
D18*
%TO.P,C4,1*%
%TO.N,Net-(C3-Pad2)*%
X124500000Y-87500000D03*
D19*
%TO.P,C4,2*%
%TO.N,Net-(U1A--)*%
X124500000Y-85000000D03*
%TD*%
D20*
%TO.P,REF\u002A\u002A,VIN_N*%
%TO.N,N/C*%
X182600000Y-91225000D03*
%TO.P,REF\u002A\u002A,VIN_P*%
X175400000Y-91225000D03*
%TO.P,REF\u002A\u002A,VOUT_N*%
X182600000Y-122775000D03*
%TO.P,REF\u002A\u002A,VOUT_P*%
X175400000Y-122775000D03*
%TD*%
D21*
%TO.P,REF\u002A\u002A,1*%
%TO.N,N/C*%
X181250000Y-78475000D03*
D22*
%TO.P,REF\u002A\u002A,2*%
X183750000Y-78475000D03*
%TD*%
D18*
%TO.P,C2,1*%
%TO.N,Net-(C2-Pad1)*%
X175000000Y-66617677D03*
D19*
%TO.P,C2,2*%
%TO.N,GND*%
X175000000Y-64117677D03*
%TD*%
D18*
%TO.P,C1,1*%
%TO.N,Net-(U1A-+)*%
X125500000Y-70617677D03*
D19*
%TO.P,C1,2*%
%TO.N,GND*%
X125500000Y-68117677D03*
%TD*%
D18*
%TO.P,C3,1*%
%TO.N,Net-(C3-Pad1)*%
X121500000Y-99117677D03*
D19*
%TO.P,C3,2*%
%TO.N,Net-(C3-Pad2)*%
X121500000Y-96617677D03*
%TD*%
D17*
%TO.P,R4,1*%
%TO.N,Net-(C3-Pad1)*%
X155000000Y-76310000D03*
%TO.P,R4,2*%
%TO.N,Net-(R3-Pad1)*%
X155000000Y-68690000D03*
%TD*%
D18*
%TO.P,C5,1*%
%TO.N,Net-(C5-Pad1)*%
X133500000Y-99617677D03*
D19*
%TO.P,C5,2*%
%TO.N,Net-(C5-Pad2)*%
X133500000Y-97117677D03*
%TD*%
D23*
%TO.P,U1,1*%
%TO.N,Net-(R3-Pad1)*%
X148380000Y-68260000D03*
D19*
%TO.P,U1,2,-_2*%
%TO.N,Net-(U1A--)*%
X145840000Y-68260000D03*
%TO.P,U1,3,+_3*%
%TO.N,Net-(U1A-+)*%
X143300000Y-68260000D03*
%TO.P,U1,4,V-_4*%
%TO.N,GND*%
X140760000Y-68260000D03*
%TO.P,U1,5*%
%TO.N,N/C*%
X140760000Y-75880000D03*
%TO.P,U1,6*%
X143300000Y-75880000D03*
%TO.P,U1,7*%
X145840000Y-75880000D03*
%TO.P,U1,8,V+_8*%
%TO.N,+5v*%
X148380000Y-75880000D03*
%TD*%
%TO.N,Net-(RV2-Pad1)*%
D24*
X141000000Y-101500000D02*
X144000000Y-101500000D01*
%TO.N,Net-(C5-Pad2)*%
X133500000Y-90310000D02*
X137190000Y-90310000D01*
X137190000Y-90310000D02*
X137500000Y-90000000D01*
%TO.N,Net-(R6-Pad2)*%
X149975000Y-90000000D02*
X145120000Y-90000000D01*
%TO.N,GND*%
X142500000Y-62500000D02*
X144117677Y-64117677D01*
X144117677Y-64117677D02*
X144902323Y-64117677D01*
%TO.N,+5v*%
X145000000Y-79000000D02*
X142000000Y-79000000D01*
X148380000Y-75880000D02*
X148120000Y-75880000D01*
X148120000Y-75880000D02*
X145000000Y-79000000D01*
%TO.N,GND*%
X175000000Y-64117677D02*
X144902323Y-64117677D01*
X144902323Y-64117677D02*
X142510000Y-66510000D01*
%TO.N,Earth*%
X165500000Y-98000000D02*
X165500000Y-85975000D01*
X165500000Y-85975000D02*
X171975000Y-79500000D01*
X182600000Y-122775000D02*
X182600000Y-115100000D01*
X182600000Y-115100000D02*
X165500000Y-98000000D01*
%TO.N,*%
X175400000Y-122775000D02*
X173775000Y-122775000D01*
X173775000Y-122775000D02*
X167000000Y-116000000D01*
%TO.N,Net-(C3-Pad1)*%
X139000000Y-110525000D02*
X133975000Y-105500000D01*
X133975000Y-105500000D02*
X126975000Y-105500000D01*
%TO.N,GND*%
X125500000Y-68117677D02*
X123132323Y-65750000D01*
X123132323Y-65750000D02*
X106626598Y-65750000D01*
X106626598Y-65750000D02*
X105200000Y-67176598D01*
X105200000Y-67176598D02*
X105200000Y-70100000D01*
%TO.N,Net-(U1A-+)*%
X125500000Y-70617677D02*
X110117677Y-70617677D01*
X110117677Y-70617677D02*
X107600000Y-68100000D01*
%TO.N,Net-(C2-Pad1)*%
X175000000Y-66617677D02*
X175000000Y-76450000D01*
X175000000Y-76450000D02*
X174450000Y-77000000D01*
X174450000Y-77000000D02*
X171975000Y-77000000D01*
X194900000Y-71400000D02*
X190117677Y-66617677D01*
X190117677Y-66617677D02*
X175000000Y-66617677D01*
%TO.N,GND*%
X197300000Y-69400000D02*
X192017677Y-64117677D01*
X192017677Y-64117677D02*
X175000000Y-64117677D01*
%TO.N,Net-(R3-Pad2)*%
D25*
X166620000Y-69000000D02*
X166620000Y-69145000D01*
D24*
X166620000Y-69145000D02*
X171975000Y-74500000D01*
%TO.N,Net-(RV2-Pad1)*%
X126975000Y-110500000D02*
X132000000Y-110500000D01*
%TO.N,Net-(C3-Pad2)*%
X126975000Y-108000000D02*
X124500000Y-108000000D01*
X124500000Y-108000000D02*
X118500000Y-102000000D01*
X118500000Y-102000000D02*
X118500000Y-98486307D01*
X118500000Y-98486307D02*
X120368630Y-96617677D01*
X120368630Y-96617677D02*
X121500000Y-96617677D01*
%TO.N,Net-(C3-Pad1)*%
X121500000Y-99117677D02*
X121500000Y-100025000D01*
X121500000Y-100025000D02*
X126975000Y-105500000D01*
X151900000Y-107600000D02*
X145500000Y-114000000D01*
X140250000Y-114000000D02*
X139000000Y-112750000D01*
X151900000Y-89254416D02*
X151900000Y-107600000D01*
X150145584Y-87500000D02*
X151900000Y-89254416D01*
D25*
X149975000Y-87500000D02*
X150145584Y-87500000D01*
D24*
X145500000Y-114000000D02*
X140250000Y-114000000D01*
X139000000Y-112750000D02*
X139000000Y-110525000D01*
%TO.N,Net-(RV2-Pad1)*%
X148000000Y-92500000D02*
X144000000Y-96500000D01*
X149975000Y-92500000D02*
X148000000Y-92500000D01*
X144000000Y-96500000D02*
X144000000Y-110525000D01*
%TO.N,Net-(C5-Pad1)*%
X141500000Y-110525000D02*
X141500000Y-107617677D01*
X141500000Y-107617677D02*
X133500000Y-99617677D01*
%TO.N,Net-(C3-Pad1)*%
X149975000Y-87500000D02*
X149975000Y-81335000D01*
X149975000Y-81335000D02*
X155000000Y-76310000D01*
%TO.N,Net-(R3-Pad1)*%
X155000000Y-68690000D02*
X158690000Y-68690000D01*
D25*
X158690000Y-68690000D02*
X159000000Y-69000000D01*
D24*
X148380000Y-68260000D02*
X154570000Y-68260000D01*
D25*
X154570000Y-68260000D02*
X155000000Y-68690000D01*
%TO.N,Net-(U1A-+)*%
D24*
X125500000Y-70810000D02*
X133000000Y-78310000D01*
%TO.N,GND*%
X136000000Y-60380000D02*
X133237677Y-60380000D01*
X133237677Y-60380000D02*
X125500000Y-68117677D01*
%TO.N,Net-(R1-Pad2)*%
D25*
X136000000Y-68000000D02*
X135690000Y-68000000D01*
D24*
X135690000Y-68000000D02*
X133000000Y-70690000D01*
%TO.N,GND*%
X142510000Y-66510000D02*
X136380000Y-60380000D01*
D25*
X136380000Y-60380000D02*
X136000000Y-60380000D01*
%TO.N,Net-(U1A-+)*%
X143300000Y-68260000D02*
X143300000Y-68700000D01*
D24*
X143300000Y-68700000D02*
X133690000Y-78310000D01*
D25*
X133690000Y-78310000D02*
X133000000Y-78310000D01*
%TO.N,Net-(C3-Pad2)*%
D24*
X124500000Y-87500000D02*
X124500000Y-93617677D01*
X124500000Y-93617677D02*
X121500000Y-96617677D01*
%TO.N,Net-(U1A--)*%
X133500000Y-82690000D02*
X126810000Y-82690000D01*
X126810000Y-82690000D02*
X124500000Y-85000000D01*
%TO.N,Net-(C5-Pad2)*%
X133500000Y-97117677D02*
X133500000Y-90310000D01*
%TO.N,Net-(U1A--)*%
X150130000Y-76604874D02*
X144044874Y-82690000D01*
X144044874Y-82690000D02*
X133500000Y-82690000D01*
%TO.N,*%
X181250000Y-85375000D02*
X175400000Y-91225000D01*
X183750000Y-78475000D02*
X183750000Y-90075000D01*
D25*
X183750000Y-90075000D02*
X182600000Y-91225000D01*
D24*
X181250000Y-78475000D02*
X181250000Y-85375000D01*
%TO.N,Net-(U1A--)*%
X150130000Y-73681370D02*
X145840000Y-69391370D01*
X150130000Y-76604874D02*
X150130000Y-73681370D01*
D25*
X145840000Y-69391370D02*
X145840000Y-68260000D01*
%TO.N,GND*%
D24*
X142510000Y-66510000D02*
X140760000Y-68260000D01*
%TD*%
M02*
